<mxfile host="app.diagrams.net" agent="Mozilla/5.0 (X11; Linux x86_64) AppleWebKit/537.36 (KHTML, like Gecko) Chrome/124.0.0.0 Safari/537.36" version="26.2.12">
  <diagram name="Page-1" id="GDi5MwDLNdo6V4wI-zGD">
    <mxGraphModel dx="542" dy="319" grid="1" gridSize="10" guides="1" tooltips="1" connect="1" arrows="1" fold="1" page="1" pageScale="1" pageWidth="850" pageHeight="1100" math="0" shadow="0">
      <root>
        <mxCell id="0" />
        <mxCell id="1" parent="0" />
        <mxCell id="6RZpUzAoDiVNyotaiS3o-2" value="" style="shape=image;verticalLabelPosition=bottom;labelBackgroundColor=default;verticalAlign=top;aspect=fixed;imageAspect=0;image=data:image/png,iVBORw0KGgoAAAANSUhEUgAAAgcAAAI7CAYAAAB4GTjtAAAABHNCSVQICAgIfAhkiAAAIABJREFUeF7sfQlcVEf27jeAtkholgGEBwQVhyiGCMoYlESU/7glcRmNOnHhuYQXo874DJk8t0SM698JEjNozDNqfkSTIUZj1ESjExTj0hqhVRSUAEqABwEGpBGxEeh36t5uaKCXC+p1q/r90O57q+qc+qpu16lTdc/3Ox0l8MQR4AhwBDgCHAGOAEdAj4ANR4IjwBHgCHAEOAIcAY6AMQLcOODjgSPAEeAIcAQ4AhyBZghw44APCI4AR4AjwBHgCHAEuHHAxwBHgCPAEeAIcAQ4AuYRaLvn4FI8Ts3YiZq8bTg78WNUm6+7zXdK3gqH+oBWUrmqA9tQkicpK6A9DHVwNPJK9fnrU5AePgnZuUblS3fh7NC1KK+XWCdlqzu/H3nHDZVKL9fWnDXbo3BqQw5qd8/DiRXqthZvnV97CLOf+yNenjYbWy62vs2vcAQ4AhwBjsCTjUDbjYOHAi8tNAe3oijnHirjOhy9P5oKZ1vpdd5R70L+yQLpBR6mnA6ReHv7ZkQ/9zApxXXhCHAEOAIcgYcBAbs2K9HRCXZKJWyhQQelorF4zadRUJcvxMB3AoH6DGSNWw6b+CT06K5B/oyRKFSEQWGrxZ1SLZSzV6NnpDvlK0DxisXITtHAxrc3HG4beQ3Ob0Pq+/ugrWUilHCcvBC9JwfChl1ffww1VzW4kxeFs1sAxahl6DPZn/JpUfn5+8hMuowGVsxvNHqumQnXJjVNNrfyk3m4+mMOqosj0OfoQrgaDARtBvLeWY58MkJsSHeb8IXo/04YbG6pcGXuJtwoyIBWuxxnLyqBZ6YiKHYY7AmXsg2LkXVQNBrswuYg6F26rq+zfMVIZNWPhkNxGmoqNah7Zg76jzoN1X97IOSrmXBgGpIXI3WiCt7fxsGTqoaDEgryaNgoGPYtGlN+Cls2psF3xjyM8DHZPH6RI8AR4AhwBDgCbUKg7cZBwEz03yDKCPlUqiyaBLvPoomVJvfCnTg7dRPKwpfBOTkemRkDEHroTThqDuPC2H1NFfqNQuCXM2HP5sJbtA0wJh6FQ7fAN3gm+iVOQeHcSJSNT0SfyKYiDSfX4nKyP4J2r4Ijlasmg+XC5jAMnE956lXIHR+J60J2LerKfeCnL+r0RgL6j6NthcktXBEndyK3YjTCD0xBR8pbV0FGDCvTOQw9t4eBuftTixeg/6IQfU1Agyoel4/4IGhPAhklBch7PQoZe0PQbzwZQ0LSoppc+b12bIFTZ8qvJaND4QPPuhgUXpqJgGeBmgP7URMxBx7MMKBkPzEB/YRPqxAmXmr6V3MZB/+VhH4juHHQEhr+nSPAEeAIcATah0DbjYN2yVHCKZQMA1bWMwTODvtwg84L2JzPgIImQTaRwz0CbsEKlBjq1+agkLwKZUU0edKEWlOhhaKM5TOvQNVxFWquZyBz+jExk1aDhmcKUMe+2Yah++4t8GPl2ZmDQZvMV2S480wwlPnbkB6rId1C4BYZBmuA1VzIgO3z5H2giR/wgccgH1xXk9HRaBwo4PBfwwTDgCUbBWu8P7xfdUfq1yr06OWOwv0aeKwiD4VBD0v/d43GnsvRlnLwexwBjgBHgCPAEWgTAtbmOumVtdyrb3Gwr6GebRmILvEGmq0NE5+NkQa2jZ+1KF6zGOXBW9B/vT9s2DbFmMU0qVtXx37savSfz7YYjBIdSGxX8p6Aft8NQKVKjdJD8Ti7fTBC95CXo2Vb21i5TefW+xz2IyfAcfsuFKW4o0QxASG92lgpz84R4AhwBDgCHIF7hICkxakUWR1clLhTqF+ll15GVbFxKQ1uJKuEFXxDZgrKbwXCmXz6yuBAaH9Og3CsQKtG+UXDmQM6m0CvQdj7+QhGREMOlWnxZkIHml+Zm984OYaH4c7BHSgxvEBQkYPyrOZ5pLSlMU9pAWpo9e8UOQo93nqVzglko0ZwQ4jJ1kGBetJBON+gT/Z9AlF/5gdqI12gMxUlRwvwVEgLY8Uof+NHlwh4P5+B7HcPQ/EqO7sgMbEzBys+wKHrEvPzbBwBjgBHgCPAEbCCwD3zHNhFzoLXHjqcN2MfHLzJd+9iLFkJe+0+nBuzFtpb7ugSGwc3tngetgDPnFmMtKgUKByd0ECH7URrRQmvNyegZFU0Ur91h01nOpDnbVyfAq4Tp+J6bBRUSVQ3O5A4jTwMgxYiOI8OJE6jQ38su5073ObHwdVwuMAUGPrDhZrqUjJotLgyNQN2vqPQe90E2P+6H+nL9pHxwiwRBRxjVot66+vpOGQq3L9eC9W4rbALnICglaNgH7YAvYcuxpUxIwWjoSMdYuw91sJeSKNOCrj9OQK2R0rhPVRKfn1B4czBt3Tm4G2M6GqqgfwaR4AjwBHgCHAE2obA7+4/8RJ7W2EsbryejKDwtin3pOWu2jgJF0oXYGCsxPMG7QWIxTkYfBSTfvpvDLln5mF7leHlOAIcAY4AR+BhQ+CebSs8bA17pPTR0quR5GlIOxyIHrPvs2EgAKOAh8slbJk9H4kZjxRSXFmOAEeAI8ARkAEBGTwHMrSCi+AIcAQ4AhwBjgBH4J4hwD0H9wxKXhFHgCPAEeAIcAQeDwSsGgcXC4yO5z8ebeat4AhwBDgCHAGOAEfAAgJWjQPgdxaK81scAY4AR4AjwBHgCDxuCEgwDnSPW5t5ezgCHAGOAEeAI8ARsICABOPgwXoONMdWYdxLL2Py3C24zHc4LHQlv8UR4AhwBDgCHIF7g4CEt9wfrOcg9bu9cJrxI7ZP0LMQ3Zt281o4AhwBjgBHgCPAETCDwEPvOdASJ4PSBBeBmfbwyxwBjgBHgCPAEeAI3CUCEoyDB+g5qMtHfpETnCisMk8cAY4AR4AjwBHgCMiDgATj4AGdOfg5AZOHv4x/IgqTBsgDBpfCEeAIcAQ4AhwBjkATc7IFLB6Q5+CP8/DF918iqjoJe9UW1OO3OAIcAY4AR4AjwBG4pwg8vJ4D1kxFDzzbtQQlJQYq53vadl4ZR4AjwBHgCHAEOAImEJBgHDwgz4GgLJ01sOPnDUz0G7/EEeAIcAQ4AhyB+4aABOPgAZ050DdZqeyE0uKS+wYAr5gjwBHgCHAEOAIcgeYISDAOHqTnAOj32jz4/jSfB0HiI5cjwBHgCHAEOAIyIWCVsvliQT2e87GVSR0uhiPAEeAIcAQ4AhyBB43AQ+85eNAAcfkcAY4AR4AjwBF40hCQYBzIc+aAeSh44ghwBDgCHAGOAEfgwSMgwTiQ68yBXHIePOhcA44AR4AjwBHgCDzMCEgwDuTxHAByyXmYu4PrxhHgCHAEOAIcgQePgATjQK4VvVxyTIB+KR6nZuxETd42nJ34Mar1Wao/mYRT6zJMFLB8qWZ7FE5tyEHt7nk4seIehXcs+Bb/588vY9y0/4Ok65bl87scAY4AR4AjwBG4GwQkUDbLtaKXS87dwPXgympO70Vyt7dxYv0QFhqKJ44AR4AjwBHgCNw3BLjngEHb0Ql2SiVsadrtQP8bpzuZW6F+bRJODB2L1A0q1LGbmsO4MCQa+aWGnDnInjgSGan6MM8OSigciLhCweptOZXn4+imVdjyU2NhSZ2rJcGdqK6WtUkqzDNxBDgCHAGOAEegDQhwzwEDK2Am+m8QUQv5tDl6daU+6L47Dk71alwZtxjZEQfRMzgCvpHxyP62AL6v+wCX9qFEOxpBweLUbT8xAf2EalYhrGVn1JUidXciTmESol90b3nXzHct8vNLoFQ6mbnPL3MEOAIcAY4AR+DeIcA9B1awVDw/GE5szu8cArdQLTTpbMWvgOuk0ajbvx9V9VqUf3MYdq+OgqOUWFF2ffH2j1exZ04PK5L1tzVHsWrCnzD9G19ETewtrQzPxRHgCHAEOAIcgbtAQIJxINdZALnk3AVaxkUDXoW36w/IT0lB4XF/eL9CHoT7kZRDsGTXv7H5v7KRtC/7fkjgdXIEOAIcAY4AR6AZAhKMA7neIpBLTttGgPbMMVSyowS31Cg5p4QyxLAV4A7v8f4ofXctykMmwMtFar35OPQRnTk41pYzBwr8obcvSks4AZVUlHk+jgBHgCPAEWg/AhKMA7lW9HLJaRtYCvcC5E4bixMvL0bNqIXo8WxTebvI0XCmg4Lu48IgAUixIJ05uPRtIg5mVLZNEZZbOA3JE0eAI8AR4AhwBO4vAhIOJMq1opdLjnRAHd5IwgtvmM/fkHkaVZ4T0OePbXiHQH/mwHytpu8o6S2K26Wl0NDt5u9TmM7Pr3IEOAIcAY4AR6C9CEhY8Mq1opdLTnuhMi5XisJFY/HTwgx4vDNF2kHEuxSrGPw/8b8ckjCbB0G6SyR5cY4AR4AjwBGwhoAEyuY6omyW4GCwJsnK/YsF8sixoga/zRHgCHAEOAIcgSceAe45eOKHAAeAI8AR4AhwBDgCzRGwahw4dpIHMrnkyNMaLoUjwBHgCHAEOAKPLgJWjYOq2/I0Ti45rDUXC+rlaRSXwhHgCHAEOAIcgUcQAavGASDXWwRyyWG9JKesR3BUcJU5AhwBjgBH4IlGQIJxINdbBHLJYf0tp6wnenzxxnMEOAIcAY7AI4iABONArlW2XHJYL8kpy3hUaFE4l9gbVVqUvBOJC0dajJjSXTg7lCIuWtj1KHkrHOoDevbHehXSB8WgmKI3XnmFWCIr7nIEWquvnrFPBuHIxG2oMYiqUCF7NgWJGkF/eubKWuGeFtW7l0M1YiTdo7+JS5Cfpdf7LtVkxWu/ikbKUpVQE5NzdkQkjoaHI2VENLKS2xJ9srUyrO4fg6iu8Ejh78TSFDS0ztbiCrX3qyVQDaW2Mhw+UZuOWZW7DaoxHxMnh9UKxQyFu5AaGoQT6zIaC9Rd2okL4/S4johCxsEC65UVHkZGFNONlYvGFSkY1ZeieE0UTlF7WLlT83eikgXaYIn6PWuGeP3ExOUozDNSoTgFV14fS9iF4+igSchKZffo9d/5Ip4iruH4sVckPQtG5dr60dzYYyRpQ4Lwo77/UgZF41qutcpLUbImGqcGkc7Ph+NE1NrmbRKKE4/KmpE4EjQPhQYczFZrvr7q7TR2DbrR/0eDgnBqYw7VpEH+65FIP2620sYbxuPf4ni19kxbF8VzPKEISHhHUa5VtlxyWE/LKasNI8t1OHp/pIG9FAKnNlR7r7JWbY9HlVcI7IyiOFduox9Rt4UI3xwGO0ZlPXItrg/biwDvw8hakwOvbw/Cz5sm8E8m4ezGFHhtGAYJg65tKrsPQI+tC+HqrUDtcTIU/r4WyiNx8LyLaFF2Y+IQsbIVp6Z5vfK+xuWESvh+dRDeShUyGINnKDF4ivSc5stZvFOK/HWHYRNszNtRgPxVm9AQdRAvjFWiIXUtTi3YirJhy+BmdtxoURy3HJp+iRg43x/I3Ylzsz5ESegqeFjAqOHkJmSeDEHfAwuIfIx0eX0krn47DP2nKVEWtxhlzyZg4PZAaL+IxtkVu+D66QTYowB575Cs8ASEfxoIu1sFqBFsQgo3viEZNBTElPsxVG9UwvOPFgGweNPs2AugYnYh6PFlIvw8LVbR7KZd8Cz0mRsGB6UWlRuikBZLbdrO2iSmhtRNuFYcSHFNpBm55upzmLEFETP0lTJDZsRa2I2kfhFCnLUvtXm8tk8ML/UEISDhd1quVbZccljvyimr+WiypUiHdh0AG0d3dDAKrFj5yTxc/TEH1cUR6HOUJjrDD319AYpX0ESTooGNb2843Db+YVKgg4sSNrYK2DnS/y0GrvZiEj74rhMm/X0MekjoacY2abY+mlCyzg1AwPgMnNvWJEiQeUsjrqxvadHQ0R32As8ENY5+RO9Ui/rW3QQ6uLmLOmpo1Tk/HmWl4j270Dno/e4wOFCbq76IweWkHLE+W394LVmGbv3YDKZF1VfvI/3jNMDFB45e9EOq57NwGERl9Sp1DO0LB+0uaG/RBVaskFaxyzahrJjJUsJ19moEtpski1bSsTHIPaf/EfeMQI81C+BBdBu1xMFRHTQBXWgyaqgPA93ClWO02u8XiLrz25C+dAeqaYK0D3Qnj4I0ds2avWtR0n0O/G4txhV9+xiuNjR+Gghz1p4Ghq+bBxTCeKFJ7fP3kZl0WcTPbzR6rpkJV2UpagoUcCAuEKG//MLoGhkUpJ6HJfuH6rSp04KIR2my1aKuVgmFJ/VrfQZKTirhtikQNuQBsR85DE+tT0G5ZgK8Kw6jKJ9wmU6GAZPV2Qf2ndmH5qny6x/QMGJ10zhvmcHoe0PWflxeuRWV5aSPLfXh/AT0jNSPd5Njz0JlZseeO1xHGnhTFHAMCQSOlKGOeXgYtlo1shPK4LkoDMVEtmacag6uRcZmFaFPSdEbfvGr4O1tpT59BQ0pX+M3r9Ho391QI/O4xeDshzmoraK2vhOHwKFML/Pjv5kyrb5YeKZb5eUXOAJGCOispAv5dVZy3Jvbcslh2sopq03olHylO/OnNbr/GEF+5/u3dMkTNuk0t6mmkh905wc+q0vbz75YT5W739AFBP1Nd/CO9bwWc9Tl667Pel33y1Wdrv7Hxbrkv2zV3TIUqLysy501RPfvgUN0yX2G6NK+zm+s6tb3sbqT/Qfqjg3sp0v+83rdfyr1t+oqdbdKDG2o1BXMGaI7/734/U5Ric6gbn36et3JP1PbWbGiHbozA1/X/VpAn5k+06nOJadbqX1r5+u6Y7O+0utH+aaN0V38US+4/Jju4vC5uoKSVsWaXdAmva77d78hup9epL8/v6X75bRB8ds6bZHhs053a9s03U/vpwllNR+O0R1bdlpX+j5hMWef7saWabrkvx/T1ddl634ZzdrHyt3WaRIm6v79MrXJ2mNVsk93/i80FgiWG6tH6H7678uNOtbnfKU7/ydq/4sDCffXdbkZInb1Jwjv6VvFsUK5b5IOJ4Vyt3W/LRxCn9MEbOszNulO95Eyjip1pR9QOwiLY/366X5ackynZVrc/kGX1ud13fX0r3Tn+ozRXT1HuPafqMu9TvdOx+qOTYjV/fJ3kv3yGN3pWWt0RazPjNPt07qLgyfqfslpcd3U17o0XebwEbqLh/WdVleiu1mgHzvmxh4rM5jw+dMI3bHBY3Rnlu1rxERnYew1iS/RFf1thO705mz9pdu6Gx9O06UlkQ6V+6jNNIYMwyBnq+70i3N1v7K2s1Ser7tZ3rIhLesz3BfH/jlWr5Aqdb/OelZ3jHAW+ukq9dOLi3W/VdMXC+Pf/Hg1yOH/cwTajoCE9aRcq2y55DDLSE5Zd2eLas5nQBExB47My+AeAbdgBaRyMyrHbcbVcXcnn5WuTlqO33otQChz17bY3q5J3opSz2V48dMIdCzcD/X0xbgWlIhuPmrkJ5bC6/NkdAugFW1cNNJXpiBsXQTs6jSopC2K9HN0NoBWZXW0gWsXxlbCtEKivfHMpT+guppWibTnrf0tDFpavTmkZ6A6YBi6CH5pH3hEBuL61eZtq0uNx4UvPPCM4N6mVKFG2UWqY8s8nN0i5mXcVfZloqjmpZu+dRy6Gi+OcUdHhRY1R9Yidf5y2B+Kgzd5KrTHNyH9mwwIRwYqcqD1L212HsF19haE1vrA7uAusUJNGioLQ+BNK12WHCPDYH/YnGTDdbbXvwM2b26BK/V7c4ouDcoS9wPRezFkoo+wjXJuQTycvl0I2+Mq1FzPQOb0Y2JFWvLoPFNAnopAeLy1GprYtTj7ihY2/sPhHKJoOjdiTh1aseddCEGf5ETSIwfXZlMffpWEfmP0BdyGo+eOvujwhwI0dgUB05CuRu182sJYp0DVp9E4t0zccuioL1aXvAvlvsarZXMK0PUcFZ3BiSBPgX5Vb+sOB/3ehNmxFxCI7l8moyfbV6rIwLW3SO/N/rSlQt4AS2NPUINW6J+Sp047EyGvM1c/tSdzG66epy2/eaQDjUvjVKs6jZrQqfD2018lr5bBiyVeaV1fY/niH1B4PgRPrzF4LNgdJZwjaIuOffSPIA/PYtyg8xxuBebHv6Xxaqwr/8wRaAsCEowDufbn5ZLD4JFTVlu6w3ReG6NespXQY6Zrae9V+nE7l4Oa9BicOkR1aEtRV6FA6mwFQjYPQ9meFCimxUH44fceBg//5Sg+r0G30n0o0vYmg4JZNQo4DSf/9V9PQ0M/9PZ0gPBqIU0OX44SzleULY1ELrmvQYenst7eB0V8IoLICELxTpydmG1ScVvaSjFODZe2IW1ZDrw/SoBn4z7zbRIdhu5b6fyBCdd2Q/JynFohnohzeDMRIRP1P9IuZBgIlStgHzkBbi4xqKIfaJTS9sA2rbCX7UGGQsOBeTh6UNwaUXi5oyGLDAX3MDhR1vKiUii6sG0UMuWYe96grG2LqGKl+3Fh2iZUsWrCFyBsJZ3JoIOf5eml9DcJJ+hyfUUBajEPKkUcwqLpYN8BBdzmiucQOoYPh2NVPMoLBdMK9mNXoz87V9AykV49NiahB7tO9WeN2wd7Hz2GpnSgbFVk4NT8YRlNUKyQPzwH+eC6KgMN492hcCGjq0IJh2fZBJyG2nrCjG3zaGmLwz2Etiv0xlD4AChom+gmGQ3iVlkpinar8dSYZY17+aKqZHy8Tgf92Lk8l2EI3LXAypYDHfgzN/YClOjItj9YcgmE7yshyD2YIxhJd8yNPTE3HSqNQfrJAQjaOEHY5mJJq05DTU4B1CN20DcNbVlpoaEDtvh8lYC5pWSqPkP+6m+/Rs2gORbPfZiru9n4NzdepdDI03On0WihoE5u/kSZk8yvPykItNymNtFuuVbZcslhTZRTlglI23BJGUwHvn6mH19WhvY9yy+Kk5GUKrTqRKxakYTLd0X1rIDn+mREHKEDcPQ3MHY47J6dhX6bp9AKSUGTBK0OVSrxZL6G9LuqhD0dDISrBzoUpqGMTaqUqn9W446vr2AMNFRpYOvtLx68vKVCyRn92wX0Q3WnllaGfuLPVE3yMXHSpPI2QcFwuH4eN4Ttfg3KzzSd3m/I3An1wjR0WR8H38a9W8rmMgBuz6jx6xf6Mwy0KqxJVTeumG0il+GFo9Qu+ms0DKhYbS5bbYup9ucfUF7hD0e2Wq2qRIPSFw7Cj64GJclqfS6g4/ODybvxA34rZrdUKD5JEAymlapLXzh50mR/Sey3mnM00QhuB31yH4U+h0QdXmCGAbtsG4bAI02YB4+nffuJCQibH0L2Cv2Id6b6mNeFksAMWkf33cgrER6GOwd3oMTwsgZ5Nsqz9OcjNHTuQPjI9rTjUVQ/DF5BFnSgW3Y0YWjVKn0fkLFCRqLCjwweW/JEhJMHY79a8JrUHDiMm8FslUtf/Ok8Q+cMMmz07aWJVeuj72smLm8/CjPJkzJUNB70GrCC6PapHoc9RoYBq882hRxK+kaRN6m6kNVtYexpClCtP88CbQGKksn7FuAvYGt27LF27I3BhW96o+eGmXAyMibtJ9MBwuPi+H9h90I4dw5DwFd0roAsg45hA2B/bhe92aB/LsmQq9G/NWSuPqHNdG6jcL8G7mNa0r1rcCNZfJ4actg5jt5wpjFtafybHa9N4Jr/dOI9vPDiOzikHybmM/I7TxoCEtahcq2y5ZLDulhOWRKGFE2QV+Zugqa6FFV0cO7K1AzY+Y5C73W0ehm2AM+cWYy0KFqhOzrR5EQH0iRUybJor51C4i4F+i2aJPEInMSKG7Mp4fnWMpS/uxwnh9CcZkcrbVq5BoWzyX0KekZn48r0SOTTdbjQynXlq+JqcdwcuMXQWwW0+lXY0cEyH/36i63yZ+/D5TeiUeJF193I0DCMUM/R6PXmeVyeHo1CL8LgFpVxFFqJogR6/bNAiZszRuI6u2Trg6c/pa2NAB/4rVmGmmXk9UgS89oFTEXvYJpk9avCxqY0fqAf58R5yDxIXgCSbeMSAi+qg00EcJ2Kbv6LkT7jMuxpblMo6ICfwVbze5XczhlInzYS1+oIh1dXo4/wpoI/ui4fjfTVUUh1p4mVDvbd1QqNDIceK0chfd0kpKxXwJba6hZL+rG5dtBCBOfRgUTSIYuJtnOH2/w4uLLtoGJ6lfGNrdDUatHh6WHovn4OnMxiIIJhP3EZAjIW48LQfWwuhk0gHRydQQYPJbeY1Sh/azl+GkKGHm139fiHfivHlt4SiB1MBzDpNUdmYSn7kr6jG70EVXv3QUt6WnpLQpSu/5fqC/hoJi4vi8aJDaQDGUfCgURqsNmxl0WHUNnzxCY8Gl/24W8iaJ6ot4O5sUdeq+x/7Kc3K3yQPlK/JeQ2CkHGhkozxfRfus9En0UlyJg7FnnssGhn/YFEemPFUn0Nql0oqhuG4FZ076TvrX1IGxOPmltKdHk3Dh5swJgd/xbGqyl9W1wrvZ4PPDcCfVvaahLK8iyPNwJPJCsjZ4B8vAc1bx1HgCMgBQENvp37Gi5N3YMlA+7KZJUijOd5xBDgnoNHrMO4uhwBjgBH4N4goMSYjd/BcL703tTJa3lcEJDgoZZrf14uOazr5JT1uAwV3g6OAEeAI8AReFIQkGAcyLU/L5cc1rVyynpShhJvJ0eAI8AR4Ag8LghIMA7kWmXLJYd1nZyyHpehwtvBEeAIcAQ4Ak8KAhKMA7lW2XLJYV0rp6wnZSjxdnIEOAIcAY7A44KABONArlW2XHJY18kp63EZKrwdHAGOAEeAI/CkICDBOJBrlS2XHNa1csoyHkpWKJvv9agzQQFdvpEY9CaOJHrj5SgzDsbDZN9retdL8Tg1Yydq8raRzI+bIs/S9ROvGdE+S2l38X6kRxF98KBQnN1eIKWEvHna06a70LDuPIU2Pm6IdnQXFdWnID1cCgWxKRlE4T1uErKFoAotEtEpX3mN6KHHTIJqjRTK65YVPCrfZX6mHxVYuJ6PPAISXmWUa5UtlxzWZ3LKeoBjxAQFtOvcLeg/eRdSxzRFGHyAGkoX7UkBaRJHoXzFSJgOqCy9qkcjJ4Wt3rsJuQdLgsLNAAAgAElEQVQyBGZAG79h6PHOBDjqI/fdUe9CfjEFeRpkLYDv/WwtBZtau5pYHlvLEIL8eCxABFF0S1iBtK6AX+EIcAQeKAISjAO5VtlyyWF4yymref+ao2yuVX2My+t+QA2Lk0xR1nyXvwffXhTYbj7xDmgoutt1DRzCfVBDYYNtJieg/wx/C/TGRNZjjgLa4nCzTO+ave8DJGki8fbUvtKi/HV0ogB1SgpGqEEHiuzYLN3KQd5bUShXU2hj/1kUy55C1rIs7aFY1uagcMVy5OmplBVDFyAohoigSG7h7JEo7DwKCuITqLmqgZKi6wUyal6z1L0WAKo/jAvPb0JdpA9siCpZW+UD3xUUndAwOZppkzka6prPyYvzDfEh3CJPyHNhsL1KxEld56DfhlGo+5SiNBZMQO+NC+BAuNQcWIL0DT0QOl+LLIr+d4OIeLRaijJ5kULbPTMVQbHDKAqhOcpmsU0mqYUFHgoKR715HvKPZ6CmjiIcfkJhqKlNlevGItOB+BzmilwNdXvn4eTx0QhfTxP+8Xic+5j0/YUoNb4gzgYWhZElCgt8be5alF4nLgMK33zutR0AUXKHxvij8PVJKJ90EH2GimOhfA1FclRSWGh9/foaWv1njrIZtzKQt2g58q+K4ZQdZ1J0zon+0FrAVSDkMpUqiDRs3DF4fUs8HCxaILUja8xy2HxEbbtFnq6FOXANVEBbTOOo42jqF/14pazmnmlTYvg1jsAjg4A1IscL+XfL92tNgnhfLjlMmpyyJLW+fJ8ubfhbugI9tW29mqiKiRb5JlHtFv1toO784dsCPbBAAcwoYqftECiJzdIbG4SaoIAWbpUT1e6LsbpSa7TBLZRPXhikC/if/yJi2btMRMX8Uz+i/GU0t0S/nPuXgUSrzGh4rVMs/+f9Eboz25pooZkmNz6cqDv9gUhHTLzWul/fIIpfoT6ixH2jn+7kB5d19fSt/twa3U8TGK5MrnnaaHbbZKojymyipRbr1um037ylO0b0zMITYrZN5vvpVuLrAuWzQE09fL3uxm1GT0zjoJDRNdP3utu6m9+s0Z37yzTdub/P1Z0WxoSYBLro1SJdtEFX85TNlMMctXAdo1seSDTgjDaYqIn/e0xTvRmk12gDvTTRCTfiapBIdNR/JuplovJumer3E9X4AhqvRjcY/TjDS6R9JtrmP9EYKGpZssV3C5TNAk02PRMC/kRxnfbiNF0u0UCbxZVRH5tNBupw/eimZ7BxrLC+7U80zQIVM42v6U1jwGx1/AZH4BFHgHsOHgIzroHIbW6U0Urw7SgQuR4lLRpuhegJepToQHzNHVyIcMeNYvM7lqDDzTKBGKiDGXpjRysx89vb5CFrLjZR87a3EkO57kSKJKy4feDor0B5Ga3+2kWxXIDyk0SdrI1H2jmx8oYqogIoY/vxbAmogGNIoOja9vZFR02+SAFtlbrXTAPtAuEaKq58O/6xL+w3pOFG/SgQ7xFgqk3Mx2Kmn9jDx8iNbIgzw47InOyIB8BOqUFdKpEzhYyGY/HXUCc5IeCzRDhkxkP1Po0LM2qxy1UWKJsbzFELs3MndiFwCxe3JxwDfXDnOFE902WbXqPhYRuDoqw34ej2A0pywuAn8Ga0L9kRw6X7hk0oKhwF74u7UBlIfBmNDJpm6jRL2UycAsRc6TxJT2/sToyggctRkqEFq9IkrtV0wwQ7pyiZeAyIvTH7UArqRo6C5uBhdBy5pYl+2a8vnAXCLXciFgNK2HiV5j8z0zB+mSPwcCMgwTiQa39eLjmsQ+SUJXEABE5F38QpeqpgQxktGMkfOhhR/rIeYz/otdLpjSVqIG82MmBa70Vbplg2r6AS7osSEUis0M0TY96hycx4lOsPYdZYoe5tWVPTd5qgDQc5iUWy2WRtqk1SaKgZMVUHbSMeukoNbJxosr6ejTvPkZHA5uOgAXB2amKBNKefOcpmgdXTQrJpNChJWCOLpz+8hitw4fsM+HodRk34LLi23zagrgiD78h4XN6rgk16Bpwmr27WNRbUM32r5YHalrla4Co8NxaSXcRoOK/bRcya7qhM8UGXz0RabKGIqb61UFfTLaJELieyLdpeU0j4tZVUJc/EEZABgda/z62EyrU/L5cc1kA5ZbUCtNUFm5AwOF/fh+upet5UoqWtTDXQDLfKLl6wQG9spkTT5c60UiUqW5HC12ruxgzZe1Zh1WdEwSu9SNtyWqFYZpV1oJV2bTExJjbW7APX55Uo/ZIY9fQ//nW5alRaOchvibpXrLoAxRvWIrvlGwF1GShLFiuvPn4aNYF9obTkqWlHP/3OWYkGxrvs3wMdstSopnY10P+ayiY4bekgQn2FuMI3XLVE2WyJWthSJzmMIIruI1uRtb8ArqNa0gtbKmn6nuOro2GTtBi51yPwdEsvBL3hcC02HsV5RmXNUjYr4RzsjhtHUkQ689LD5DUIhDOdC5CSqnavRcbnIuV0Y36iYvYKo/MrZCCU+xCltTWvhhRBmkOY/+ILeO+ElMw8D0fg4UFAgnEg1ypbLjkMfDllSehsF0bPPBjVqybhxAh6/WtENLJVVgjWBXpjBfKJ3lg9PwZZOUb0xowCekYUUSJvIwrow0QBTZ/f2dX0KqEiAl1nAnnjRuLUuLUosSLK0IL8n5OQeOyX+2cc0BYDo1hWqohieShR/tLfhW3iaX2DDo7jZ8FJtRinXpmE1O05wmWneXHo4UJvYDDsho6EasnXuHnLMu4Cde8lRhsdgwuLfkC9gTbaUIwMtBsHdqIkvQU4drSaPEf6kaxz33gg4J1RLbw9LeRa6idzKvYcDIf0fShXvorAiZXI/hvpmFgARVe3Ru9CxyFT4X59LVTjqG+XkmFEddkwyuYptcglymZhHE0jN3ue3pQTqIV9UELUwideGYtTb3yMcisYCer5jUIXD5p4yyLgHWxQuBSFsXSY8rXFKMylyXQh6TBjLchms568R8ErgA6ojprQmjJak4Hfdu+nLSajavSUzUgkyuYRpPe4GP0BRGLsjl6Np7VbcZb6/MTkHbCZvQx+3a2rwHLUnPkahcnZTU4SoZgCbq+E0eHPFNiPHG65X6WJAQp+QUnngRjYW2oBno8j8HAgIIGyuR7P+VhaGt2bhlwskEcO01ZOWfcGHV7LQ4GA8LbCPridTIC3tAVqu9Wu2U0GQXJvBLw7Ba6e91lYu7VsR8EKwnDcLjjv2AI/2rt/3FP+Z5MxX/M+9vytx+PeVN6+xwwBCbtgcq2y5ZLDelBOWY/ZiOHNkQUB+/Fx6OO9E9dWzEN2Fa3+Ow5Aj41v3t2evyyamxdS/fk88gTlQDGFXpV8AgwDhoTv9C+wxzwk/A5H4KFFgHsOHtqu4YpxBDgCHAGOAEfgwSDAzxw8GNy5VI4AR4AjwBHgCDy0CEgwDuQ62S+XHNYXcsp6aPueK8YR4AhwBDgCHAGTCEgwDuTan5dLDsNBTlkmcecXOQIcAY4AR4Aj8NAiIME4kGuVLZcc1hdyynpo+54rxhHgCHAEOAIcAZMISDAO5FplyyWH4SCnLGPc757eteStcKgP0Ol1gWp3Eq4ZAsbQa3bq4GjkSXnX3ORQsHAxlyiXB0XiaHAQjgSFI2XQWFxRmchfr8aVoVHIE8I6UjJH2WyiqKRLba2PYTQkEinh+r/nQ3EkNAbF9H5/w6WduEDU1Snh4ThK7VF/qm56551iHBSviBJiJrCYE1f0QY+YjpVEiKQaQvX0Gokr5yVpTdGwKRZALNXHZIWPJMppMT5DU2ktGAnRkaC2UCdTrIFFLC4GvfsfRTELWAAokpPPrjG9KUaE+hOjNlEI54woMQ5EyzaJerRHBwrUeWQJUnqFI/24vjWE+YXnzbTDrA6lKFkTTXTchM/z4TgRtRaFxoGQzMBc/ckknFrXdnZRRnKmfoXGM/VHyisUC0IfyqKOyKRSx0Tix15BUH1SYEbqvb/c+EzDEg5aVFNUT5UQB4X+Ji5BfpYYw6L2q2j8yJ5L/Tg/sdRAka1BSSyNB2HcEa4TiaRKX4a1whwOjS0spNghoUE4IQVj+o1QBYWSHP2zNiZeHJNUWR171iimihjDJQoZB42wbeszfe/h5zWaQUDCq4xyrbLlksOQkFOWGeQfpcsUQKf/8Zmo3jgJ54qIhndlqzjFD2drbCMQdDS5UTf2I3paNRxuLL6+LYXHfS8RQc8SX0XxfjIUKJDUs8lCCOba/ctx9ZfhCD00BfZZH+PsGx+iJHQVPIiqoWPYVPQaOhVFbyyX3ObKhBhkl05BaPIEYljUoEYk0Ggs35C6CdeKA+Fo24bYk6XHUKwKRM9/L4ObPgxJLUX9yy4ejTCmt5ZYBaeS3NCD6NmPwnDHLYemXyIGzvcHcnfi3KymNjFF2qVDRQqufnEbSqrSerKsg13wLPSZGwYHJTFLbohCWuwuuG6fQEyT9ziV7sfld47Bfs1ehIRTJMrSAtQ5iDJs/Aaj29oJqN0ehev3WKzU6szioDmMrDU5xBp5UIgPwQyjsxtT4EWU2CzZjYkz8VxSFMnoBAyMpTFOocvYq6RnV34NNwrTbm8BB1HXUuSvOwybYKMQ0tYa0X0WQvcQD0ezsDgFyF+1CQ1RB/HCWMI7dS1OLdiKsmFN49Zatfz+g0FAgnEg1ypbLjkMaDllNe9Y0/SutFKNjUGunnIYnhHosWYBPBgXTj2F8V2xGNkpFG/ftzccbkubQGqT1+L8ehXq2INq6w/vD+LE6HFm6Y2ZnjnIpgh01RFhaDifgTuVFBN+SgL6jBdJeUwOUQp5m/XWchQVKaB4xh82pF7jD7olymaq7F5SQJukI272Ln0BCr+mEMDzI8R4/r0iBIIeIXmGQOlNRD4CmQ5QflwN+6HLRNKdXsPg5haN38hL4DGI2vZsGOyJzvc3yteSBMkktXBEAYqOAF7xzDBgtVMkS2O9tGpkJ5TBc1EYilNSBPmWkxZlcfOQe6YAVaSvlqJf5joNxjNEIYwciqL4bAjsWZ93JoKo54je+QR5KfopUFOggMN46h9WuV8YXJX0A02Lbg9m57VZB1YJrUrjdsB2xgI8laDCzWZKiyvg/HSaeDv2RbcPVsG7e6kFHdzhymi0hSQSZeEIkYsxb4iV+Gt3MrdC/VoBqgkL+1cWos98RsRk/nmqO/4DbgQRxTUZBizZuPs0RkK08QuBK10rsyJTKGhIZp8n8zqYf6Yt4MA4Qsh4vENU4SzVEeAdGBEbfW45Do20Q0dvo2eXcWbcEe9awoHlqNlLkVO7z4HfrcW40lihhTYZC232WQEb4oZpuMXcM2QcMP3dPKAwYGzlN8JstfzGfUdAgnEg1ypbLjkMUzllGfehAp5rksRJqV+SyOQn3FbCdXYCPAUieXowaeWSulkNj3dDUHc4HpkZA2gVSxY5rR4ujN1nXKGZzzQRbk7BU0v30kqYflS0GtTqeQcqNy9GvstC9D8UIvyI5s+OwtXkMARFGqLw5aCqYiHCti8UJtEGi7YITVQblqMsYDXCt4cAKgrna+SCRwB5HDaIKoZ82lrV/NOJSCzyxV+n9pXGb2euPnJpXlhTAO/P98LXj+RU0GTRUlzmLhRpItCT4dEiNWTuJ7Kd4egqxPovhZYmmg4upWQojUT52ER4eWiIq0H8cWtZtvE7balk/W0TEJOIF4bSDzJtTVQXU311xGFRRkx+yTFQLSS+DIU/POYvRA+BBZFWyZvjUT0yDgGeKpFky6wAww0K8RuzBW7FO3F2Wj567FgIV/0PbW2AP7Rfq1CtDYQDhdAuO0dtCWb7TCFwoNV90UnaZggPgU3WYZTR/pNCbwy1XQdqFrngr9cTWRhNsvkJLZQmgxbP70XYGnfUkLfmLHEVuG8ebUEH4z4hw2K3CvajElqsQE0DU1fqg+674+DEtrTGkREdQZ6SYPPPU00BGVAO2ciaMQk3SrWwC56CXu9OEMmtTIuweNX882ReB2nPdAsclMPQM/Y01NMiUWhHhF9dpqDPZ9SXeu3qDi3GCba14xYCz3eWoUeY+FvCbpevm4SMb4m5tGMYenzyqmC8V1nCgbwKWUnu6Eb12643br75Ngm58nYg7U+7yI1BfCdRC9FrWiD9hrjDN/Z/48YbY3F0s4JIywLR/dOFcDRUa+6ZNhbLPz8QBCQYB3KtsuWSw3CWU5a0ftUe34T0bzJE4rgKepD9RXIhDa3gFRFzxB8v9wi4BStQYrVKdziFKPDr+veRNSwYzmGD4fYsK2SJ3tjgPqQHmwh2DAPDpvVcaiS9ADcuauH8DjM0KP1xMJxcpO8B3ysK6FpzdMSNmtJ++teHgZEJjRNp463SFFxeeAzOa7bAU6Dk1SfytnT9BxkGnj64ccbourmP5qiFmXGlJUruuiSEfhsInI8nPocPoTyyCm5523D1/HD0nkeGQitrxpwg89c7jqUf5KzluDCeDEjH3vAIpclDYFhUwOOt1dDErsXZV4j90X84nGl8MD6Ghsx26ECGR1aCBt4fkRfGlgyBlsk2sJEC2n7QYNgnZEBTP8GsDk3Ftaj6lCZ47UyEvE7WjISkeJ7GnDBGiXY6VItconEGGQfmnieWs1pVAL+vkhDoTsbx3ybh8ucDEPZ6G9znjXpZep7czepg/Zk2gcMtNfITS+H1eTK6BZBRGReN9JUpCFsXgY5DV+PFMe7oqNCi5shapM5fDvtDcfDWj2fXd5LwwjtU5/YYXE5UwWtlhNAC0zgoULyGeCre3CJE4zTi+hLKmMPVhjgz+hyl7QoXMgByd+HC9HnI6n4QgeG0gEjcD0TvxZCJPqg9vhznFsTD6Vsyai3+tjSCzD88IAQkGAdyrbLlksOQllOWhJ7N2ob0bVr0+DIRHvRANxyYh6MHm5bsNka9ZNv4mZ4sY/enMAmQm1S4r4Dror0YkKVC+ZnTyP/rJBTF7EWfV9g9c/TGYnlWljHdSksK2FJm5jY0JNu2uGSlCbn7XDSZ5R9xpx/WFhMObYlcmUurffLa9GxcaZHb302BO2Ua2I1kK58cFJUo0dG9aSXWJoXsiKrXzR8Ow1hdlBj1si15C+jQpqM6DTW0FaAesYNuaKC9RfS+dNAMn5MbnuyF8g204ttLHgtaiXl/tAXdelmRTOcoPBeRkaPPVhY7EmVd9ZOeO60aNyahB7tXn4Oscftg76OgHQXLOjQkL8epFeLpU4c3ExEykRTLI4bIYjXKieDpGlV3h7FkLh2LjJU04YZb0NGMDoYS1V/FIP3kAARtpC0Yo3FkUgcLYmDheVK4kys+aLiecdEdbmE+yE5nDKg+JijEjYTQavrCtE1gkawRvgBhK4fpDWgzzxOdVWn7My3KM4mDeh+KtL0RGsAeTgWchtN+0F9Pk9EVAVcXMgyEogrYR06Am0sMqvLoq7Gxy7Zrxkagw9BdKF0cAXdzONQrUE4GVnk6HWSkKurJC1cLOoSriEPYSJX5NinIO6b/3bDpPgHe4R8iN5MMtZAMFB4gb9dccRx2DB8Oxyo6rEjnbly7i+219K9WQ8+FrRJK/bkQS3n5vXuLAH9b4d7i2b7aqirRoPSFg/Aw015usrqxHmVwILQ/p4m0tLQ3XE4rdSHRRPCUJzEHspUSpYZL9CPvQpOQMIfRCiKPJreAMHhOo33DCFolFrJ87aM3FgSYTOShoMXwjXP60/c5atq3N5nR5MV7RQFtjY649jBR8PqPgifbcjAkDW0DzFkL7eQ4BDXud7ObCjgPCkHN9/tFquRMcsGXDUCXRkZCk00hemXax7dNQeFhsT+EbYVC6itiFXT7oxY3VCIFdwNhpKn3IQOEzi9M3oKI43RQ6wj97V4IZ6IMDvhKNAyYFNf5tOI7yu5LMAwEteiwY7F+T/rSNuSSQdRlqN440NCev3Aqn516j0dRPVESB1nXwSZymagD6SEYBiz1ehNhx5NFvUm3rr3c4bGStrAG6WcHOpNRpqe6rkk+1kRrbUYHVmXNXiKa+qY3em6YCSd2YNQomdRBf1975hjoaAxAK+uSczSJhJCOFp4nNlYcck6jrIJVQNtFatpm8LNiGLCs7rQyPkR9wfqj0TCw8DxZ0MHsM01izOLg6oEOhWm0HSQ2vPpnNe74+grnS2pz6WyHHo/an39AeYU/HNm5FtreqUwt0J9JoH4/mAKNI4096iazONiGIfBIMiLYmKS/4PGUf2ICwubTtqGFNjUU5qDGwPJJTLC/naMzLt2pLxRkHHfOQTltcbHUkHkaVXXi+NerbOG/fCTO+iPGfZRmIQ+/db8Q4J6D+4VsW+oNnopu/ouRPuMy7GlyV9C+NDvYx5LdsAV45sxipEWlQOHoREYErdSFOz7wfW8WNO9FISWOMjsEwmv5Mr3bnCz/jTG4RoYEO6UM4qYPmCuumgV64zXLid6YVswsudGBsbUhcBK/mf6Xvco4fQeq6ce9rj4GKcdp0lm3V9i/d51LMt9ZDNXP7rSXS56LNiywBQrooh7463SJZw5MawcIdMQlyCA64jya3G0694ZfPE2ygrFViqI9ajiPW93s5HvNt/HIO18Au18Jv3+IFStpMmYTYMdRC/HM+cVQ0/5pPa2IusTGCW8qsFS5MQrnv8hBXTn92L0Rid9oldR3BzuhHYKAj2bi8jKiFt5AONCPout88kh4K8mdvhDli4jm+QtmLNChs6WroT9eYq5F7btOHoH8OTEo/I3k0IFEL5LTzWAQ0Q92xhtboaml8xRPD0P39XNaUya3T2rrUmS44hzRam+hialzX/SI19Nam9OhXoXsfxDttNYH6SN3ifW5jULQngWtt4FaSFO4FxBF9VhU0/kB+1eXoQ/bPqOzEOaeJ3SnMwZTFiOTXmPNoqw2gVPRe5reo3RyLU4sOow7tFqus52ElH+FoOuOBIvskWafp/Y805Zw6DUFPaOzcWV6JPKZa8+FPEEr2fkBWkwkzkPmQfLe0K+5jUsIvIj2XDiHSAZqacJynM/SkIFAvwVdwtA1fo6IqSUcWveoeMVCm7Q/b0LqP1TieUfqf2ci1+otnGNieo5COp17SFlPnka65xZL+kn5najLR36RBwa+0NucRvz6fURAAvFSHVE2S7Ah7lLJiwXyyGFqyinrLmHhxTkCHAGOwJOJwMUPMG69BzZ8FgXfJxOBB9pqCbO+XPvzcslheMsp64H2LxfOEeAIcAQeTQSeext7Pns0VX8ctOZnDh6HXuRt4AhwBDgCHAGOwD1EQIJxINcqWy45DD05Zd3D3uJVcQQ4AhwBjgBHQAYErBoHyk4yaEEilJ3km7AdZWqTPMhxKRwBjgBHgCPAEbi3CFg1DjS3761Ac7VpbssXmKhKpjaZayu/zhHgCHAEOAIcgYcZAavGgXzRBOUzDuRr08Pc9Vw3jgBHgCPAEeAImEZAgnEgl7tfLjkMCDllmQaeX+UIcAQ4AhwBjsDDioAE40CuFb1cclhXyCnLuOu1KJw7EhkqLUreicQFYut7rNO95mo3WV8p8l4LhfqgAUkNCmeHIvUrIRyg2VSXTBwHr1FgltCxyLpkNtv9vUFBb9KfD8LRQcR1PygSKSOikaUnrqr5NAqn1knnqbgXitZ8QZS+n+ijXdanIH0I6RQeiaPBQTgSFC58ThkyD3kU+bFwLl0L1V8TrlPwJSHqICVNBvLeofC7rDy1TbUmhSL4me+nhuQlODpumxG9BOvDcJz9ggJNsQBchE2jDoPG4ooYzZmIvpYjpVcojjL5+r/ULygqIIWdTnmHydQnCn2sHhSFa7n673k7kTqD5OnJyAzZwPpjUAyKKdrilVeikW9oT2MG/oEj8OQgwOMcPDl9zVtqhIBd5AL0jxQpqi1R3t530OwC4fsZcR50p9C5B2Jw9t0P4Ry+qom17r4roBdA/BPZXyiI2VIfLdA2AkFHk4Wb1Rsn4WzBAkSsYfzOLJFxwPg73jmIfhNbhrrToPjdeSh0W43+R8Mo5r8GVZdKLfIW2IQSP0DhLpQVz4QDI4agMOFl6f5wX0Rh/vyI2fP4TEGHc0Wkw0qDDnpV/GcRoRWLUKn/zv67tQDuY9Yi91IEAp4l0q3NW1HzCkVPJIyF5PcqfN0nITv5VfQZ2lJ/o3r4R47AE4yABONArlW2XHJYb8spq/noslUqYUdERTaO7uhgIDhiq7RBu+B6MEEIK9pAk0RK8mhErI+gH1UNhUImTvX9BSzsPwXcH43en1L8efZjWJiCK8s20Y8qi7XM6FRXI/AVfSz9il1IfSUFjhMVuJFKoVUrlejyD6KFPh6Fsyd94aqsRO31AtQPWoi+MSILY9UXxNqWJHIAgFgJvZYsQ7d+xNI2PxK5GiJRuK6BQ7gPas5kwGZyAvrPoInELJ89qWSFqz173wdI0kTibamUzVbqM/kcW8LIZAG6aK5NQj9tQsOIHmgozEd1kTv8PooTaaI1xFQ4Px5lFMaXJbvQOej97rBmBELmxBmu20cOhnLpLqJ4JlImutiQt49Cai9HZVYp7Cj8c+jd9JMV4XXJjH9iOHo1I+uxUsjU7dIfUHjSH75HmGHAkhKOz7IJmLwA5pIyjJiGl6NEpYHfWMqrpvj7bgPQ3c9cASvXiaOix3x/nI3bBe93q5B9vDd67G6iN2YPktuI3sj8KgW1Q/WhnYUqFUTVrYSNLZGPOdL/VsTw2xyBxxkBCcaBXPvzcslh3SmnLOPho4DnmiSRNa9fEoh7x3rSpOBaogLdj+6FJxHSNFRQnHRhlVSAvEXxuDM9ES9E0g9qBU1cr61F4fNkYOj5cZh7t9ovCf3nswvEAU9uVO1xoO52IHp8SvSq2sO4QIyARTPD4EuTgn3kQoROdhfY5hrIha96byfc9swUdHQgYyCgIBqqTDJaPumNs7Eq1JBxULt5MfJdFqL/IUbbTBS4s6NwNTkMQSyuuhWu9vzTicSt4Iu/SjUOzNZHq8NYci2vEeFsqNBCGSkRI7FIs4TwsmUAACAASURBVH8rzbUpgrLV0So4IhF9iGSo+pNJUH+hhu8iIqUhbgvfdYkIcGcWHLnFiech+3AE+ow0WIAmBDW7RMQ4B45Bo6SJVT8wtAVOeJqohZ005BYfe3f9ZG9F/A2VGvbBCxqpuq1kp9tEJhU3FikJ+pyeExD85ZtwYgQ8jgYCsJa1mOsnYjYcFIjsU2o0EHNg9RnaNwhfLc17krcV54bsEidyRSC6fkpcCGRUdHxlAXy/iob6Deqa2cR22sJBYBMUDPt3iUq7fhQ8DF4H4sfo+S31JSWPL+NaKs+/cwSeKAQkGAdyrbLlksP6V05ZdzmeHPzh5BeP3EVrcfP5vnCNYBStVGcFuV4vlkK7hfaJt4gy2B6rPWNFNBgHnYmEpZFxkAiJ9D+CipBAgc0NCmJHcyEyJba3yuosPIzMpT+gupo8G0Taov0tDFphX1aJDo7iqkrhRpS3jiXocLOM9nQt8dnrPRiiaib/HbLmIq6avNPWi+Tijk1GyEhWju1XR4IYkaVh1EqUpTZRZtoGcA0WJ3x7bx/cyWGkNoRXHTH8bY9HOmOfI2zrCokVM4ydezB0RitB4oU62p+fFolCKmPrGYKn1y0AMUajhu4qwsLgJHiLaLK9q34yI7vxMtHiEkV1hzArujarhtgriQa89baCJVlm+omKdAwfAMX207ih9UclnclxnU+eKinJz8S2glCOiMle74vcFY7kjTDRLmI5VGhLoGVddLfeEil68jwcgUcMAQnGgVyrbLnksB6SU1Y7RkSdnpKRFbWlVf6Xe+F1nuiaT+xDxsRdtCLaAr/OFKxBEYbuW+MEj4LJRMyAdiZ62EbYn2hKwvxPh7Gy3t4HRXwigtjkV7wTZydmN2ViWyGGb6xOVkhvOLgvSkRgi61go+of4EcJGJnUjlayptpErIetkv7UW83u5bhaOBr9vxwlGF5lS2krxrgfWxXUXyBjw+9z8cxByyzMvd2YqM676ifD6rilEOE7seWRqAYtG3fNx4bJ7JYuevvDvuowMXiSTdOWSdcvAm6OMSg744+q4r7wFRfwliRZvWfj4Ehbd06gods6UVsbqK0Gg7l1BhNXqD81Gi0UrkRDbOI2v8QReJwQkLCtJtcqWy45rPvklCVluBDdMa0Ma4TlLrlr0/X7/sLXUqKjJW70fhHwnTcHnl0KxHwuA+D2jBq/En2weKBOi5pUtbDibFeiH747te5w8BN/9mqSj6HKyEYxXacFPnvTBZpdzd6zCqs+S2Ok0vcnWcWIPCJOGtQUGWvQvjY1VGlgyyZGNgnT4b6SMxb22O+mte3qJ2sCaXwF+NNRCzrXcrfJfTA8w4k6OkGFWqEu2i65RNTNVuulA4hkYJYlfI2bIeQdu9+zbx5tf3j64ykHq4o1ZTjxHl548R0csvwiTBsq5Fk5Ag8vAibWlS2VlWuVLZcc1j45ZbXE08R38g74zvCB+m9RqHzGlw6xGR2GukVu57/Fo/wWlaM5rGP4AlrZszp84Ee87TXLYnAqiX3Xwi6AuOmDacllcZVoQj67xLwQs/fh8hvRKPEi+W5K2EsYHWb57M2IMb6c/3MSnTnogb9O73ufVmLWMHKH94xRKFoxFicS3OHxHp0Z6AeYbZOr+UY5jJsDt5jlODvXBwo7ws/HhCvbfHHpd9rZT9YEOA4dDCxModcJAyFtvqTzA+tGImWDfhanA6xPf7YF3boTpiviUBu7FmeHlKK+XgEFvSkQ+qy/NRXgNCgMdz79GsrJ4gFZoQB7lXH6DvJE0PZXPR3UPe6OLuv2ouddeqpqTp4GhiwUD/Za1UzMUHo9H3huBPryFxwkIsazPcoI/E5HyVIDLhbU4TkfCbOEpUok3JNLDlNFTlkSms6zcAQeAgRK6RDlPFTNTERPekPlsU71Gch6LR728Vvg6y21pRp8O/c1XJq6B0sGPOb4SIWE53usEZAw68u1ypZLDutPOWU91uOHN+6xQYBW/IvnIP8q2w6xfpj0kW52sQb20cvaYBiw1ioxZuN3GPNIN5wrzxGQjoAE48CiY0G6JKs55ZLDFJFTltWG8wwcgYcDAW861yJ5Jf1wqNwuLbzp1d0noZ3tAocX4giICEg4kCjXKlsuOazhcsriQ40jwBHgCHAEOAKPFgISjAO5VtlyyWEdJKesR2tAcG05AhwBjgBHgCMgwTiQa5UtlxzW6XLK4oOMI8AR4AhwBDgCjxYCEowDuVbZcslhHSSnrEdrQHBtOQIcAY4AR4AjIME4kGuVLZcc1ulyyjIeZA8JZXOpCnlfqZsobdv4HJS8FQ71AaPAQRriaAgNwNFFKa2C3VQd2IaSvNYCarYTJfGGHNTunocTK9StM7TlSnk53o5NR/dp52C/qgQ3DGXrKzDvrxcofoP+LzoN9tN/wR4KnEiRirD1nxkIpGu/m56D743oezOP5eK/3roAr2g1ur91FUtT9W29ko+Bc5rq85pO8lb8JoZqbpR5C3GLSc67RbgmXNPi+8Sr6DtHLdQXGHsde4qNQgKVV2DpKtKd7nnNuYSll8WKzOpAt2+cz8fLf78AlynnMHCv0BieOAIcAY7APUWAv61wT+F8RCr77TQKv3aC20RGlnT3qeFMCm50D4O96hjKtRQGt/E1cAo3e3AryjrPhIff3csxW4OiE8b/xR9ziSmxL3H2NCZbFyT8symGb/GRqxh45fd4qRPL0QF9B/ti98sazFvTfILt5KzEykVdMcDdhibi6xi48Vf0/fAPGNfTF6c2+eqrr8f3/7yEjT2dRSIt/dXM7/OR9vvOcG60UIBO/p7YPd4J3Rzqof7XVURuKcXAd7tQudvY+NGvOP2cP9KWPAXn21pcuyNWZFYHilDUydMZS+e6o+i7THxg1Fz+kSPAEeAI3CsEJMwNcq2y5ZLDoJNTVvOuMknZzLJo1MiLjUd+hgY2CooqN2whQuaKNLMNRygy3BfuxEGfg3KiZ667Q+xxOxbAtdgcZXMpimNjkHtOH+fVMwI91iyAhzsFuoldjEI1hY7NUxCL4zHYdApB941E9sP4GczRG9cXoHjFYmSnkG6+veFAk1hTokh5yafx1Ng4uO5fjJJLgBtFGcT5bUhdfww1VzW4k0c00UQOpRi1DH0m6yPlOVB8elqt21Dseztli6Ay5aewZWMaRY2chxFSXrl36IwBPYHbFiMW38bO47fx0nhnCLYBGQchQRR1v/SmUVvEj92C3dBNf9W551PodacMQoRl49CBN/6DrZmdMWW6ke7/rwhLrzhj5eCbSN5nqFaByHBDHluE9OwEl9RaFFHbPUsrsKfEEUtGkWHAsndSoJuoHCzp0MnTEQPIR5PcnkiYrVrLL3AEOAIcgdYISDAO5Nqfl0sOA0FOWcagm6Ns1qJkTQwK3eMQJlAfE09CLk3ERkUbiG+hAxEu9e9OFxlpjK0lymYlXGcnwNNTjPPKXPipm9XweDcE3rFb4E10zKfed0LQlzON5jvz9XU5F4/MjAEIPfQmHNkWwtjGmY/YgNQoUREfwewQuFUoceHHDKAfMeoFz0S/xCkUdS8SZeOJ4jiy+eCzn5gAZkMAq9AqEq7mMg7+Kwn9Rkg0DppXbfpbbil2VrlgY5CEnTSjGq4dK4P6D1SuRejka6fKoe7lgZ2O+sz15AXYXomBUQHoVdLa4BBz3cGeY1XwHPAHhLCJvbQG18gqOP1/r2DpdWJw+r0Sb09/GuM8mzfBnA6mG8qvcgQ4AhyBu0dAgnEg1ypbLjkMNDllSegkCudapqLY/lsNbn4F7ClGvXGyCRoGL2YYsESeBRsrlM3a45uQ/k2GyORXkQOtf6lILWxOHQv1ac5nQBExB8TaTAzEtG1ArI0lhnrO01aCcgD60ArfMZx4HYjyuSomEI53s6rtGo09l6PNadqO67TKPkp+/jB/DGiDXjcu/4opP3bAB4vYFoBxuoUvjmvx0hSDFwK4diQPe7p64ztfMj4awTEu04DM/TlYeZu2GMY00WjW5FWjYmJPnJprS/ezEPlZCQYu9GiUZ16HdsDAi3AEOAIcAYkISDAO5FplyyWHISOnLIk9YS1b504tzgfQPrk5yuasbUjfpiWq50R40JZ7w4F5OHrQGveh+frK95L732ik2Bp9rvwxBdpCLS6MYN4ELbTF7viNmI0dA6w1SMb7t2/gi1RbTHnPHLd1a11u5xZiymdazFrgj3EtCZeulGHnbRfsDDR4IegswS+3cS3rOvr+THXdvoNi4ix+eS2we6EXepFZdu3HHEw574itf++CbgYDxZm2EZyAl9j2BqVeQQ7w+pHqYVsOlMeiDq1VbrpCsjVEeKRsuV1jqQy/xxHgCHAEjBCQ4GOVa5UtlxzWejllSRhvxMroFlaKkiSV/g0C2lbIs7iBDliiI66qRIOS2B2Fs3galCS3eBugsxNsNCXEcmekm4X6lMGB0P6cJlLwatUov6g3NOpz8NtJwCshGS8cOSj8BY0sRdnxgsaKO5C3oa6ijRy37MzBig9w6LoE7CRkuaH6D77z+j2mtHDXmyt6+3oRxn98Ey/9zR+z/kfLR4S8EMcq4DzQTdwaECqxxbi/9kHuP4OQ8SH9RTvBs6snvhMMA/Iq/HQN43/qhI1veSNEf6ZAKPY/lBjY8RaSc8WOKP7lFop+TwYDMwws6mBOc/F62kfj8MdZici3nI3f5QhwBDgCZhHgngOz0Mh5QwGPRXGoJppb1VCteCBxJDuQ6N7s3EFzjSzQEQdPRTf/xUifcRn2dOxAofCHjbHjoPsweAfGIH3cJNg50YHEzQvh0dl8ffbDFuCZM4uRFpUChaMTGR60rcGUyUtBeVlfdKfdBDEp4DooBJd3pqDm9SmwJyJm14lTcT02CqokooBmBxKn+VsHVjhz8C2dOXgbI7paz47qMry+sBDJt+pxo7YavWYX4eVpz+LTcLZE12LnTzcxcHDXFlsDWmxdewWrcupRVAVkzKVXF8O6Im26I77fVYTvi3+HTHrFMI6Jt1Fg7qKeiGEvKlSXY+v5DpgSK9ELUV+JuMQKZDZQmZhysTGO5HVY+zRtcThiabQLZv1feqWSvaXQuTNWvulOejZgjyUd0slDsbESRdXUXttMdD/cGUuWP4NZwk6UBvkFJegxYCCYujxxBDgCHIH2ICCBsrmeKJvbsFHbHi2ozMUCeeQw9eSU1U44eDGOQPsQ0J7Ce39OwsAdGzCi5XZI+2rkpTgCHIEnEAHuOXgCO503+TFGQDEQ738/8DFuIG8aR4AjIAcCLTdUTciUa39eLjmsiXLKMgEpv8QR4AhwBDgCHIGHGAEJxoFcJ/vlksN6Q05ZD3Hvc9U4AhwBjgBHgCNgAgGrxoGyk9UsJqpt+yWlvTxymGZytantKPASHAGOAEeAI8ARePAIWJ2RNbeNSGLuo76aGnnksCbI1ab7CBevmiPAEeAIcAQ4AvcNAavGgXz783KeA5BT1n3rO14xR4AjwBHgCHAE7gsCEowDufbn5ZLDcJRT1n3pN14pR4AjwBHgCHAE7hsCEl5llGuVLZcchqWcsoz7TktERGNROW0v3PaMRNHQZPQZeo/6NncbVAu06L2HyJGshaUoVSHvqALe7aRsLnkrHIWRyQh5Rc82yMiYIuehfOgWRKyJaBa4qerANtQEtaZsZmRQas0yhPrE42zGLLxApFDtTuXlePujQuzJ0aKo59MoWuIhshzWV2De//4V3+tpkFFPAY/uOGLnZqJfNkQqrL+FuHeJ+MjWCxkrvEQ2xnot9nyWg6XpFLnQpgPGTfHHyn4sxDGFSd6fi7kU4pgxMjv7e2BjdBch6mHm/it4+TtDpKkGVFCAom5/DkTaOFt8n3gdS1UU/ZD0cPF2wcrZjFyJ7PIr+Rj4UTmK9TtqNRR2+Ya/L64RnXOnH6/C67Nb8HIQ7fdOwU8jbbaLyChJETBXEdXzThZE09GB6Ju7Y7LE6I/txpgX5AhwBJ4oBCQYB3KtsuWSw/pXTlkP4Xj67TQKv3aCWzuNg5YtajiTghvdw2CvIhImLREzNbIYa6E5uBVlnVsbBy3ruKvvik4Y/xd/zC3MR1+VUU22Lkj4pxBDWkjFR65i4JXf4yWjEMaZ3+cj7fed4cxme326cepXvJ3vgh/jvOCVX4jIdWRg9PTHS+XFmPsd8PbaIIxzrkfylgzM/d4Rp8Z1Rq9RPZE7Sl9BfRXejsmDyx9ZFEUtOvkT2dJ4J3RzIOPiX1cRuaUUA8kA8Ozpi1ObDHEM6/H9Py9hY09nIZIjU8drUHfkUijm5onCN++8jt1d/ZG25CkUUZv+a+tviFzSkhyqRTH+lSPAEeAItAEBCcaBXKtsueQwdOSU1bw3bJVK2NEi1MbRHYx3QEj1KUgftAuuBxPgTeGOGw7EICV5NCLW0yo8dS1SFubAOUCBBq0GWuVw9F4zRWBIrDtPBEtLd6Aa7rAPdCdeht76CktRHBuD3HN6TgPPCPRYswAe7qUojF2MQnUOcTcokP7aMdh0ovDJGxfAjc1jhSm4smwTyorZCpjRPq9G4CtEt1hfgOIVi5GdQjTSvr3hcNs4FrMW5cmn8dTYOLjuX4ySS4Ab42Im3VLXH0PNVQ3u5EXh7BYK48zCJ0/Wh092UELBFuYKJ9i1JAhi3Aob0+A7QyJls0NnDOhJfAQW6ShuY+fx23hpfBOTIv5fEZZeccbKwTeR3MhCTZNv6k106/80eRFoSd/19xjvfBXf/9KAl4iW+ZrnUxhINMuMT2FgUCdkHqpCMRkHxgv32+dLscf59/hRmPcViAw3dLQtQnp2gktqLYqo7YxcqTHd+A+2ZnbGlOmNlpXRTaOP9dX4/rItXop5Cp3qG9AtzAW9/lWJ5OoumOxgugi/yhHgCHAE2oqABONArlW2XHIYRHLKMu4SBTzXJIkTSb8kuEntrQoF3GLJcHDXomzpWGR+EYH+UVpcX7YDNnP34oWRClRtpAk4w1Ahm9gT4OlJlgYl5sJP3ayGB7nuvWO3wPtSPE6974SgL2eiaT4pQN6ieNyZnogXIqlcBRksr61F4fMJ6HIuHpkZAxB6iLYs2BbC2MaZlAwHNUpUPiQvBG4VSlz4kZToFwgEz0S/xCm0jRKJsvGJ6BPZvLH2ExPAbAhgFcKa36LXSRi3QhJxK0g0DlqWN/U9txQ7q1ywMUh/zIYm+o3bKzEwKgC9Sm4albiDohs6eDrdwaoll5EcHoDJynpc+w+Nmd6dEVh8E98RRcIsJy2+//kWbms6tZjo72DPsSqEvOgrblE000W85zngD0akTWKGa6fKoe7lgZ2OTQUqVNcRyDiznMloeK0rljD2xgbaOqmyw8CG3/DyrBKELPSGlw3pXEn5uHFgquf5NY4AR6AdCEgwDuRaZcslh6Ekp6x29EqLIrbd+8JZINUhIqNQf6QfzUDD2EpUFtJkzyZySo6R5NY/3FRQe3wT0r/JoF1yShU50PqXsnWweSKnCjXKLpZCu2WesMpnqY7+7Mtorj6fAUXEHMFbAXfaNghWoETMQh4C2kpQDkAfcjA4htO5gaU/oCom0Pq5B0N5U/93jcaey9Gm7rTzGnkDjpKjPsyfyI7EKq4dycOert74zpeMhcbGGFVv2xlz5/4Bk13tcfqy/rpnFyRMqMHba8j9T7zVA4OfQq9fW6hE5x92/tIZs2aLNMxNdxvoXEIOVt6mLYYxLUmbbuGL41q8NKXJq+HcvysyyePg2YnonslIGP/RdXRbT/rot0Q6ObshYYkjXHy1eLudqPBiHAGOAEfAHAISjAO5VtlyyWFQyCnLHPQWrtcZu+0pH5ul9alBmO31iSa6xtdNbI020rNou2GbFj2+TIQHbbk3HJiH/8/eucBVVaV//zeAHpHhoPw5pi8YeRlMzBRxjLBEmbzNeEsTJy/8y/StSSdfpRyyi1J5mcZL9qo1r2m9jNaQ6Xip8TaZqCiZgkpgkqAIvOI5hHAQ8ciB/T7rXPAA57K5uAV59nxsOHutvZ5nfdc+Z6/Ls9fvu721yrQpxvznLep7hKH7plXoXOvZVbST7NjcKfRcrD5Kvk2EId+As6PEbIIBhgINrmVRRyGojoF7d+JWMT4/7Y5pb1srRmv/P9MSQSapG/5AblEgYEGZHn9YAWyPfQDdOvwKO4oq0CHMmwIbb2JHsTu6/ZfoULqh9++645vfWYgl/Yxul80Sy9bKnT/yC8737YLf1xjF0wP+2yxMO+ONTa9R+bUDRn8qxNZbpNQYXN2aBJA6BqZC3dDttxr8/p+XkVIATO2uQhdvIy4Jn35D9Sm9gauk+BhpG5pAddFXqqCuvVxz71qALTMBJtDCCNj8GjnyXKlRtlJ2RD2VtOWIq+15DVQddSinH3/xgC1OyzKN8q1HZfZhaLPFJx2uHcmAV/9guHUcAJ/OWSj60fzQLz+VgnJrx4Gi2avUXeFlisXTQ3tIzE3bHO194KbXwmjb0ej4OPx6peLK51bbBpSfTkU5XaYme4YfUnBbFGFIRdE5S0ejMgvXkihwbt0hPHFwr+lf39E6FB7JqzYm4iqM1y2xDzW9cPxJxBy8uxL7LjvOUp+U4uRf8E2X/8K06sAAd0z8cz9k/+++yPiA/lHQX+eHOuOb2C7oTQ/j8NBf49LJIpwnPrcu/4Lt+l/j978RX5UqFOgsrz4Q4/f23EQ4rfmbQhDEUXmD4hoqMHGoj/mtAsvpS0cvYdLRdli/wN/0ZkPNg2Y1Dl9Hh3A/m6UGsvP/zG9EiLzFP12nmIK2GCBmj9y98Ps+FLx4ohTUncOlJPKzuw8ibTojKR9OxG9fiEdubVP8mQkwASYgkwDPHMgEdVezuQdT8F0AUl+JRkkveqi7q2tM/7sHqHFj2RQcz6GIu+AX0GcqzeHT8VDcOKQto3gCjYZG9gZadLAc/aejW49FSHs+HZ606qBS9YCb7cRB9xHwD45B2sQp8PChgMSPY9GpfQACly9G+eIYHE8Q5RjgETQdffqHwHPEfPT6fhFSohOh8vahjofK7F9OIooKB6B79VuItOwxJATpWxNRPmsaPMUySNR0XF4SjeQENTxFQOIMS0CiM6CmmINdFHPwKkY95CyjJa2sELNi83HoZiWKb5eh90tX8YcZj+CTwWKIbsDWozcQPvShGkGDzkrtEP4gVmZmYdL/ojUV9zb4/QvdLDMBElJ2XsDc0xUop1ccRZnrh95ZPriVUYjP0RHbH7bpc1eWYFX8dZyn0f20GApWEIc3zRKseNC8xFFWhE1nKG2J7XQN2dl7EXOTyQ5VwbN9e0x96SFMNfVC3BA57SH8npYZBvyZupDe3njvFT+buumRm6dFz8fD0dVZJTmNCTABJuCEwK8kOpyk41xeJR4NqD0P6uyKhqUpZUd4p6SthtGwuYreVji2tqspuM+z0YVxAfc9AcNxvP10AsK3rMUo3/u+tlxBJsAE7hIBnjm4S2C5WCZwTwiowvHOv8PviWk2ygSYwP1DQEbnQKn1eaXsiMZT0lYjb5bQWDwR38gy+HImwASYABNgAvUgICMg0emqQz1MucqqlB3hh5K2XNWb05kAE2ACTIAJNC8CMjoHSo2ylbIjGkBJW82rwdkbJsAEmAATYAKuCMjoHCg1ylbKjkCipC1XTcDpTIAJMAEmwASaFwEZnQOlRtlK2RENoKSt5tXg7A0TYAJMgAkwAVcEZHQOlBplK2VHIFHSlm0TCMnm0chINkC7MBJnD9ZqHt02nBy+AkW2mxM5aUHjj1txduJoJA6LROLwCTj999Qamyc5udRhkvHMHuQccapg5PDaGgmk33Bs1BqUWOuSHIfE8R+hVN7V9czlgms9SzNlL8zEpu2XTOqIfDABJsAEWhsBfluhObW4LykufqiHp5xtJSozkB1LwksLEhAh9BUqdSg5b3CsnSCznhWp25BbQBsiDTGJObTe41o61u9sj8hJ3e7sgNh6aXDNmQATaGUEZHQOlBplK2VHtLCStmreUXYlmylLyd/n4gLtv19WEIF+38XCt7qDoEfR+kX4aQ9tSSy2QPQdhz6fzIQPbaVcrlPD6yGz8BLcNfB5xGyrijZOOv7XTgj50qK6SDMSp6OS4b+LdBNUGchZGIdc0j9wc6fOxOBYDFoYBrebyfhpzgYU52XAYIjDyXNUbq/p6LtkBG2+ZEDJP97B+YR088xE4Dg8vHwmfL2SkfFUHG70UqP8sga+j+pR8oMBndbEI8jpneWgTqLOjmSjRdWuUz3GJMI7SoXi0yQkVaLGA39bh26k4+CIq4lIvSSg9dix9BOsP/sLLuXSzoXP0S6T7brhjdVPI1JsYlh8BH+YlIGQiR5ITdXjur49Ji17CTGGf2HA33yw/bNIkxrjoXfewKo+b+KbSbR11f87izeXfo1/m7bH9kT4rP/GutH/ZXKNDybABJhAcyTg9Cfc7LBS6/NK2RG1UtKWbbM7lmz2eXEdBk2kZYWp9NS2PfSJuBSvQvfvdpoEkapIp6DK1HEIQ9eoDTj77ASURITB57GR8B9DWx1TB8ItdDI6G2OQ/+NMBFGHofzrPSgnVcVOoh9xaCuyr4/D4K+noS19FLoHprWl9mF4+NMws7xzwXwMer16T2RUJa1A+qEe6Lt9qUmZseyTaJz9OAzhMeLCAHR5dxXclkSi4LFDGDRwEU5RJydopEhzcDisk2PZaH/rRIY+A2WBCRg0T5wwwCxE5ZiryYN6SUCrMfGNBZiYTg/7Fe2x9bORdaWXS3NxKfAv+GaOAFqBW2Lp5CcHdcUvWP/21yie8WekRFD+4rOY9dw2fP7blzBVtma3o7L5PBNgAkzg7hCQ0TlQapStlB0BUklbjWw4rx7wCVyD7NdX4MZjA+AbEQFfk6AS6RbEJODJZ0hqOSkZul0xSN71AgbRNste6AH/ZzQ4/VUyevbWIH+PHp2W0uyAuKxXf6hzSbVxiZ6kl0PgR1LPrm6C0iPJNDOQQYkw7gAAIABJREFUgfPPHTZXxkAdlF55JBZJDzsPNdr4khaEWoO2HdXwIDXAqgwXQkuO6uRENhrWzkH7EHQZbf1AGg9ylmCaWgLasxsmDbfM2KAN2jnzoTgTh9JLcOnTT/C7T834hJhV71/oP9w5MAPh/zIBJtDsCLh6LpDDSo2ylbIj2kBJW41scxJl6vnFTnQ5Q2qIx3YjI2obun65EYH+5nI9AkPQWfybFIy0yE3Q5k9DN0rzHD0Z3p9uw9VEDbSqyQjpbfHDfzJCv3kcJcmp0O1bg5OfDsXAHX+Ct7MHHF3qOWEZjdZ71KxMZXL1Z9NDWtxNlSQ7KCSmSULaDSU186ssgk2O6tTesWx0dUEq6oDIuGtrGm7iT6r26FAfH9oG4c0NszCxlhR2E3vFxTEBJsAEmowAv63QZCjvUkEGHcp0KniFRqDr3JfR+YE8i7SzDkUHU3Hb8jZAVTZNt9Pw2tPb4kfHCPg/loGLbx2A6hkRN2A5dHQ9LQX4RI5FzwXPwKvgIsrFw9xyuHupUCmWLmyq4z04DBV7t0BrfYnhOklFZ7qYHegcAM/SLIphEAUZUHaWpKAD6Jzpo4M6OZGNtnGn/n82RAKalBDblepRIPPNEXT0QcdfCnBJqF9WFuDET2J+gI4OQYj8zSVs+jLPJLEsliEupV7CJXMq/5cJMAEm0CwJyBj/KDXKVsqOaAclbclod0swoL5Mh9ICA36angGPrmPR5/3J8LpJAYSvrEHRTSqHHjxtB89H3/6iTAPKE9cg4908VIpRO8kyP/DmYnS2znbTsoPf0xFwP6iD//A7bx5UXdmDtMW7cVtENxpV8I5ZBr9qrWcqf9h0aL5ageSJm+ARPBl93xsLzyGx6J9DAYkzRiNTmPbQwG/eKvjWmkioUdOOIxC0IAVpsyJxmTof7l1HoPfyEealDYd1ciwbDRczG04p11cCWhTWbSDmPvwxXnj2r+ii7o6YDyfj985G/v9jIGLCPsKrz/9v9H7wv0hm2dod+y/MeScKV5f+XwzYXmFys0PPIVj/aDeC4tRrTmQCTIAJ3DMCMiSbjSTZLKMP0cgqnMtTxo5wU0lbjcTSqMtL10/BWd18hC+xxBs0qjS+mAkwASbABFoLARlPfaVG2UrZEU2rpK17cCsZ6LXEqDhcozcaev2dOwb3oAXYJBNgAkygRROQ0TlQKrJfKTuivZS0dQ/uDxW9lrhrLx6+B6bZJBNgAkyACbR8AjICEpUaZStlRzSakrZa/k3CNWACTIAJMIHWRUBG50CpUbZSdkAxFBwJ1rpuc64tE2ACTIAJ1IeAjM6BUqNspezUBw/nZQJMgAkwASbQ+gjI6BwoNaJXyk7ra2SuMRNgAkyACTCB+hCQ0TlQakSvlJ3aeHTY9eZUTPz9RMzblls7kT8zASbABJgAE2h1BGR0DpQa0Stlp3YbazD+vc/xxcLfIOWb46R1yAcTYAJMgAkwgdZNQEbnQKkRvVJ27De4yksNVaXY+5YPJsAEmAATYAKtm4CMzoFSI3ql7DhocLUP1Npc5HL/wAEgPs0EmAATYAKthYCMzoFSI3ql7Dho2l5T8N+99uG5303E2/t5ccEBJT7NBJgAE2ACrYBAK90h0U7L5u1EwrlwrN3/Vwzzqplu0OthcFdDXeu8nVL4FBNgAkyACTCBFk+AZw6sTXhVC23XPuhZpwOQi/gXfouJH6a0+MbmCjABJsAEmAATkENARudAqVgApew4x9KudrKR4hCudkL4E31qp/BnJsAEmAATYAL3JQEZnQOlYgGUsmO/HfU0c1BCQYmq2skZx/Fjz9mY/WSdlNo5+TMTYAJMgAkwgfuCAMcc0M4Gu96ch4QcDf7nK8Ogrt2sj76KHZ/VPsmfmQATYAJMgAncvwR+JdHhrHrn8ioVESpSyo6zunIaE2ACTIAJMAEmAMhYVnDad2hChkrZaUKXuSgmwASYABNgAvchAZedA7WnyyxNgkUpO03iLBfCBJgAE2ACTOA+JuDyya8vr1Kk+krZUaQybIQJMAEmwASYQAsm4LJzACj1FoFSdlpwa7HrTIAJMAEmwAQUICCjc6BULIBSdhSgyiaYABNgAkyACbRgAjI6B0qN6JWyY6e1flyD489vRXnOZpyM+ghldrLUOFWZhZx50Tg5ajC+nbMHzhZetAsGI/Vrq5qTAflzRiMj2QDtwkicPejKkJx0A1I+nIo/jJuI51cfh9mSeD1zKib+fiLmbcuVUwjnYQJMgAkwASZQTUBG50CpEb1Sdpqg9d17IHBtPAbGhMl53aMJDDopwpiOvd/cwoQ1O/DpgnDLJk4ajH/vc3yx8DdI+eY47eTABxNgAkyACTAB+QRkbIKk1IheKTt24LT1gYdaDXfo0UZtsxPizQzkvB6H3AtiPK6C98xl6BvVw3mHoDIPBe8uwsVEPdxIq8HrVk0NaHey49GG3iH11qBNrU0XDecSsPKbdpjy2nj0lNEy1TUxtoOqfd16qbzUUFWyBnVdMnyGCTABJsAEnBGQ8QhSakSvlB07OIJmYtBa8/mQT+6kl25chMuq+Ri8LwIeuj1InRSHnIHx6NbdThmWU8YDa3A+43EM3PcneOsP4OyE3TaZVei8PAGdxZnQBPjVKsZw8TvEf6FCqOgcODZRM0X/M3JvqvFIHcEoykbbQau1pA1B/QMN7/4slyjnYwJMgAm0egIylhWUGtErZUdum+tRnKZDh+FhMPWgNCPQKTgDxRnOR+L6MxlQRYyAt3gYayLg11/+U1k98WNcOLcWo2R02YRLF7e8hD+MXIrccdEYVWffZ8rQawr+u9c+PPe7iXh7Py8uyG15zscEmAATaO0EZHQOlBrRK2WnHk1eWY+8NlndbB7u7jIf9A2x1HP6x/jmX6/C55tdOG6vz5K3EwnnwrF2/w68M1JTw4RBr4feZeRlQ7zia5gAE2ACTKClE5DROVBqRK+UHblNpkaH/hoUH0zEbXGJ7gC0GcHoEHxnJkDEDbjpdCi3KVLdPxiGH1LM1xhSUXTO3lPbvg+G1HgsfTcB6Ub76XbPdu6JniotcovspJLSpJbiHnrWWXLIRfwLv8XED1PsXMSnmAATYAJMoLUTkNE5UGpEr5Qd+U3uPXsZHjRswsnho3Fs6ha4vbQYgbbxBr+djO5dduPU8Ak4vmCPqZPgMWI+egXsQUr0XKSKc7YBji5MGy4dR/y246jfy4cUjGh5gdFR8e1qJxgpDuFqJ4Q/0ad2Cn9mAkyACTABJmBeTnfOQakRvVJ2nNe2Rmr7YHRbm4Buji6hVxq7rt2Jrrbp7gHovCTeHHRoOr/U0dV1zptiDibWOe3ihBo+XiXQFlC2LjWz6mnmoET9iOX1Rpu0jOP4sedsrH1SfjyECyc4mQkwASbABO4jAjxz0NIb06Mnxr8YjvT3p9bZBOmlbcD/fG4Y6sQqPvoqdnwWXbNT09I5sP9MgAkwASbQZAR+JdHhrLRzeZV4NMDdWZYmSVPKTpM4y4UwASbABJgAE7iPCfDMwX3cuFw1JsAEmAATYAINISCjc6BULIBSdhqCia9hAkyACTABJtB6CMjoHDhddWhCUkrZaUKXuSgmwASYABNgAvchARmdA6VG9ErZuQ9bkavEBJgAE2ACTKAJCcjoHCg1olfKjh169ZVstlNEzVN50H66B6Xy9z8CmtoHJ+WVH1yD02NGI3FYJBLHzEVOpssKNThD6deboc1p4OXZm5E8/iOUutipsuzvU3D8/YwGGmlhlxkOILX/bORYd8OuTETa4Cm4mO28HkXrZ5Mc+Wh8NzgOhS54Oi+p4anln0bjYP/B5vtu8GgkL9yG0puiPD3yX4pE2pGGl13/K/UoWBCNn06bv6Rln85G4mD6PgwmGfagvvjW9Hckji1PBiqTkfYYnXvMfM6Ub9bWaml3u98nh+2Uh0tRg0mu3ebHgb6rx4aZ2+X29hizD32D8O1AsjPsDRSYGOmQE00+iHMW3xJHraC2zKPzkTj95Z3t0auS4nBszAoUmUwYUPhmNNIO6esgEu1xfG0Wbm+fi2PvptZJ5xOtm4CMzX2VGtErZUeBBqcv7LVP96PDpLFmjQUFTMo2cf4jpL6bBf/PdiK0uwpVBRnVP3Kyy5Cd0QD93k0obD8TnQJlX8QZ7wIB3zkbMWjqNpwef287UR6Ry/Dk6gi4keLpxeeikf754wibVedl27tAoFaRP25CduFIhISa9/rwen4jIp6nPJUklvbYFqi/JIE1f8s11DmARzAC/5GAnraboInken+fAuA3WIMrSfQwJt0WcZQlJaMy7GX40kthbpNWIWKSHrnPR6Jw0l6EjLHdi0QF3yW1zwG+Cycjf/4GFI5ZDD9VFrJXJcNnQQJ8TZeq4DdzKC7GbkVpJInBmSzywQRcE5DROVBqRK+UHTtQHEg2l38SjZNJXeGrLsHty3moHBKLATFmIaaq7D1Ij92EEtGrp42P/N9ehm6hapR9HoP0PVkoo22VS2ZF42o7NXwXrEPP/pTPkIX8d0nZ8ZS5F68aPh99YyLQVrjkwAertxd3r0SCPhKvTh9Qd1MjO1VyVF7RV7tRNXoZ7fRo/tFx6xxs84ORhYsTY1AWEYYqEpCqKDFANW0d+k1So+Qf7+B8QjqqhK3AcXh4+UziQn+f2YzT7+yGwbTHtBreU2PRZ2ow3MT51YdRfkGPihziuJF+psYuRr+pPSifwWF5Rrou7c0t1GHRwDNYAyPk7eJYcX4TUp/NQ1mhAZ5jYtFvHrWTUMUcvw2+X25EV5O0BNUvai5u/2Ungi0PBXG29iHaPbUoFuELg+lhkYHMiXFwW2N+MNw+tAJnVifDKN7upU2w/Feusuya6bhOJrt2uZr1LqrObEPm3nbwX0idyUa9NezMh9q1vPP5dvJHtE/GfpSLNmzfB13j3kbX3nR/iBFtbBZ8actwQ0EWytuOQ5/1M+FDSaXiPk/IMt8PxKHLG4tN97/sgzYY0zwWgFz6XgHEme4Jwfb0B4m4cU0FzZsbETya+OiTkTlvDQp15pG2x8CX0eetEfBCMjKeisONXmqUX9bA91E9Sn4woNOaeATJEDsr/OoAPEbFw1O2w/YzOvw+OZk19I6IgPubJ1BSGQYfdx2KkvPQISrMuRS8ffOms26PzETQ4Am4+GkGvDpvQEGnmQiNtGmL7iPwAOYi/8c/4eFHbAoySbrT9SohWc8bojlB3DqTxD4Hzo6zuUZnyU2WppSd+jh8c+MM6T9/3CLdFAjK9ktnnpwjXSkSJWilyzOGSacStKbiKo4tkY6OXC0VW1EZT0jnRN6SmtaKP4iSTqxMkSpMp7XSlRdHSee+vVUzk4NPh2L7SkH//U+pVpEOcjs6XSJdeSGU/HZUykXp56cfkY4uPmHxUZIqyb1Kql/Sc5skvcXVG8Ql6a/pZiNFWummtQplh6VzT82SrpixUPotKe/lcOnMtzX9cViekeyPGyad+bfw75akXxcl/ecPGyS9i1vwxsciH/EXfpSlSOdHjpLOpwqbt6Rf3hklfb8x1+xA2mopaZzr8kS7V9fPmC5dGBcl/ZwlisiVsiePktJPWCp8q0QylJmLdlgnU7J9ruYr6f75ao50oN8C6aqLepry39ovpTzyiHToyWHSYdO/cOk/D5v9c+4DXVv0pXTqySWSztZO0W4pZeQCKS/P7E1lKjH64ybphvhIvI4OmiPlWe75K88Nq75fK65q79wjguvTxNVaIQf/f3PzDOnQ/MNSpUgvonZ6OlT6frNomxIp78U7913Ft4ukw5MtPhhLpJta6w1G+V4W9wd9pu9Y+lBxr4lzdE9/RW2RMEdKWmm5Lx34YDptatPx0oU0O5mM9D0PnSFlW3iY89P3edAj0n/CrcyHmb4jwm+H3ycn7WT2nWxcFkVQe4ZbGVv9oXKfC5VS9tj+NojfHPJh0B0fkt4RPlgOLbXj0FHS0aeoXNO9WvP4ZfEo6YT1e1A7kT8zATsEeObARZ9QFRIMTzGaUwXAs6MOxuv0t5qkmy/0QKdV5pGfR9hI+JRuQDFtYexjnYqsU24eipKyYDCsQcopc2JVKRVbKNYKA+rkrn1i2PJzuFD75F35HADfsRaZairfjQYUJUeSaXSWgfPPHTZbNOhR1SuPRvXB8DDNhixC4VUDjXwMKL9Osw2FlK2mCGQNT0sdlacvQUl+CPwtox7vyDB4HpBXSdVjQ00jWiAEfgMNyCa5bZBwlu+UcTC+RvEfz89Exb9otPjMxkaMzjXwCVHhyup3kDmiPzqEDYWfZSTmsE6CkakKdblaa+YxaR2GT5JXT1Mu9zB0374RgYKxiDkYssF02rUPdW1UpSajuDADhlejkW9KNqDqZgjKaURp0usKHIAOHcUfNJND97aWZmbEVDXyD+D8m/tRRsqebpU6GK6FwUDXuJr5MB5chKND6Hp3NX4duZhmmcS9L2bSaNZpiOW+60XfOX2uqTwvI80IfLoGaaeoPel7aMzXwyPMsn7uoUYbmr5yU2vQtqMaHpW0TJZRd21deF/zIH8L1VD71T7v5LPdZQUXthy0E9zpHg3LQ+73OgR2ToQ+KAJ9TIxdHbSs8FbdZQXTVZqx6D56A1IKXqip/2IpUtVFDeNVeb81rrzg9NZBQEbnQKlYAKXs1K9h3WpN4jculksNzevxCDYvNdbPkSbJrYYXPVHKs7KotBAHJargYWeG0XPCMgyaJ5YEbA8DCpYvQlF/Ws9e3YMeEjQFP34RPbAcFG1z2m5517eZHgDVUbLudSSjXBdcO0fQM/D3nY3cxB6oPELLAHNdd8SEDzWO6vrQj/PrO/F4ZjKKvj+B3D9PwdWYneg3xjyFa7dO1QXZ51rb3cZ+du6Dg9KDp2NA/DTz8lbtLLbtYU2jNfjMV3dDRVP4fcUUfsFWCna8WPtKu589hltiDuqkqlAtdS74W5iXb4/DhfxxGPTFWFMnvfDNSGQba87Zu4n84pesku4XWYqmKrjTWl6Vk6n/Ou7ZPSHn+2TvQrqPhoTg/L5kFHZOgeeQP9lnb+9SJ+c8aJnArT1xtJOn6gZ13imtPoeQdTdQJ05t6iXy0doI2LuPajFQKhZAKTtN0MTuJN3cKwva70RPnH6PkvajxDsEHTpby1ahjUpvnmWoNkcjx8fU0H1BSo2WHz5jdipKzEW4dOrijqVY+lmKC/1Fl8XA9+lxcKMgwZxsyy8jBSSWCtEmJ4f34DBU7N0CrdXX61koyhSjJgMqaOToGRhg+kGqykpEUa03E9rQ75Hxes0RlsPyOg6AT2cq+0ezb+WnUqpZOXHPlGT4/jAoRAK4mQrtKfpBC7FOXWjgP6kHdG9R9HbIZHSRMUJrQ6PQinwxM0KHLt2GD82M5NDINSgMnWe8jMAIFcrzzVAc1smV45RedWYrMt6lyH0ZnSpnxbn0oT2tLRvyUG7THG4hYehweTcun7acpFmAktOWWAJHxujhXHFbQx1N88Om/NDh+r2Z46hcO+erSvVw9+9hnr27mQwtjbYbfVCMhPdDebiR0+jeQYO+T8J/D5p1UqduQXYSxSQNltFhbVSlDSi7oodnr/rYYVn3RiG/Dy7mmYMGNaIGXZfMhz42Gsc2UwEqGpEunU/BRZbCqPPQZaoa6S9OwTV60Pj9ZaMpINFn7ir0XB6H06PM08DwG4BuK0LgI8OH3B8SEH+1J/78nMyAREdlPvInhLy+AhmvjMZlerDDKxgPrV4H7+qOTd0L3SgQs38OBSTOGA3TW48eGvjNWwXfIA26/GkytEtn4/QuDY1MKMCpxrIKjZCipuPykmgkJ6jhKQISZ9AMg8PyeuChuHFIWxaN0xoqz4OWKOq6Y/eMSpOH7BkTKBCUAhKfITs2gVcekePQgV7VajNRXtCXR+QL6LIjDief3w0vf+pkVHcoKHhsfQwunTMvoSBgBILmmGdTHNfJrrs1TlZlnUD+dmK1aHKjosld+qCKwEMztyFt4mjkdoxAz89i0anjWPR5Pw/pS6fgmAiupal5zwmLKYrfid8qWtZ4aTfd37OhpelqNz9qWxm/JE5KdJjkNfFl+MVQW8wJgIqWEdwCnKxXOSyldgLdv8N7ICcxA1U0gpcxQqIebgZyno1EvrWefmPRd8d8+Dr6PrnqhHYMg2+PRcjMm4ne5lvI5KR4lfGECHilUTvS6HXjVY+j1zdL0bl97TrU47MhGbqMYHRaUo+AUZZ1rwfg+zOrDOElIwkv3aVvvg3Tc3nK2Lk/m5Fr5YxA1ekVOP6OD/rtoFe5ai8ZOLuQ0+5fAnqK1XjuADSf0YO3Hs/Mlgjk9s4YpKRNx6C3ZHaERCXPrcTE1Z2wltVbW2KTN4nPMp76SsUCKGWnSbhxIS2CgA75r8/GRVpm6LKEZke4Y9AiWk0RJ9UR6LVQi6ICWlq4r1/jo6UwDEXQ3Hp0DEQDmGTdFWkJNtJMCfDMQTNtGHaLCTABJsAEmMC9IiBjuU2pEb1Sdu4VarbLBJgAE2ACTKBlEHDZOVA3wdtkclCo23HnQA4nzsMEmAATYAJM4G4TcNk50N+62y6Yy6fd95QxxFaYABNgAkyACTABpwRcdg4ApR7aStlxyoMTmQATYAJMgAm0egIyOgdKTfcrZafVtzkDYAJMgAkwASbglICMzoFSI3ql7NjhQepzx5/fSrvfbaZtYD+qKWGsS0bOl6nydmW1U7TsU858kF2ITcamLq8hPohrdNtwcjjtTtjI3f9QmUpbM5OW/WMDcbD3QHxHmvYn/y62gbYcTdpOBuTPGY2MZAO0CyNx9mBDK8/XMQEmwARaJgEZnQOlRvRK2alnQ12j3eu+Sm30tsX1tHr/ZPcdiT4fTkeHxu4xQGI1QbsOIWLDM/Ds8QIGHjmEQS/abC3H7XT/3DNcEybABO45ARmbICk1olfKjh3mbYWeuZr0dvRoU70hCm2gs2QR8lNJxz5HhbRnD8OtXQi6r58PP+MBnB2/Db5fbkRX026uWbgYNRe3/7KTNPjWIDE2Cx2CSCGO1AsNano4Lp8Gb7EPsEnBMA45p8z72KuGz0ffmAiz6IpdH+74enH3SiToI/HqdJnbJzsqz0DbwC6MQy4Nut3caRvgwbEYtNCyrXB+In5avAGFYmMYUsnzfWkZgseY92OvOhiDxM9p22gNaR9QurEiBA9vmYySZ2ej/C97EWzabteAwtcnICckHqFRGpT8fS4ufJuFsoII9PsuFr42HYSqzD1If28TSoqEH2Rr3jo8LNQYnfhgp+XolJN2ElvO2i1Pg4J5JOCjDwYu6+FFe9uXf58Bt6nrMOh5c4fDne4Hjzbkm7eGdDLsW+azTIAJMIH7loAdGecap87myhGZd1WK63Sl7Lj2pFYOoVVv1ZavTrol/fLOKOl7qz66yDOO9OwFqlPLpcOhpM+uFZlvSbo3KJ9Js16Sij+Ikk6sTJEqTJ+00pUXR0nnvrXVbDcl2D0OxfaVgv77n6Qg38jj20XSoRlbJIOlmIoia4m5pBc/nvyxfC46LJ0baa2HJFUeWCD9J3SWdNmqFX/rllRJZdyMn2HSthd/S2V0zdA50hVT3S2H9kvp+6eWS7/Y3kbGFOn8SKr7AUtGo1a6kSc4OPfBVCLxPfoHC+s7ViTJbjs5Ku+WdPWVcOnMgVvSzc0zpEOvHZYqszZJJ4jLTdsy+W8mwASYQCslwDMHDer2kUjOlHEwvrYHpc/PRMW/DsDjmY3V2/O6dx+ADqYZBco3sAfSviOBF/pUlJQFg2ENUk6ZjVaVUo5CoTLnWi1t2PJzuNAgX2td1Ks/1LmbkbZED7/+pCsfGWZSu8X1VBSeI537jXNxcqP5GqFK6FlI/7Fo3bj1HYEu3S3lqczSsJ7DSUo3fj+KDCQkk3QAJcEj0duVNk4WSR5XRtBMgSWjOyn8CcEmGT7Uqo3zj07K+zXNjLSh6RyhwKjyI5Enby3a3Ci8+7Elzj3mVCbABJhAsyAgo3OgVCyAUnaaiHvQM/D3nY3cxB6oPEKqjHNtHvA2mvJVNQLx1NC8Ho/gsCbyoSHF+E9G6DePoyQ5Fbp9a3Dy06EYKASJQBtaCLW9TascK8C1b2fuSNja7TwUnQI34ypJ6Rr3psB79F/q5pHtpwwfZJclMjoqzwCTSrVYNrCWJ74Joq3EP1fxESRZrNeTYqQvdSys1/P/MwEmwATuIwIyAhKVigVQyk49W6+9D9z0WhjrRNtr4D+pB3RvUSR+yGR0sZForcw+DG22sKPDtSMZ8OofTA+hAPg+pobuiz0ot5RlzE5FiUx5+os7lmLpZymND4zU5ZEQSwB8Isei54Jn4FVwEeWiM9Pxcfj1SsWVz7NMsxwifqD8dCrldXVo8MCYHij5/APkpwXjgSEyJO560CyDeyLyD1gqX6lDWT7FOTTYB/LRXjs1pjxn1T72Np54ciH2mUNHnOXkNCbABJhAiyTAMweumq37CPgHxyBt4hR4+FBA4sex6GTRVveIHIcO76aizURLQJ+lLPcANW4sm4LjOfTwC34BfaaaZxV85q5Cz+VxOD1qgzmn3wB0WxECH1c+UHruDwmIv9oTf35OZkCigzKrruxB2uLduC3GvEYVvGOWwc80/A1A4PLFKF8cg+MJ4rMBHkHT0YeWHlyNpNsSB6/35qI4ciNCrH2Dm8n4ac4G6Mt0KKUAxp+mZ8Cj61j0eX8yvMSbBx/ORPri2Ti2lkbvKktAor8TH0CvMk6MwdUCPW7TQ/nUkG3wit54540Fu+3kqDwKRGzEobucS6p1ozBARj+oEWb4UibABJjAPSPAqoyNQF91egWOv+ODfmJa3joVTeeOre2K0Php8GxE2XxpcyWgx645z+LH6TvwxuO8qNBcW4n9YgJMoHEEeOagQfzo9bnXZ+PiKTW6LFl3p2PQoLL4opZFQI3x67/B+JblNHvLBJgAE6gXAZ45qBcuzswEmAATYAJM4P4nICMgUanc5V0iAAAgAElEQVS3CJSyc/83KteQCTABJsAEmEBjCMjoHCj1FoFSdhqDi69lAkyACTABJnD/E5DROVBqRK+Unfu/UbmGTIAJMAEmwAQaQ0BG50CpEb1SdhqDi69lAkyACTABJnD/E+C3FUQbC3njVZ0QssSAtNcM6PPln+DVqLbPg/bTVHhOHWsWXKpVVtGS0bgUROJEU13tM+zCicpkpA3bBs2+6SiO2gCvf5AQlM1mTC6urpvspDwhlPTTexugyxWiTBr4xqxD3zEq5D4/GJkZAVC1N6DSgzZ6emkx+tDmUG6irPDZ0FJeD+td1pvUFD+ZZmGrQ050JDKvzsSgffPhQ6+Cln06G6c+ETLMJOyko80MNHQtfXIfswxPLIST8oTE8gSUzNgJvx2jcXX4IfQbXrd6fIYJMAEmwATkEZDROVBqRK+UHXlgGpWrMg/XPt2PDpPsdw7Us1fh4faN7Bg0ysF6XmzZ0KhiXjwixpDfhjyUkFKl+SD9iNd3ImSCCsYztB3zc6T4GBaPwM6U6hGMwH8koKdVj8HWrO4wCi+HwFudiGuZ1DnoDXg9vxERz1OmSlK9fGwL1F/Go5vQXBAHdTaclmdbNv/NBJgAE2ACjSIgo3OgVCyAUnbs8HIkb3xmM06/sxuG2+IaNbynxtJuh2IrZHHoULg+Dpl78oS+EtwCJqPPh9PglhCD9D0kU6zToWRWNK62o93/FqxDz/50ScEBZCzcguIs2i1wzl4Mspk5KD+4AmlrE83CP5oR6Pn+fHQS/Qea1ThGEtC+wSoYCkg+uu049Fk/Ez6mZ7NZOMjNXQUPb/UdnQCTf/QMP5eAld+0w5TXxqOnjJZ2VF5V0jZc856MQaJjIA4Vbb8cJP6ouX+wR9/H0UF9AOViV2TROXByGJMScWMg7cDYeQMuHqLZgt5mqWQnlzhNYollp3g4kQkwASZQLwIyHhlKjeiVsmOHTxBNbdM2vuII+cQmPXAsgr+YCU/xIL6ZiLTxa5A/nKbu6Rl5e3sc0o8NwIBdtAmS2Ik4Jw9VNDXeduoqDJoipvu3oMMn69DVdovdziMQHD8CpmUFWzf0B/DTkgxo/rEX3bobULI2GmdWJ8JveYT5gU8PW5/XV8G/o46m8afgStI09I0ko7QN8cO7aHtjOjp9scq2RNPfhovfIf4LFUJF56BOqp0TDsorz6a6PTTS5Y6Pxh8OQ995HHrTLIDpMGYgZ0Yk8i27R7pH0vLAEqE6ZUAhKVWqhyyDr38KjFTXsjk9XC/lOCxPhc7LE8z9kdAE+NmpGp9iAkyACTAB+QRkdA6UGtErZUc+HBiykP/uIhReNdBDmoSIrpMSn0nC2ICiI6n49dPLqmMKPAJdyy47tPxzCsoeeBxBpul3FXx+F4Y2sSkoJVljk+5CIElAm2IJNPCkaXZtoVj3d711r3rix7gw0aHVeiW4ObRHLJaPRuLfSPPAEIxun2w0z2oIcSlHywq0THHtVA9ajqDZDhJH8snfhML8mWbZZmdeOSrP2TWcxgSYABNgAvUmwG8rOERGsr7LF6GobywGfRGPQVsWo4uYKq+jzuiwgHonmNUQ7VxGI28ZDWXnwqY55dmdOj6XaUnDbnEi5mAvIpKSMGg2CUS9uQElLhhVnTqAIn0GLs8YjWNjVqCwLAPXEmXKU9r1wdVJklgu0sNgI6Xt6gpOZwJMgAm0ZgIynjlKjeiVsiO3uQ2oKAM8aUZAQKrKSkRRjvVaeiAOCcGNf21FyU3zObGsYApNMB0UC6DSw3i9+oTzP34zAF7XTlBgnpgRoGWF/cmoCB7QaM0GQ2o8lr6bgPRGPhTdBk/GA6XbcPFrywNcBCRm1tYrphmPWbHo6v4VLu50/qAvOnQCqpcouPHgXjxB/wa/FYayI8k2/Jzjqneqfh/mPfkE3j5W7yv5AibABJhAqyQgY1lBqVgApezIbWcSVfrTZGiXzsbpXRq4tVdDZY2cpyLaTqJX9vIo7mD8aOoLqOAWaA5IbCvW192D0WWqGukvTsG1jmr4/WWjKSCx7HMRrKiD8UoeDElzcXKPGh3mrkPQ4BF4eEkK0l6ZAPH8cusyAr3ft8QbyHXXTj7DpeOI30YxB69PQR876bJPtQ/DwxQEmb44GomrbF5lDKq1tEH1fmjuUCSt2oKSsY+bYw6epZgD613mNxZ9tw1FYRJ1rv52JwCxbdjj8Hp/P3T6sfB3JoMsYg5ql7djPnytipiOKpT3M7TtwzGhURAcFc7nmQATYAL3HwEZwkuVeDTA1a9v48Gcy1PGTuM95RJaGoHcz6Zinv4d7HhFVlhmS6se+8sEmAATaHICPHPQ5Ei5wOZGoOtzn2NHc3OK/WECTIAJNGMCHHPQjBuHXWMCTIAJMAEmcC8IyOgcKBULoJSde4GZbTIBJsAEmAATaDkEZHQOlHqLQCk7Ladx2FMmwASYABNgAveCgIzOgVIjeqXs3AvMbJMJMAEmwASYQMshIKNzoNSIXik7Ladx2FMmwASYABNgAveCgIzOgVIjeqXs2MEsJJuf34rynM04GfURaO8jF4ceubMikXbESTb9HqQ+9ga0LnYLdFKCTZKQgN6DUrHFgO0hZJGHxKDgZip+GjMbuXI3XXJq1ICUD6fiD+Mm4vnVx2lLJj6YABNgAkygtRGQ8SqjUiN6pewo1MTqCAR9FgJVU2wR4UICuklrZEzH3m9uYcKGHZh9Z5+iJjXBhTEBJsAEmEDzJiCjc6DUiF4pO3YaxJFk803ake/1OOReMAsdec9chr5RPSw6BwaUbY/ByQ+ycLuUZJkXrkLwcCFprId2eQwun8tD2c8D0Of7pehk7SCYhJzikHPKvPWwavh89I2JQFvhkj4VOUvWIDdDDzfacVE1IhYhc0JQbtpV0YEEdJNLNlvYGNtB1d4OJz7FBJgAE2ACrYOA5OI4m2t0kaNpkpWyUx9v9R+Mlw6/dliqEBdpd0spT86QsrPEhxLpyguPSIffMKdVXtggnXhykXStzKb0Eso/iM7Z4Cv+IEo6sTLFXJ6kla68OEo69+0tuuiWdC12mJS0zJp2S7qZpb1TmPGEdO7JOdKVkvp4T15uf1EK6vuKtNdUAZnHL/+UXgx7UdpZT1syS+dsTIAJMAEm0AII8MyBwz6gHsVpOnSYEgYTJM0IdAqOgzaDZhG6ixOkixBhSesRAV/1IhSTMFOn3o4KzENRUhYMhjVIOWXOU1VKsgyFJFJUqUNhsgadNoWYbdGMgGd3MQvRuKO+ks0Xt7yEeWuPAyT1PMqZxkHj3OKrmQATYAJMoJkTkNE5UCoWQCk79WiRJgkmtLWnhub1eASH1fKBOgfN4eg5/WN8MzQeU/+4C8cXhGNYLV2l5uAj+8AEmAATYAJ3nwC/reCQMc0M9Neg+GCiWUpYd4BmDYLRIdj6xKSZhUPJEGrIJjlnfR90MM0oODoC4PuYGrov9qDc0ukwZqeiRPQLSM3QL0wHbYK5PCHbXJ5j22GopwS0xYUGSTZ37omeKi1yixzVg88zASbABJjA/U5ARudAqRG9UnbkN6n37GV40LAJJ4ePxrGpW+D20mIEVncA1PC8uRsp4yfg6JwT6PDW/0InFyNtn7mr0LPjNpweReVRmclvfIUbN4U/KnR6fRW66NYgefgEHB8TjYyv81BlddUiAX2VJKCTn52Ni2fk1cEs2XwcufKyW3JRMCK/wFgvYpyZCTABJnC/EZAh2WwkyWYZqw+NJHMuTxk7jXRT/uWZHyF5TgmC9sXCtyleZ5RvuXE5jRexbuI83Ir7Bq+GNK4ovpoJMAEmwARaJgGeOWjqdvvxI5wcMxqJs/bDc/b0ltUxECw8emL8i+FIf38qb4LU1PcGl8cEmAATaCEEeOaghTQUu8kEmAATYAJMQCkCPHOgFGm2wwSYABNgAkyghRBw2TlQt1OmJup2zS8gUZmasxUmwASYABNgAs2LgMvOgf6WMg7rbym3ffJr211LKylTa7bCBJgAE2ACTKD5EXDZOQCUemgrZYdqpJyp5tfi7BETYAJMgAkwARcEZHQOlJruV8oO8CvlTLnAz8lMgAkwASbABJofARmdA6WG2UrZUW4upG5zG5A/ZzQykg3QLozE2YO1cui20YZLK1DkZNtm7YLBSP1aqETSUZmMtCExKLiZip/GzEbu9boW63XGUXm0vXPB8mgcpw2axOZNx+dtRYlZWLK6+NLP55rSj0+ci5xM4Vsizj42F/m18pkuOLMCx57djPI6zpGi5ZIpODZ4ML6jf8eiSBEz01pXx+WV/X0Kjr+fUae0JjlRSWyHRyOnwKa068n46VnayGo8bUq1PNG8WZXDOjXSi3zaNGtgXxyTUz9n7VRwABnRE/Bd/yAcnLXNtLNnww89cmdFIu2IgxIKEvHTrAlIFO04ZAoyT1vyCf/ejTbdQ8dGzcZPh+qxbXhlFi5G9cXBKHv3jR0/nPlg915uYJ2ccDX+uBVnJ4q6in+0sdnevGpHbyd/hNQxkab7PHEMabbU+J7okP86fQ9G0fcp+qPq3wPjj5uROt68gdrxBVtRavlqgO7Hiy/Rd5PyH6Pv4Om1yeZdXYU1R99pO8j4FBOwJSBjdyOlhtlK2aGZA/pfszx8R6LPh3p4NrNNk6qSNuB8UggGfD0fPiodPRhG48KuERg0wyoOlYVrX+XB78OdCLIKTznp4DhmT1tWz16H8CUaksUmSex/zMXJ976CX/w0eDq+SPGUquRtuNppPiLWjrDId98tF4j1+wfg1j9AlgGn7dS+BzrPW4XALNqF84Cs4hqYKQ85C+OgH7wOgz8JhsfNPJRbHmK398Thws8jMXAftSdtEnbyxQ+gHUiS5jJEvko/XYPSLiRMppXjlmMfHDNytr2p4/LgkGsecpduQFX0XjwxQY2q0ytwfP4mFI5YDL+iPUhfeBiey3ciZDCl6fJg9LKpl+4wCpKD8fB/KK/1t6AyA9mx2+CxMAFPDAEKFkxA+mdhCHuxB0o2r0C+XywGf0xCcPoDODt6BS6PsPkuykHGeZhALQIyOgdKjeiVsiNiDpSzVfuOc1er4dEGcPPWoI3N71HJ3+fiwrdZKCuIQL/vbHZVrMyj0dYiXEzUw61rH3jdsg4XRMmkudBRDTd3FTy86f9rGTOcS8DKb9phymvj0VNGSzssj36g3IwGVArTHgYYb6uh6mx2/vbXcTizNQPl2TQqeiMaxb/uii5LlqJroHCG9CKW04xGGv34tR2AbiuXwr+7xcnSFGTSRlFleTRk6jUdfZZPg097oK2/jRqlGN5W2FbKcXkV5zch9dk8lBUa4DkmFv3mmRUzSz+PQXpClnl0794DXd5YjG6hLp5GNBLLXBCHq1dVUPXqATeqt6lzQj/Ql+asgO5yFozXs3Dq2S3AwJcxMCbMzN5BnRrkA5kr37kC2u4vI/DmIvxki4G4Fq6PQ+YeYk7N4BYwmTqV0+DlpJ2g7gHfUNIBqc9e2nriMG8NCnXme86D6trnrREmO0L/o2x7DE5+kIXbpWr4LlyF4OHUdjkHcDU3Aj2fo46ByNY+AJ7UriJ/0ZFUeA5fDNNzsPcI+PnNxjXaCrwTPeycHtlbkXnqcQRNysCpzTY5DVnIfzcOOafMw27V8PnoGxOBtg59oGudMap3nag8h1xVcKPvedVN4Rt1AMqIoV8nqMi+8ch+FPedjr7UMRCHmyYAbU1/GVC4ai6yv89DKd3HhunRyPYZil7rZ8InR+i3hKGn6ExQx7vT6MdxfnMyyqlzYPrekx3Tdus3Dahqq4FnR1OBdDj/jbDm4v9nAnUIuJKVPptrdJWlSdKVsiOcffWrG03ic5MXov1S+v6p5dIvNsgr/r1AOjR5g0Rvc0iSdr90JvwRKWWP+OD6KNn+ohTU9xVpb4XrvM5zlEi6lTOkQ6HDpMOhodLRNw5LBtsLjOnShXFR0s9ZNieNh6UzoeFSyr+0ppM3E2ZJh1/80nxd6nLpaL8ZUvZlkVIiXZ0/TDqxMbf64l/+GiUdDQ+V/jN0jnT5gqWuTsq78XGU9J8/rJaKRdayFOn8yFHS+VRzcRVXtZK1+pVpq6Wkp4lltSV7f9ySdItHSUnLUkzXVZwgXx+ZIV2+eidv5R5qk/mHpUrby53Uqf4+UMHa3dKZP9K9QHUqXjZKOvrX9Gprhq/mSIf/uMl8TwgfL+da2sNFO1Heyn/Nkf7zwpfVTOwRqD5nLJFuaq33WomU9/Iw6cy/xecS6coLj0iH6T4QjCovbJBOPLlIulZGH04skQ5PXiL9/NoMKekP46UTLyyXruaJErXS5RmhdO+mSz+PC5W+35wuXXkxVDr1VYlTFyRjrnT5hVnSzxfIzreLpENU75uWK4o/iJJOrDS3kyj/youjpHPfkn8OfRAXOmLUkDrdcd0e18qsL6UzT4VKh54Ml/4TPkvKzjCz1H8wXkp6bbWU/lyUidH3b3xZ3ZamEq9uqfM7IB0jruM2SL+Iey98iXTt1GrpKP1WFIvfipJ0KfuFYWRjmHSo3zAp5as736U7HvJfTKB+BGoPNut0HpRboVduNK+cJTs463lKfyYDqogR8BYDdU0E/Po7m/6sWbh64se4cG4tRsmaNXDiWOYe5JwNQb9DhxCRlAD//DikfSljvVioTQ42zwR4DhkKz4wM6K3LDd0fRyfT7IIanSKDUZ6aWi005SumTpOSMCgauBpvs37qpDzVY0NpyYOKax8Cv4EG6NMs/uUfwPlZ0SRYFY1T7xyA4ZoWBqdLHnkoPmdAh2E0hU3FefyWyq0ehTlhJJIc1anePogYDxL6+tPL8K3T3OYR+K+ffsZ8TwgfAy0jz4a2k6NqGfUo+XQRTkZF4+SzFEuSpoeh0Lo4TktAEebZGbceEfBVp6M4hwoitlVpqbg9npaHvk5An7AMnF+87c4aOM3ePPS3ePSZFFBnpsueG2UJcbjWez66B9VOzUNRUhYMR9Yghdr25LMxyKeJFGMhtbszH5wyamCdartm+qxHYfweYPZODDuShCeXB+Dq/DUoskz8lSXnwWd5AsJ3bUSX6x8h/R/kvIyjTWQsBnzy8p3lBrqm/NAm6DovxpNJhzDsm/nAx4twScT98MEEGkFARudAqfV5peyImIOWdbjZPNzdG/ugb0DVS/duQ/lvhtIDgC5W0dr1kADokzPuqEY2oMy6l9R+CqrgPSECbfZtg86kXNmAg4KxMl/dDdXcjQj7Ih6DPpxumRI3l1V1KA7HhlGAF/1Lre7sqODuYZ4Stlp0b3AMCNXJhQ/Q7cFZEbAm/HjzgDlQkILviqhzU/QuBaVR8N6Z7bRu/+VcJK9NdQqhwe1kzweyVL6dYgTyh6KvYEf/gobQDUDLS04PDU2da0LQKcx0s8B78ONQ5WThRiWpmPqpUEGdC4+gYHipdSjXqtFWY13iycIlimUxcZhID1FTB86A0lNZKN8XQ8GuFAi7ZD+MP27C6Ze2wrxTiRqa182+Cf/Cvt6LkCiKz3DoA9AgRk7Kc8jiZjLyv1bBd5g5XqTt4JHwLk1FUT5R0VBMTd+R6NKZrnbXkFx7AMozLUtfjgrsQlyvU8dWpYFPb+pwU5xChV9XtHWnpbYdiTSAoOUUca3/CHTqkYGiM/Yige0UTu2pL6JOn50kPtW6CcjoHCg1zlbKTsva50DdPxiGH1LMIy8D/bjQqFbuYUiNx9J3E5DeuNB0eFCvwJCabImOpocW/WCrAkXQoIuD1ugLj5hH8OWHDqM8eADU1gdt9glos8X19IbCoQx4hgTDjeIrSk5bpappTXtvIvTetGZt7Tc4Kc/w/WGUCDT05ob2lBrqEPoBpR++itsaeAWaCxA+VEd4U1a3yMV44jsKGKN/IVHWWAf68Q0GiqmOpiMrFcWF5j9d/tdenVz4AM1Y9Ntn9uGJ90aY1+ndwxB8kGZpDtJ5+tefRtmeUesQNk/IZNIDZ0gIbvyL3hixdJqMOXmm+6PB7WTPByqvqlQPd/8e5gBZethpv7edLdKj+FCyqTNTlSXWw/ugg4gn6REG3/b0cEoz36flqSkwBIgyVOhAfpf/ew/KxMj+/AEUFj6OB/pbqfZAt08sHHbMtwiWqdB59R0O4UtGwuORFxD6McVXIAC+j6mh+2IPyi0zQcbsVJQIFx364IpRfevk5I5QUVxOe+rknTIzqzp/AqVGakc/iqsJexxeWSdQaHq7iGZnUvPo++RiJiVQzM4k4yrFHplieb6m+I2hYRQLQ3ExHVUoTTa3BfT0G3GBOmL+tTvbDnw99jaeeHIh9snsSzgohU/fhwRkjEOVGmcrZacZ7nNAP7w/zdkAfZkOpQUG/DQ9Ax5dx6LP+5PhNWI+en2/CCnRNDrw9kGVmka1Mm9Ew6XjiN+mQii9FtVH5jX2snlGLUZQxiKcHb7bHAAXTIFpz9MT1NXhTqOmU4twfCM98NsPQM81Yy2BV3RhgBr6ZfQKYg79KgW/gD4zxAgrFbp1FOCYKYKrDHB7IAwPraGpddGhEA8AB+WJmEWVJg/ZMyagjILnPJ9ZjH6PCOfC0P2l3Uh/cTa0XShg049+NF3e8fTwnbOYAuwWIfkHDVRe1IlwEb9YjcFenWikV38fqku0+0fbSYvRJy8O6fRaG1R0PwSaAxK9nbWTiGIfT6/JlupQZUjG0cGb4ffmTvQd7fgh4jWRpq9j4nByTgBUHsQvwCZYlJaDPG/uRsr4NSi/qcYDb61CJ1NRIei5ZCjS3qTX6kTPQU3t/t44c0Dn2Fj0OrMIqU9tQyVxeWAJXSOXrR0SPnNXoefyOJwetcGc6kdBrytC4EMzFw59cMjIHDhY7zo55ErBg++NRdr7U5C4mmaj6N71W7IY/qK+6mnoPW0RzkeNhpj9dwumgNwZPezU0OYULal1f28ycaXZpHfpmkdfQN/nzNd0XrAYRW/FIWkYfUVo1stzwjIKdnTcrraGdJdzgUdHYUAj2sG545zaUgm0SlXGV2n75JWT6FefDybABJhAqyWgx645z+LH6TvwxuPyOhOtFlUrrLjLcZRyK/QKzhy0uKiDVnhncpWZABO4ywTUGL/+G4y/y1a4+JZJQMYMtVKxAErZubf7HLTM24S9ZgJMgAkwgdZEQEbnQKkRvVJ2mmHMQWu647iuTIAJMAEm0OwJyOgcKDWiV8qOcjs3NPvWZweZABNgAkyACdghIKNzoNSIXik7ykVR2OHNp5gAE2ACTIAJNHsCMjoHSo3olbLTsvY5aPZ3EDvIBJgAE2AC9x0BGZ0DpUb0Stm5lzEHLiSbFbm9mtoHe+WR5Oy8SJLspX+PDcTB3gNJmlZ8Ho20vbQ5zo9rHEg2WwGQPO/EKbhoZwvY0q83Q5ujCKh6G6mirXkzokcjcRjVddgUpH1tu2lQvYtT5gIh6ftYX5JWpp0Jh5DfJKWcWR8p5Xp5ae9eqVcBnJkJMAGFCMh4lVGpEb1Sdjjm4O7fWxr4rz0Ef2GIpGoT31ChP+357mPdHfFHVx4E4MEVy4DA2vloq9e9JHvbfqZFl6F2+j38bNnIqmJePCLG0GZBBtrtMaeFvDvuEYyunyWgZ3faMvlrUlp86wN0GExSyi3E/XvY6myaCdy3BGR0DpQa0StlR8QcKGer9p1jV7K5MhFpQ0j7fVRPVOXnouyqBoEfrjLLHjuSzc38CMdfPkE7A9Ie9bQLnU9lOop0Iej9+WLTrnO3k0nM5f39KBf76rbvg65xb6Nrb/OvvV0frI4WHcfG9Sno+vxcjDJvC1+7CnU+Oy2vTm7LiZtZyFkQjaJU2lO+B+32JmRpyb0qEtI59RFJ0f5M28R/Tg8sq+DOmc04vZq2YL6gR0UOCe1spM0Bx9JOiFNplziR9s5uGERdaec+76mx6DOVtmM2mRKzEDEoI5GgKhKxqqA9llXT1qHf8Cz7csRIRsZTcbjRS43yyxr4Pkrb2/5gQKc1pC3gRPSqKmkbrnlPxiDRMRCHKgA+Ft+dSjZf34bTYxLhHaVC8WnavbCEdhv82zp0C3QgRyzKzk/ET4s3oJB20xT19X1pGYLHmBur6mAMEj/XoKuGtu6ldGNFCB7eYt2O2Oyas/96Rg6F+k3S0hBbRns7kWzO2YO01zbRdtTUaLR7pfdL69DXUvfbh1bgzGrazld0BkloyX/lKgRSx0McDbpXnDnMaUyACdwdAq5EHM/mNlrv15UJU7pSdoStmG3NTLKZ5IjPDRomnUs0S7oKCeKjJBlsOhzJ5mZsMMkP37h1Qjr3pJA/viVde40ka4/RNUW7pZSRC6Q8k1QuSd2mklQxSd3KqvWl/yM9HfyE9N5J87WN/u+p5dLhkSSnbKv8TdLJR0NnSZeFZDNJ8mb/MdwstVtt7KL089MkAU0yvTWPWyQbHC6d+bbW6SKtdNOqLFxGLJ+aJV0xK0VTRlHWI9LRxSfuSDeLvI64Gk9I6UPF9UKi2CwpbEiYIyWtvCOZXNsr8dkkGz1/f00ZZ0tGp5LNRV9Kpx4hmV2LtLUk3ZIqiZVDOWKJJIxnjCdeFqnjIqrvyDlSnqW+lQcWSP8RbK3y2beoPHsOW89Rfc+FW+W2b0k3EhZIh59cIumcMaJri/9KstYfXLSUcksyFFkbgNpz8igp/YTl860SySCknPlgAkygRRFonTMH927iwHEPj6Z2fS0jU0//AFRkCX0B2kPdJJu7BmlCwIVGYsZ8UrULo33gH6JEXz+0oT3v26hJ3Y7EVzy8aeStN6CKRJKKCzNgeDUaJAJHB527SaI3NMLzsk7tO/LkodnYkT7bUWrTnSd5Yz/TskEAvHuoUFQoRsENnMc2iFH2IhReJT0Gqmv5dZodECPfaikAEukZa5YXFhbdhBmDA64ig2BKYlNuag1xVcOjUoWqDNfKNG6O/BeSzW/uRxlJCbpV6kg2OswkG+1tbQuSme4y2uosaSW4W+SIDSRHfEo4JESQiI6QI76eisJzVMbGuQYSEqAAACAASURBVKbZE3EICQNPm/q69R2BLpaRukl7wZzN8X+NGciZEYl88se9cwgefH8+SEDRCSMNCWUNQNX7JN2NkfDtG0Zq4jSDYzpIuCpEhSur30HmiP7oEDYUfiadCz6YABNoSQRkdA6UigVQyk4LiTmwKCmaZXPHkWTuWJM6XuGbkciuJZvrZvPAr7Io1IHEXAbET7sjdNTc7kry2eVDS5bPBhQsX4Si/hsxaHUPevhmIHP8IrNQU/X11HGq1e+QzVV8QyrbmZ/Aojwhbzxjg1ndcfB8hFmUFD2707T+fpIXRgQpBtocVslmWpboKzp/BVtxMupizZqRgp9HnW+iWY44OKwWhOsnqJdAglKbVqFz+1pp1o/t25nVHR0k1zlNHdPAf5hjDmzTnDFqO3wpwvuS+iKpAWo3zsalI8sQviSM2pSEq17ficczk1H0/Qnk/nkKrsbsRL8xcpR9hHwwdeyos6uqw6OO13yCCTCBu0hAxu+zUsNspey0rH0OnMvm2r8z3ELC0OHyblw+bRnt0mi15LQLvXhrUSLm4N2V2HfZftn3+mwber4ar9uO4kmWmUbknhbJW5N8sIy3GRrC1VR3B/LGboMn44HSbbhofUNBBCSSuqQr2Wj7PJ3IEXekGZdeqbjyubU9aabkdCp1Spr+cMbImE9Km5pg+E2YiaDoEFTm5ZpmMMQsVTkpbXoEhaHzjJcRGKFCeb7Mtzb0+zDvySfw9rGmrwuXyASYQP0IyOifKzWiV8pOy9rnwLlsroPG7ijknvOQvpTkXW9SHpoW95ywGCGhDvLbntanY+8/dyF01KsY9ZCM/E2ahV6BXLII+RR0WJ6dBcRSwKJPME1zx6KzadadRqVR03F5STSSE0gyWAQkktRtlz9NhnbpbJzepYFbexp1ml6TcH40iKuzItuH4WEKqkxfHI3EVWKJhIIZYyhIjx6SDZFsdihHTMswgcsXo3xxDI4nCIcM9CAmyd/+IaZlp6Y8nDEqP7ACaQl5tARDS1YkJ/xg3DjLLJUORetjcOmceYkHASMQNMe65ODCu7yfoW0fjgl9XOTjZCbABO46ARmSzZV4NKCJf3XsVOtcnjJ2hOnXSLL5byzZbKcV+BQTuHcEcj+binn6d7DjlZ73zgm2zASYgIlA65w54MZnAkyg2RHo+tzn2NHsvGKHmEDrJNBKYw6Ui29onbcV15oJMAEmwARaMgEZnQOlYgGUsiNiDpSz1ZJvDvadCTABJsAEWicBl50DdTuXWZqEnFJ2hLPB/0PGakqT1IoLYQJMgAkwASbQ8gi4fPLrb4mteO7+oZQdUZOMq5ZNBO5+tdgCE2ACTIAJMIEWR8Bl50C5XQGUiwNQzlKLux/YYSbABJgAE2ACcjapU2p9Xik7LWufA75HmQATYAJMgAkoTaB1zhzcs6mDu6FnL1QHp+BiZt1bp/TrzdDW2S2wqX2wX17J+6NxsO9s5BSY/SpbPwUHe0+w62ddz5vBGV0ycr5Mtez6Z/FHqGcOnguSt7B7lH8ajeNrs3B7+1wcezfVbh4+yQSYABNoCQRkdA6UGtErZaeFaCvIvnsC8OCKZXgwsPYFtE/93k24ShsN3puDdmXsrkfRIbF1bhaukoCQV+cGCivdiwpcO4H8r1Jp/0E+mAATYAKtj4CMsH2lhtlK2RFRFMrZqn1L2dWzFyPSIdvgu3cd/EmfpurrGCQeGoeI1RFw+3ENjsVmwTdYBUMBCfu0HYc+tE2vDz1nq46swamPklH+M+D/OQnnBFmsndmM06sPo5y2Ia7IiTap96nEVsNTzdvY2vXB6qjQVlifgq7Pz8Uo0hKSczgqz2PwULglHUB5CCkgdh6KDrrD5uL0ycictwaFOvOj12Pgy+jz1ghSjNQj/6XRyG8/FqpKqiv5r563DsHVioV2vCFho4yn4nCjlxrll2nL4kfJ1g8GdCKhoyASOqrK3oP02E0oEdtIuwfA/+1l6BZKkB1ytWzhnEr2c1RIe/Yw3NqFoPt6i1IhqMPz8VzkHslAuTEEPf++Cl2tHTMv2rqZhK/cVD4k7NiCOkJ2sPIpJsAEWjkBVwLTZ3MrXGVpknSl7AhnY7bdaBKfm6wQ42HpXPgcKa/EXGLlngXSofmHpUrxMW21dHQQpRWJD1rpynPDpHPf3rIxfVH6+eko6ecLtb25JeW9HC6d+bb2eRefL/0f6engJ6T3TrrI5yK5+K/jpRMfp0h5r82Rzr02S0r/NkW68AeLn8YS6abWWocS8nOYdObf4jP9/WKolLQy3VT3ylPLpaOTN0lOW8t4QkofOku6ohXlhEqnviqRDAlzTGUIXpdnDJNOJWhN3lYcWyIdHblaKjbSB1dcKT2ptm3RToPCpZQ9orxbkqjj0WUpprL5YAJMgAncTwRa58zBvZs4aFhXNHAAOnQUl2rgSaJC2kIx4r5LI9OHZmNH+uyG+VnnKjUeGKZC5nsa9F2iQpE13Uij+0/XIO0ULTmQbIeRFvE9wsRCvqiTCt4hweZIWf+uaKvPhYFG417O5D081Gjjq4abWoO2HUn+mISmqjKoPFKjLL7QA51WmVSbyMZI+JRuQDHFQfiIEw3h6hECv8Hm8ryDA1BxRA/xsq+M9TmTD3wwASbABFoCARmdA6ViAZSy0wJiDoy1VrrpwdgyHz4qeIxYjDASDPRU5VV3Dsq3x+FC/jgM+mIsPKluhW9GIttUZ3PnoIbiB3UMqg/dHpydsQGlIuvg+Qh7b0SNrG6iAyHu6Mp21OOQ8fVrIFeTHdMh9KNl2DFloRiQIgNUalp6kPGtk1sq52MCTIAJ3A0CMp45Sg2zlbKj3M4N8htMA1VHHcpNkf0GFKdlmUajjT3aiGfXdQeh9Y4KFzEH767EvsuOMtTzvDtJK3emNX6bo6pUD3f/HqaOAW4mQ/u9CFqUcWjGot++vXjiO/pXq2Ng92qSEu7QKwva78zlG5P2o8Q7BB06281d82R7H7jptTDadk5kXOYwi34f5j35BN4+5jAHJzABJsAEmg0BGWMYpUb0Stlphvsc0EOs6/MBSH0lGiW9utIUOk2Ru7xFLIFzFLRXnk2vJMRGo8gnGA++H4vOpllvFXyjpuPykmgkJ9ADWgQkzujhslTo07H3n7sQOupVjHrIdfaG5PCa+DL8YuJwck4AjaKprgHmafqGlOX8Gg26LpkPPbE5tlkg6QH/pfPh42yJwlpg9xHwD45BGr0m6uFDAYkfx6JTY1Zy8n6Gtn04JvRx7jGnMgEmwASaA4FfiQAKZ46cy6vEowFyfk2dleI6TSk7wpPXtpfhb5O8XDvFOZhAExHI/Wwq5unfwY5XejZRiVwME2ACTODuEWidMwd3jyeXzATsEuj63OfYYTeFTzIBJsAEmh8B17PXiu0JoGTMgXK2ml+Ts0dMgAkwASbABJwTkNE5cLrq4Lz0eqUqZUfEHChnq14IODMTYAJMgAkwgWZAQEbnQKlRtlJ26G0F5Uw1gyZmF5gAE2ACTIAJ1I+AjM6BUqNspey0gH0O6teGnJsJMAEmwASYQJMSkNE5UGqYrZSd5rjPQZO2KRfGBJgAE2ACTKBRBGR0DpQa0Stl517uc2Bf3rhRLdicLyZxo+PPbyUBo804GfURyhrrq93yhFjTQJzebt3sSYec6IFI3Ws2ZvxxK85OHI3EYZFIHD4Bp/+eatpgqmTVBBzsH4ljdP7YxBhcPGK7EVMra6fGtgtfzwSYwH1HQMarjEqN6JWywzEH991d7KhClRnIjt0CtwUJiIikXRpJa6HkvKF6g6m2E5bhiSVhMJ7fjLMvzsXFT2yULR2VyeeZABNgAq2AgIzOgVIjeqXs3NuYA0fyxtCnImfJGuSSYJCbSgXViFiEzAkxSzYv9UHoFzPhSTek0CHIeXQnQqPElsRZuEij3rKIMFSdyUBFCe3dP20d+k2iHQevb8PpMYnwjlKh+LQOVSUkgvS3degWmIX8d+OQc8o80lYNn4++MRFoS1LEzuSSqzJJ+vg9kj4m9SQ32sHRl6SUH440IHfWFBRN2Yt+w83bBxYtH41M9TqEzaHdGNsK6WI1aSvp0caOhPHF3SuRoI/Eq9MHyJORclFe3e8rbUmtU8PrIcv2ze4a+DxSN5dH72kIHLwFmXsy0DMm2JTBYTvVvZzPMAEmwATuOwIyOgdKjeiVsiNiDpSzVfOOUaHz8gSYtvYPTYBfdaIB2uUxyNesQti+ENIOMtCWyNRJkHW7ZaH0eizCPo01aQ5V2Wo26TNQFpiAQfPE9sQGVJFOQMm6RcjtGItBJjs65L4UjQuHwtA3UhgzwOg/DgPFA/L0Chz/6x6UjZ4Jr8pUZL6yAYiJxxPDqSwagZcViM6AGl0mhSB75wHcHj4WbQ3JyD8UgC7/sGzTHDQTg9aaKxHySd3K5J6IR/zVrviz3M6Bi/LqWHAPQ9eoDTj77ASUUAfK57GR8B8TQiJQtXOq4PmQBuUZebTkIBQhHbVT7ev4MxNgAkzg/iQgo3Og1IheKTvNcJ8Dmv4uTNag0ybxwBYHPay6y9UbCIDv2LBqdUI32wdf+xB0GW0tR0UjflJGTMqCwbAGKafMN3RVKVkrFOvtYnTtQC45KxlFlRE0U2Api0bgXiQdLQ6PyMnQrN2Aq/lj4X9uG0qCx6G3HGEjunbY8nO4YC6myf9r7liRvkRMAp58JhWFScnQ7YpB8q4XMCh+WpPb4wKZABNgAvcTARmdA6VG2UrZaXkxB85nEEgWuc5I2HKLqtTwqNPCamhej0dwWO3bWCwzUEG2+eUoEqpodD56DdJ3JsMtLQM+U5fVKKK2lab/rIJ7HekPqocNE4/AEHQW/yYFIy1yE7T50+BbwxGaqbmsg+eDAfJma0heWq+nJRxfkl9u+gpxiUyACTCBe07A+XPH5J5SI3ql7ChXI9mtS6qMfmE6aBOSYTRdRA+rHEv0fMdO8CjUolwsF1Rmofj/s/cuYFFc2drwewBtkdAgA4gHiBccLxhGUcYgJKLMEXXGW3TUEy98JsY/ifLFoyYeb4kaozImyJgPTfIYNQ9RM2h0TExCoicIxgtxFFQCKBEEgSMCQWhEbC7d/9pV3dBAV3eBWKLu/Txod9WutVa9e3fttfdetV6KSWh7oVWGZ9Uo+eIoqg0Df11OKiqsMSb7BMLFNgmFxwwV2bZCYeP+heNfJ8EmbhVyckPwdLD84fLa4Y3Y+FkK3e39FFpl6emFanJMBOxuZ0CT70VxBuxLCcqOp6LGcK+6HNpmgRvsHZvqY2805J2mlZuJYryBVWtOvYPnnl+O7++nKawq4RU4AhwBjsDDQ6DFvLKlKUrN6JXS0xHzHKjgvjIKVesikTyGoulZQOJ4FpDoBhvPMPQKjkDGiwtowPOB3VOG4LqWDSXriFNEFPpuXo8L4yiGgBXXoegd6Q8nS1fb+qPfhy8jfe0CnKIYAhtakRACEj0NjoDnRPToR8GU/tPl0SEbdOX/K45iDvri/86TGZAoYaPTAqKpXhmJ06OZm6GGOnwFevVhlcnJSopGxoYC1LPVBaJs7r5mLTwIwgr6WnNkGZISaOXB1R/u62LQt5+EgmaHS3LzgT+Mw9D7awp5yngtjgBHgCPwEBCQQdlcR5TNMnyI+zT+coEyepiZb35ZhQ/+yimb77PJGi+/fYxyCRyE896d6GmIRWg32R1OkAZfLXoRv8w5jNUj5K+SdLjb4AZxBDgCHAELCMgY9ZWa0Sul59GLObDQfg/9VNXnEbi0O5teoYyC92PvGDC41Zi8/VtMfujIcwM4AhwBjsCDQ0CGc6BULIBSejpgzMGDa98HLtlhbgyC5j5wNVwBR4AjwBHgCCiIgIyARKVm9ErpeZh5DhRsWa6KI8AR4AhwBDgCbURAhnOg1IxeKT0dMM9BGxuPX8YR4AhwBDgCHIEHgYAM50CpGb1SenjMwYPoSFwmR4AjwBHgCDw+CMhwDpSa0Sulh8ccPD7dl98JR4AjwBHgCDwIBGQ4B0rN6JXS8zDzHHQwKmDiTLgyJhx5RZa7Vl1CNM69OBNJAVOQ9Yvlus3PVn6zG8V5zY9a+F6fjLSRy1B0l2ybsAD5ty3UlXmq/PJZbD/FMxbJhItX4whwBDgCcrLFKjWjV0oPizngLd8aBOxCl2D4F5vg+XRrrmJ1Kc1w/C7czG7tde1b//Ylcg6Sf2tfoVwaR4AjwBF4jBGQ8SqjUjN6pfQ83JgDSSpgKcpmTTKyFkejtERMMmwXsBCD3g6Dg61limXJPnub5C1dj5s3KQtjfx/YkFhGBS2UwiRcWbsDpUVipkGX1zbBd4KXpCjhhFaCAvriblzYmojqqxrU5oXj3E5KUDhxLQbPYoyNWlR8/i4y49KJBZFKz0kYsPllEFUBFRU6dVMTSRRxRjjS/4KSxqK9HIcPvu2CmW9NRl9rvfduOtYs/QEJhQW4rt2PP/1ijy6/H4ldqwNEZsyET9HjgBPe/F0REm7V4nZdb0TtegEen2/FtNsvIGVJb0pZXYCNL+5Dl7/9N5bR1/J/fYP50ZdIHtnU1QuL1szC/P6dmlnJv3IEOAIcgUccAb2Vcim/1kqN9jmtlB5m7bIv77SP0e0m5Z7+1orR+tObUvQi2vf0d7OLRel1Ffq7xfcMmir0BQtH6y9+x77T51eH6U9/kK6vp2/15zfrf5q+S2/5zu7pS9aOa9BTe5aueWauPvcmE5+vz507WX/5xwpRV1mi/vLYRfoCgxl6/TX9ry9M1l9Na3rT5X+foT/7gdHuYv2NV8eRDKO998jeIP3FH5teU39qnf70vF16jaHanZ1z9af/lt60ksS3ikOv6vv5vaGPb0W3zImN0g98P6elxB936p2DP9TH5NSI5+7V6KvpU86eKL3/VkP9unz9e9Mj9R+wr7f/pZ81ead+X6FYvfrSYb3///leb0ZyS138CEeAI8AReIQQsDb3ItdHqRm9Uno6YJ4DS5TNdRpU7IlG2nkiPSJ+gLpCDewCDQyKUhTLLVgKjR5sAcova+G83EAN/cdRcOqWIZ68TbTGl0ug3RkhzPJZYURG9qX0jyR7tCUKaOkVh8qTycSCmIHMeYmiIq0Guv4FpM/XKqOjeurHuDpVvKw9/u3yzGDM7m2Y+as6oYsloZfSkVBagKJVW7FLqFcL3O2D60Ts1FsSc0sC+TmOAEeAI9AxEZDhHCi1Qa+Unkcrz0H1ofW4WjiJ9vwnwp4GoNI1ocghymCRk7i1FMtEMkT8zjYmq+CNdMf3SGQg+uyKgkfX1nRWKQpoyzLsp2zC8MVsi+EhF/uuLR2CZgM9Y7BscBoGhGLfpyPFbQlzpldpoKlXQa3mvAvm4OHHOAIcgUcDgeZbumasVmpGr5SehxtzYAZgWhGQpmzWVWpg6+kjOAa4m4zin63xK5vVYDjoBidiJS4/b4gQzE5FOVsZYKXbCLj2T8WN/dliHABjNLyQiuoGcWp0ctKg+qYpwbJ1CuhONEbW3W76poBjcCBq4/ei2Hgrt7NRliXvbQJtaiw2bohDushtbelmG85169oJ98gGcn9klW7duqL8f38T65fmIPWW4bLBgxB64yxiUg2o1GtwNrWoidyUD6fij/NjkS9LE6/EEeAIcAQ6JgJP5spBh2sLacpmh6kL4bpsPc4t8oLKjgL0vCTX+GXclQoui9bCZfkqJP/LDSoiprRpoB32Qs/Na1G9dhnOxDFRWtj1m4NBQ/yF7Qy2t+D50kTc3DAFp2Lc4P5OLPoNAyxTQJO+GXOQuy4cyXFq2LOAxLkUBDlyBYbkUUDi3PHIYqLt3OC6OAouMiiTtdfPIPagCsNWzsQgGXfMqjiHjMSfj/wTQbN+RLcBI7HvHUNAosT1ziGhmH/kIIJeO4+B/04AdTNUdA7A9o2/YdH7f4PvXTpW3wm9J07HIX8PQwUN8guK0XdEELwlZPPDHAGOAEfgUUBABmVzPVE2P/gN1csFyuhhjfLWoSq8P41TNj8KHfSRslF7Bu+8EIegvdswzuWRspwbyxHgCHAEmiDwZK4cKBfewLvbk4SAKgjvfhf0JN0xv1eOAEfgMUVAhnOgVCyAUno6YMxBu3auApTuT0IVBdE1LzZ9wuAdfD/bEs0l8u8cAY4AR4Aj8DgiIMM5UGqarZSex51bwQuus2bD9XHsrfyeOAIcAY4AR0ARBKy+raC2t1qlXQxVSg8z1reHDJ+oXe6KC+EIcAQ4AhwBjsCjh4DVkV9TLSS4feBFKT3sRjL+txXvwT3wO+cKOAIcAY4AR4Aj0LEQsOocPJYZEpULb+hYrc2t4QhwBDgCHAGOgAwEZDgHSsUCKKXncY85kNHqvApHgCPAEeAIcAQsICDDOVBqmq2UHuXWQlrirkXhovHISNaieHkoLh1vWUORIyXJyDuQKnAntKUULw1G6jemmRLbIqUAxXuOorK5mPpkpI1chqK7qbgyYQHyb7dFtsk1EvJ0v+zDpRnjkRQcjBMjpyD1UxM86ktQtCEcp8aMx6lxC3AlwZDKkRgtry2aKV4THIrk5QdRyZIhsZKzG8l+AThBx5PY3+RolJl5Y6T53dT9shupk0kP6TqzdF8DHtWHKBnV6FCSR/YxG+ILml9q5ns28peS3c/64XjAahSb6me2v0YJrMbR35gpuLAtGTUoQeFig73PBuD4QKP945EWzxpGi6oDq5HMcGDXfNKIUc3pj3BhAsOH/l5cj8I8M+Y0O1RzYAF+9AsW8SGMTq1JMmTjBIqXBuDHAIMtdC71kIxMoFLtpE1FlrFtSdaZxftQIS8Bp2BxzfHVSBoYjLSTjTdQ8WkEkkczjMbjykWTG5OygarUnYzGhcmh+HGgH5I/MW0/6XaSxEFzDJeoPwh9S/hjtszEtRxmSwd5rpjAwj8+BghYI4lSii1RKT3sfpcdtMxdaA2Ttp9nLIXj9OlniYXxLWJXPNZ2Sfd1ZdpW/WmrDI7SGm4tCdKnHDUyL0rXs3im7qz+8vOL9DcMJJANdYXjS/U3q1L0mX95RX+jzKIU6ycl5NVnJOpvphULjJb6m1/rLz4/mtpFFKf95yJ94ty9+jt1xHaZsUN/9vlV+lvMzrIU/c0fr+lr6bj+HrFYzgvSn465Jl6UvUt/dtIOvYadk1vq0vVX/0IslklMeIX+5pLR+rMfi/Lqi4v1WgPEgg3DCZPmWLXQU6HXnE3R30kjW4aTzSa2lH8wWZ+4+qzI+lnxg/5iEDFsZpgIIFbPxLFb9eWm9ufu1f9MbVTAWDurzurTx47TZ56nz3Up+vRRYj9mEu7+c6n+p/kH9NoW9jQ9oI17RbDBXGlLn5JsJ8LyboEBvLpiAdfTfze0kznlpscYG+m8pfqUvwRRuzSeuJt2Vl+ee1afyTBIbTwubQP1ndwU/W8Z+fqb9Fs/+3G+iRbpdpKLg+bjufrEhV/r7wpSO8hzxRq2/PwjhYCMsH2lZvRK6Xm4eQ5s1WrYEfGRjaMbGO9AQ9GkIm9dNPIzNLBRqaAKWwH/Rf5gSzu648uQtN8N3m7EQVCkRV2tPwbsXQKXoiRcWbsDpXQMUMPltU3wncDYEGnmu24Zcs4bpkseIei7eQnc3WimuG4VClOzUZ2nQtqLibDp4o8+25fAlZEtFUrIqycmwg2rcC2JbPMeBId7zaf75rxkKRuAqv3LkH40G1UlJah4JRw3u5DtS2PQdwiTo0KnbpQm2lYFO0f6v5lo7eU4fPBtF8x8azL6yui9UvJsBoY0kid5+EPtqSGeCfG+yk6mwn7MWgg5NAeGwdV1AW7RbNF9pD88Qg0G2XrB+Rk35N5kM9w2EkjlJaFME4i+wWroaJbvPn4EMncTY+WrxKXh5obOBlU67T06r0W91ZUINRwDKd11YUYL3AQc7xL7pfC/FrrObrA3poU26Gn+X83Piajym47ulB1aVx8I6ka4kkgsnr8vQPVtH3j4ix3YPnAoOr+XjLK70xtIu3QXDyIrvgs8l0+EYzskWK08Eo3CylHoN1f8TbDZsnQ7Uapuz8a7YbjpBLIya0WD4qi9sH1pCZ6KScYdk+r2zwTCnthTGc1GY4i2JRvoN97THyxRZmmL+5duJ2sWCudplSrzH2r0ZWRshgsknyuyBPJKHIGWCMh4vCoVC6CUnocZc6CCx+Y4cVAaFmeSi4C2GTYvQ6FbFAK/Z3TKRHqUQwOxSXvp0rLR6cBODO9DB7X0cLctQN7KaNTOi8VzoZT//3YSDfaRKHw2Bp5uzFGIgYeHSJxQvSccFz5Ohfvb/vBctxOev0TjzLtO8PviZXEAFPRIy+t+PhqZGSMQ8P3rcGTLm1O+btmTWhyRtsFhVhSGz6Ttg9F74fxpDLwb+B1IiC05Pl/RAEfF/YuoFlK1104g9gviVmDOQYuzZg5Ykceu0GUexa2isegVzAY7oq0mJ6FTtxJcmzoeZVNi0cOdaLNLmKNlYqgmGYXHtei+UbRV0Jy3Fyn/cZC4IoiQKnwFBs61QkF9sxjabu6wiSfnb7Magz50RafSfNTQYMaItuqOE6fGpmM0EBOXxXvUrlYGczN333DIccEmPL00Aj8FR8Kmivgm3o6Ft5ESQuJCLTk+NtSXyjfQFljREgT4u0GbVQKdgw8cPMhRPa2BZ6gKVQlnUUW021q2BWRg9NRlJyE/TkX04OQcmMiv+34VTrHleldytJavRd9AI6Y00G6ZgqQtQCffMPR9m5xZkwG++sw+5Jd4oQ85B6LTRPostVN9Nq6/EoEbaQXQ+S3E4AXEOGalsG2A3Po5GErOWn6MlcrCaSs2yBHRoo5lHECOet66g+gUEQvPhvaTeq60EM4PcARkIyDDOVBqRq+UHhZzoJwuWS1BM5LSZBoAdjHHgBUV7Ps0zWRo4xeGHswxEE4T7fLtVJRepoFsZwTO7RQPsxgCe8aySJdqT+5A2j8zIEw2ifVQ60MPdfrYfCYuXsnqSMvTXMyAKmQhHNnYyR7OGQAAIABJREFU6RYC1yEqFDdcKP2h1TZIi2o4o576Ma5OlVFRbpWSJKSvSITz5p3wMB18bX3Q631yDDy8UP5zM2H0gM5/OxJ3XohCwDDD8o/nRAw+MZtm4yrocg7i0rwIZPWJh6/gcFgunUJXYCgtPjhq94pEVIbqdrR6EUR/NReicfFvB1EWSqtFraLTbtRbnbALJR5r8fynIehceBSp81bhul8sessgu3J5bScCarxgF0+ODyvEIto3cg7S/xaOM1tplWtkIJxdUw0EXWIVu2kxGDOt6X13HrMJz0+mFREVOb/HI3Fh8XrYfx8lOD0uy+MR4uEGO9rDL42KQNrKfXCMJTwNIty3nMeYpuIMtki0E7Vf7z3x6K0tQOHKZcg7PhEu09iqmkQhxtOsGHJ2PgyBHTnerSqW+kqrBFnHoSpuPfK7LsSwaTzTaSuh5dVbiYAM50CpGb1SemjlQK+crla2h3T1rl0MjoOxChEQqwLRZ1dUw1Juw8VZu5G2W0vLjrFwpwev7psInBACzCwVaXllR8ipMOkptjJ6DdpkgyX7HsA5CtK7smgHQKssAxpmsLQk7apCbakGduPZzD8bN4vV6EwzaLHQdskaWuXxXIGAV30bnS0VLdMb/ACbPtPhGfx35GTSlkMwG5DEWWxhNn3sFgbfgzTIs6XmHu5Q3abVA7rWdSDbPipArSst0Tdbhu48bBJc6hbQdhBdF8yskJAnCVEJig8nQTU3Spx1e4bB3Wc9ii5qyDkwXbZpKkDVww06tlLgFggnOlVGKwmq7m7CPdsMmY3BX8wWLyjah3NfeVvdpkA341YJOb+h0+HabRkqWSAj9VE7cgyEYktYzBwL+0MZqDSsoIgnmv9rrZ0M9VVe6DG+L7I+T0L1tEZno7k05KVCU5SKMmIKvU4na4vovtdMQcZ7cfAdKeXgybShhTLpAxZxKDyIK3tU6Pl543aCtCTTM1poyrRQ0ZamSs5vV55QXusxR0ByItl430rNspXS83BjDsz2J5qJuQbSAzwu2fAGAc2s8qxEa3cbAdf+qbixP9uwB0rXXEhFNVNQWQGd2hsOwkyY9lETaFZnWro6wUZTjDrTPWwL8tRDfKH9VwpFt1OhSPCyy9YcDRk2sNgClQZ1rXwbQZsai40b4pDe1lctjDhQjEfWwkhoaYvDb7zpLIyWwim2oPq7owI/hS7zGEpLR6C7EA9BbbQuArmqhRi6PLCJs6ajkb/a+OZC0THcOq+CQ8PqD81iP43Hcyfo77DBMWDieobARZ2MmxTLIcj+hmIdRtHeNntLgFZrqg0w1/1yDGU3yPnoYTReQp7xdIv/aXZPKxqVyYb+RfdedpXty0sNeqKAzs+OgkPaD7TlQt9pG6XoNM1sR4nL8zoaPIX+w6L1t+1F9cgwuJiI013ch4wN9DaHSR+rySloeEOm5l8/oIziFhyFrQMNqmgbTSxaVHyfiOqetHVh4iRVHopExuepJvv9FtqpKANlRnlkX/HxFNrGIMpzE1xayBv4OgJPJuC549RGx3ei10C2lXPEgmPAhFmwwUSX/I+WcChB/obdsHltrdXtoBb6NN9j8fPP4Z1TLc7wAxwBSQRk+JFKzbKV0vMwYw6k2kEF95VRqFoXSa+NacWAxPEsIFGcpZm/ygs9N69F9Vp65S2O1dDCrt8cDBpCe+BD5qC3zyqkvZQOe5oYqlQ+sDEdz4mAydN3GdKmzoSdEwUkfrwC7l2l5dmHLUH/n1chJZxmn45O5HjQtoZ5oxqPWrOBHKIes9RIf3UmblEAout/7zQEJFoWrL1+BrEHKeZg5UwMslzV4tnqr6KRd7EAdjfCkfS+WFW9OA7+M2h2O3EF+l9chVSKH6inWX33dVFwZxPsTFr2j8uA1mU9zhpfQx1JS/WbQ8h52oEL7yejloliwYqzozCI9uMtFsKgz3vTkbZmJk5toNn4H+bDbx7tL7DB8lgkst7IRi0bXDv7wHX5JvQxbitJCqX96NfCkZumQc1tLdJHnkXWhE14biUFEy5di7K31+P0aDLPjmbuUzbBz9qWR8+/YlBEBtLYbLqOrvnrJgweJirXnqZtga2pwv2qnp2PIetoOd7ELl32WRQeUsFl1XRDzAEFfMZGIDOeZuRU0aabP3pQ//VkfhnFBxS+SasxhdRJybZOPmHoFznbJB4GqP75SxSW+KBvQ8wBwSLVTrQCkPdWBC6xLTZyIlX+0+G3IaRJnzUnTxJWOlGxPRwXyRGvKyOn/dVQ3KLVoaF7KQZHygYmjDA6tfIYam+TU2RLr8D+wx+99sagp6dEOy1XSeOQcxT5SQXQppGcrQZLbdXovuUIrXpZspzOFfyK4q5BmHI/PxgrKvjpxw+Bf2PvVli6rcsF9fiDV4twW0uXtOmcUnqYcW8dqsL70xzaZCe/iCPAEeAIPEoI5H82C4s17+LwG30fJbO5rQ8ZgSdz5cCiO/SQW4Sr5whwBDgC7YiA97z9ONyO8rioJwMBGc6BUrEASunpgDEHj2hfY3vhhalmYiMoqMxlQhgoTQEvHAGOAEeAI/AIIiDDOVBqmq2Uno4Yc/AI9hwy2e6ZMPR85tG0nVvNEeAIcAQ4AtIIWI0rU46JQMGVg46W50C6ffgZjgBHgCPAEeAIKI6ADOdAqRm9Unoe0TwHincNrpAjwBHgCHAEnlQEZDgHSs3oldLDYw6e1M7O75sjwBHgCHAE5CEgwzlQakavlJ6HGXOgNLVqAa6/2IxiVl6/MFNLgmLZTM0mh0oO4tyYSIv0xU0ooCUolq2pkTx/P/IoI92FAD+c2kJkQ0KhBD17KK+EQGE8HslLKcmPMX+Elmh4KfeCQPNM9MapJvTGdYwemngaBHrjceHIMKFflqQCNkuxLFohSesrCQKRXR0inoZxIgV0ElFAZxlpqC1cI01DrUH+K6FNKI0tiWlxrgWuzWow+uvJHzVJoNRCxgM40JZ2skRDbcnEmuSPkDrB0B4T1qO4CaU0EaSxvkT02mfCPxJ/O5J04Sa02wKVczBRRIcSLbyoXZI2miWv2kzpr6mvCnThUrTW9USdPiYceSwR1kXiZBnZSBt9gn4bP7500JAcTbr/W8JBPEd8EpvH47hfBAqb4ED53PZHCDaemRqBvCyDpPv5TVs3htcwICAjIFGpGb1SepSLonj4vcwLnhtjUG+FYEeWncQncGvPD3CeRkQ6VnL7NJHnMpYIhTQCkdCjVSgj3ZZjlCbYJB8/pYRO3wP0ORQPDzcNSteEI/2zoQgkFsWaryJxrWgSEWdRil5tBrLmLMO1gHgMGEY8DBt3QBdOmfemEPvihUicWbILpWFr4UqYdA6cg4Fj5uDmq+ubwFOxm0i0XFcg+GPKxMjIrsZHIjfsCPpRmmWWmc9lXTz8J7SiIdxGoO+uFXChrIg1J8lReCsS6uOUetvaGyV95iPgMCX7abf2M4Nrh+gYbWsnZrrd5CiEvGctE5HJTZYcRfryRNhvPgJ/xshZQkmSTNOulCSiKNkXA/5H7CPilSo8NW0Tgj/0gV0dS6I0E2l7hiJokQ88tyWggaMq5yMkv1oBjz+KV9n0HIXekdNRQ+RruSYm6E7vQOZpfwz9ZgmcVNQmr4zH1a/CMHyuBc6GIUsQdHKJQQqRxS0dj/zAUUJKbun+b6JU4qPuwg5cL/KlPtY882o2bn1ZANcPjf1eQgA//EAQkOEcKDWjV0oPizl4IFjKEmqWWrWeHv7P7kBdqBcx5mmhrfSC9wbKHtdTFClF2eycRw+ZFbtQwdL2UlY+z3c2ofcw8WlffWQ90iibX82vGrhS6t4BQvpfKjTDLdywHnkGOmfVmCXwW0ZkPMJJIr3Zvh5ZRwvY+AMbr+k0sM+GTZwlimWDXDP/VXwSgas/EjVzUQiREtHAZBxgLFJAK0PZzNIBZy2ORmmJ+ECyC1iIQW+HNaTsrT4SieI+C9Hz7ipcMdybroAy1HkOhZPw/CTWyWAfVH2RjBpyDqqzC6B6xl90grr6wuUPWmSdIjIFag8boujWEV0yu0ZH7QtX4lQwYGGeCthAkNVKimUzTdBwyIHSGxvHn84BQ+GgPQgt6zfUXdgsNn3LD6hm+bG7DoL3+nfgPdCa40Epng8tw7m/Z6OmkrBYHgXfMRYGFoMl5nBlp+ouEh/Imr2oItYwe183SmxoTOdHqzWfv4vMuHQxdXLPSRiw+WVKOy0KrI6ntMofJ9OaDhXVIPSM3gjPhpHSoNT0P8l2p6yfbWgnMxqsHqo7+QPK/eZQhkrxJmzcvAy/P61AOpXzcwEqiXFSOyccOU6j0H/7y3CijJJy6MIrvvwBunGbGn5rkrTR1P9siMaamMDJuyEa+BriXfAwtDmtUmQtXY+bNyntdn8xu6qRAKvh5kroNebzZNPbYptL93+W8dP8c0VwOCkd+7WYUnhQFs+ipKQG8TXfrMfFfZRCnFJuY3U4yp/yRo91G+EtZAm1/Iyw2gC8gjwEWIZES+VSfp2l0+12Tik9zOA3v7zTbna3i6C6H/QXB4/WX/7xniBO+8+l+sSFX+trDcLrjy3V/8+wV/S52YYD9+7p6/XF+ty5o/Xn44qFg7Wn1ul/GrtVX96kufL1Of85Tp+ZariO/iv/+wz92Q9SDLKL9TdeHdeo98tF+sT/3KXXiGboa3Pz9VrjpXVn9ZefX6S/UdEoS9an4gP6n/9js/43E7tqv1uqT5i+Q9RTTPce9Iw+5ahBqRWhFYde1ffze0MfbwTHSn3J03UV+rvFRp0V+oKFo/UXvzN8L/5af/E/yWb6Wr5pnP6nv6WLYnJ36c8GEQY36Wtdsf7mW6P1xwyYawm7BMLuDhNRdlaf+Zdn9AmrzwrX1Wcf0F/8j2H6hOeD9P8T9Io+J6PZvdal66+ObdpO+op0fc780VR/tD6B+kbKl/kNt3JryTD9/zw/Tp9If6df3aq/VSB5l2ZP3N33ij5x/gH9XXa27Gt9ytil+gKDjPrUrfrT7D7YuWy638FB+sRRo/WJ/zFXfzk23dBvKvQ35j+jT1ydKHyvv7pDf/b5VfpbVWbVNR6UwrXumv7XSQx/1rnu6TUxM/T/8xfqH9Rn6qlfn57X2Cfv7JyrP21sD2Yf65O5BhVl+fo7ZVZssNDubWknbdwr9Nscrf/pefp7Yan+17PWfyCav0/Wn35rqz593gz96b9M1v+8+kDDb06w/ubeFr+ZJndVcVafzvrL+Wb96B79RkfN0P9qfE6YXFSyYrT+7MeNfUivr9CXfDBXn0C2Jw4bpv+J2lL8rd/Tl6ylfrVJfEbUnt2s/+mZufpc1udNyt3YufrEtxLpOSQWS/2fnTP/XLlHz6O5+hT2DKv4Wn9+8CJ9gSl87Hcxyfz9NLWGf3sQCDyZKwfy/CZla9nRbDNA9Nw7/3Eo7LeloLx+orD0zEoLymaieS6/6gP3KNFztwscC6fKHSinvUEnyZlTAcpOE32zNhop50W5ukryw0tZIiM3lJ1MxVMvbGrYNrDraYHi9j7QaSsFNFPZbpTNdRqKH4hG2nm6d8K4jjY77QLFDc+izXth8/pOgUiowvQ+e87GoKX5yHx1CvIp0ZNz8Ag4sBUWqtN5ygoMzFqPS9O+Ju7lQXAP8KeZGbuYth9ijwILjmD0DC9hSf/8kmg4fUUrKRYm55Yolq3RG1tqmjqif7603x39P50u0CHrUpNRXkp8EW+Go1C4UEurHEQ8RZwODpI01KyeGs4hBvIpH0YgtQrleYC7sO1hrrA9bglcNSmoKPSHZ6g4k3YMJfKpY6KMypPJqM7NQOa8RPGAVgNdf0bg5Atd8llUB8xpWGFDN68mfAzmrIBku6va1E6WaKjN6jccrEouQM8DxPjoRkv6b8xE+ucjEPiKjN+bObpwg8y6BKL19p6E4VY5OOiCrKPIu+SPwQmx1A+J5fO1BUgje4bNIA4MIlZzXm6gj//jKFq1MMbcGO+IVh+/LIEbkY8Zg9ak+z/FE0g8V3SZu3H1Im07RtAzrMoSWvzcw0BAhnOgVCyAUnpYzIFyuuQ3Kj2UjQx2tNyna35hC8rm5hXkflfDbWUsfFtskTbf75Mrr231Wk0B3TY1kldVU4De1UJ6kH5B9LfkHJSuCUUO4Q56+JalldAfBYTR1fVEmlODCCSrohC42B+O09Zi+DRRbN03y/BTppchnsKLlkZ3whjeUbpuPEp70cP+bjIKv1HBdZH44O8cPBaOldEoo5HYRfIhbpli2RKtry5hPc5sEKPRHF6PFYikjEX3y26krM2G54cx8DCNQ/Gdg6Gxsw1L2yaQkQNknobaSqAC7alfmrtDDNYMXoLA98JgR+RKkriGk062zG1UbdulSbsxkqjhi9nydNMisIRKFXM2UF3Jdr+b2oZ2IoEWaKilqLVVbkSo5jcWPYQ2IIrqQC9cS2PsqrStKHU/wnEJunDDuZuHyLmfvFZw+qyVyviDqP79WsP2jA88RnohNzkDuhk+AjEX22IxFlvDBKXhwMWDKNKGwS/QxLulbU2z/d+CIdrUFGE7LnXcXqqloW0uopaesRr4nLaGrO9QSUuu0kBTr4KaCOJ4aTsClvuiIFepDXql9HTQPAd1GSg1RJBXnaQZke9QqJv/KE3bmRj9nPtno/iEmL647vQPqHD0h7PF4EMvuDyrRskXR4WZISt1OamoEERQkBtRFd/55z4xhoGdy2MDo7G0jWK54XKTD22igDZc316UzbpKDWw9fcSBnQbw4p8NaaBtA+F7PAEhAnVvPIZMo8F/RozgGLBSU0isguwDix7fnQrnCaMMbIQaVBeJDlYdDcI5x4nNcQw5BCray+1KAyNboaCiyzyLyjqS6Sp8lSiWKJYt0frSABu6VqSGJnroJo5B5j6krkhB961Rhn1bUbWNfyCcc79G7gVDmDhFsVdcEGnALdNQ0wwzQaSA1mUnoUwzCM5GZ8dtIgZ/b6CoZo4BU2UJ124Ux+FBGP0i4ld9ngYNQ/90DA5EbfxeFBuaB7epXpZoa+fAEbA/fxCFeQbHlhy5aiMFuDkbyAzJdm9TO1F/kKShZjdtnlqb2e1ArJWlgq20gpVK8Sq0Smf5YSxNFy60JMUfFWbS6ssYK46bUJnCDChoQ0urRuLbNuQMn88mGxgLrBuciJW7nL4LJTuVVpbEj+K/FBcRR4G6EyfBqcnzSaL/W3iu2M/aiZCT4u/suUMr4Nw1EP0O3KdjQEamfDgVf5wfi3xTs/nnViPwZK4cdMSFAzsaSM7Ta3I7S1DbdSj6RU9sOZNr0rxu8F63BJoV4Ti1m04QLbPnRoo8tuRQUDWniCj03bweF8btEKW5DqVoZn840bfONCseVLAe6ZPHkzyaPfQUAxI7M5mtpVimAffKoh3QVJWgkgbNK3MyYOc9EYO2TIdDWyigDffeXpTNDlMXwnUZRe3TjF5lR0GDXnKmKjQg7lyAzOO0tE10uc4zN2HQFMN1NDPOX0i0w7dooKKAxB5rKDhUCCgNRN/3JiJtC6PaVcGWZliu6yjY1PAMl6IClqRYpu0ka/TGBqhM/tPiZgy9Tlqgxp2XxiOXnSE7nv40Fr37sTYpQPpGWilhAYo047Kfshb+RM0sTUPNBmM17O9+jZTJ0ai+S9TBbxOtdZsnaj7otX4S0jaF4wKbVVOAnFGUzcgVGJJHAYlEGy28yWZHM+3FUXDpR5/7vIzBK4uRsWgK8ugKGwqmFAISu7GK5otku5Pz0vp2mo1qKRpq8+rFo31mY+DsVcicId6TDa3cDJrbcmWkiQgLdOHMqag88jW0hJVALW5apGijZ6xFv4xVuDSGtsHY1pgvBeS+RF4BFZdFtKKwfBWS/+UGlQOdM5WpSUL+SS/02N/MXsn+b+W50szc+/9Kr9kWFKPviCB437+wJ1qCDMrmOqJsluFD3CeMlwuU0cPMfJMomz/oSJTNwtsKX8P1dAzoTbP2KxQJnDEhEp0/iUNfySXs9lPHJXEEOAIcgYeKgPYM3nkhDkF7t2Gcy0O15JFXLmPUV2qarZSeJyDPASUJuTI1EqUaDWyCV8CfOwaP/A+V3wBHgCMgAwFVEN79LkhGRV7FGgIynAOlYgGU0vNw8xyYbRDbMAw+H2b2VJsO0hLpgK+OtOnS1lzEKZtbgxavyxHgCHAEHh0EZDgHSs3oldLDuRXaq3tyyub2QpLL4QhwBDgCHQsBywGyZKu66VtFD8x6dRflnIOBHlai9h7YXXLBHAGOAEeAI8AR6PgIWHUONPeUuQnKyqeMItKSWdQii4BiurkijgBHgCPAEeAIdHQErDoHPM9BR29Cbh9HgCPAEeAIcATaFwEZzoFSy/1K6eExB+3bhbg0jgBHgCPAEXjcEJARkKjUcr9SepRbC2nZWbQopIQtFXOPwPXweNwck4DBY1rWat2RbFybugqIpFwGLDGMSan8Zjeq/V6Gu5CM58GWMkoXfL1fLIbNkpNMyIItjKt99EG4fT8H5TN2wOHznfC2kNTGgiQ6pcV3sblYk3wXN2sp0y1lx3nvtacx1cMGmUev4C/fGlNG63C7qh69X/BFytSuyEzMQcTXlcio1MHesStmze6F94ZRAoraCqx59wb2l9RRBj8b9B7kjqgFPTCCEsVIlvrbiPivG/iO9Aulvp5sccS+j3+PqbZtkCepiJ/gCHAEOALth4AM50CpGb1Seh63PAeU6S5yE9DCAaA85fG7UNpVGedAvSAKA7rep2PQfv26QVIXHw8cmuaE3g71SP3HVYRSBsqgt7tj4MQByJloqFZfiTeX5aHbH7sKB7o4q/Heyl4Y4WaD8ou5CNp+A0P/ToO5w1OIeMMX77lRQCtx3R7+f1ew6FsnpMwQrzNrvm03xPy/Ru+m6PhVBF35Hf4sBPq2QZ5ZJfwgR4AjwBFoXwRkOAdKzeiV0vNw8xzYqtWwI1ITG0c3dDJmQ6xPQtrIg3CJpwyJlKpUR4Q+SQmTELI1BDa/ROPUimy4+KqgLcpGdedJGMT43ela3clonP+IWOt+BTz3m6wcXNyNC1sTUX1Vg9q8cJzbSRlSJ67F4FmWUrRS2lFKrVuoCoTKVovaEi3Ur23CgFBxwNcdJ5v2U8pmN8ptT+mQ62r9MWDvErgQr3vG8r0oz6b0yIviMdx05UCTirx10cjPoGRMlI5ZFUYJmRYRWyHN6Cs+p5S4cekiT0HPSRiw+WUDCYxlrnbt5Th88G0XzHxrMvpa7b0qhAYbQbaF/4Au6HahBjcpb7/pCyv3LpbgsPPv8KMh32rvIa7obfidOQ94CgNrS3GTLTI42MLDxP+5x/L/17YmuPUe9p28hz9Pc4b4EtD9ymvfhwGXxhHgCHAEjAhYfbwqN89WcOVAOVXNepoKHpvjROa+YXGwyL1jeiWRzjitjKKc8UTv+tJM3Dg9G36hlEt+5BIMH2nYVjCtP+RlDCOWvcJFoSidFovBoXI7vAZ1feZj+HJf2BTuw7k5O1AavBauhvFVR8xxnQ7sFClhtcQcyd4I9QiDb2wYhG2FJmq0KN5MXANuxGb4PaN/1aI6h5wEqqOjfO/pCT7wO7RRoIeu+jQclz4ORBDphS05HV+JJEfuX0S1MFx77QRiv1BhGHMOWpy1dKAWhxMr4THi9/Bv8iareNz/ee8Gh8BUyvXEUqT+vhu2G1Ox1t9FVGQ2tv9K9+PTA4enPGVJadNzOSXYV0my/ExCfe5HnnzNvCZHgCPAEWgVAjICEpWa0Sul52HGHLSqbRor9xwKZ2Flmih0PYkJrtS4V95GeZKXqeEUQI4BO+9BDI8OGSjPa6xs4xeGHn0M3xkxk6QcOkEEQaXJbnCfaeCFJ3YX+z7itLvyJK125P6AzHm0qvFiONK/IyIjYtSrsyTPcE499WNcvUx502W4tY3idBRjkI337nlg3+RmWwBlZdj3a1fMDjThqDVcWJ5+A7N/7IQPXu/eQMUM265YttoPOTufQZRjBT5IltsWOiScKCceJleMMHVO2ixPBli8CkeAI8ARaCMCMh6xSk2zldLD1kKU09WmdqlrNuDQYGJxIG6TEvMX6WgvXaBpo6Kj0bqJ3q5dDPTE5q9tzVH7KZswfLGlbY7WSLNUV4frP2Zj9kVH7HqrO3o3y3+VefI3ZPr1wJ+bBRXeyynE7M+0mL/EB1PNEbh06oJZtGWx7NsyFP2pR6PzIGXKvXLsv2CL2e9IxCdIyNMSP4aWGCDVloIepXTy4xwBjgBHoI0IyBhzlJrRK6WHxRwop0teuxA1Km0ZVBex2lqU0/J9a3aypXSwmIa62xqp02aOEyVxQrIwg9dlJqHsri+ce5qpJucQUTy7BhIHfZwoj91XdR7tj1BxDA5EbfxeFItfgdsUx5Alz05taiw2bohDupxlBtJ1/afrmPZTF2xf6gn/5tk+6+9QDEAtpo5yMsQAiDd2L/cmpn10B39+wwfz/93kJ1J2B2f/lwUaUGEBiefuAL9TwVk8IvybmXgDb35Xiea5w8qTf8O3PX6H2R4mla3Ky0fs/D9i6ocpJhfxjxwBjgBH4MEj8GSuHHS0hQMaSL1f8kLqG+Go6O9NcW9qGSsFJShctwqFFHRYnZMNrAhHmZMvnt6ywhA0p4LLjDnIXReO5Dg17FlAojXOeFA97dc4PzkS2rtu6L4uqiHeQKorVu1fhvSjJai7UQDt6QicO6qGc0QM+tGs2p3iJKrWRSJ5jFYMSBzPAhLdKFZiBYbkUUDiXJHPHnZucF0cBZdmr2Ka06m9fgaxBynmYOVMDDJXwfRYfQWiYm8jU9cJs5eViWccu2Ff5NPC0v69jFLsRzccGmDqI+vw3cGb+K7o35C5MQ1C1IONCotWDsAyVCFmezamlpPrRq8y9ujngn0LXEwcC1qlSP8N28tVWPNnR5PjWuz76Q6CRvVqusJQZUVeXT7yb7oj6Dmrd2oNCX6eI8AR4Ai0CoF/o1m0xWn05YI6/MFLhg/RKrVG53FOAAAgAElEQVQtKyulh2l+81AVPpjG12mbtgJ7W2EKyl9JgF9wy/bhRx4CApc/wNSt7tj2WTgML1I8BCO4So4AR+BJREDGqK/UNFspPcq9f/Ekdih+z+2IwB/exOHP2lEeF8UR4AhwBGQiIMM5sLiwIFONnGpK6Xm4eQ7kIPGg6tT9cgyFqcaNfhMttm5wmRAG7z0JfIb6oMDncjkCHAGOwCOEgAznQKkZvVJ6nlxuBbtnwtDzmUeod3JTOQIcAY4AR+ChIPBkvq3wUKDmSjkCHAGOAEeAI/BoICDDOVBqRq+Unkcgz8Gj0Xe4lRwBjgBHgCPwmCIgwzlQKhZAKT0dMc/BY9q7+G1xBDgCHAGOwCOJgAznQKkZvVJ6HmbMAaNsHo8MSrlbvDwUl463Y5/J2Y3kyR+h0pCjx6LkkmTkHUiVla7YnJzipcFI/UZu2mBzEtixAhTvOYrK5mIYZfPIZSi6m4orExYg/7bU9TKPS8jT/bIPl2aMR1JwME6MnILUT03wqC9B0YZwnBozHqfGLcCVBEMQ5+1kXFs0U7wmOBTJyw+i8q7BDoa/XwBO0PEk9jc5GmUy2qLul91InUx6SNeZpfsa8Kg+tAxnRoeSPLKP2RBfIOOGs5G/lOx+1g/HA1aj2FQ/s/21KXQ/9DdmCi5sS0YNKFfGYoO9zwbg+ECj/eORFs8aRouqA6spTwWzj675pBGjmtMf4cIEhg/9vbgehXnWzas5sAA/0nuyAj70d2pNUkOyr+KlAfgxwGALnUs9ZCZwtrkKqXbSpiLL2LYk68zifaiQl2NL0FBzfDWSBgYj7WSjwopPI5A8mmE0HlcumhgiZQNVqSNitAuTQ/HjQD8kf2LaftLtJImD5hguUX8wYpcUzGyZiWs5zJYH+FwxuVX+8clCQEZAolIzeqX0PILcCu3dJ2+dReGXTnCdYeQ9aG8FMuTVF+DWnh/gPG2iQL6keLH1Qvd3YuH3DCVlKjpKjsIyZD2TAN9AGhyOrsfVX8ci4PvZsM/6COde/TuKAzbCndJKPzVtE4I/9IFdXQHyXpuJtD1DEbTIkAaaSKsCDr8Ox2YpmiXvjfgnclYchN3yODw3EihaOgXpnwUi8FUfqChRVMAEN3Rm7JuZZMO8aBQFR8GDWDulixucZxBT5supSJtPibFMSsXuSBS6rkAwEVzZsYFmfCRyw46g37YEEF0HcCESSatVGPLtEjgZ7c/bh/SYCngfiCe20GRkTF2FawHxGDAkFdfWfA37zUcwLFCF6iPLcGHDQbh9Oh2dpY0TzthNjkLIewRyi0JJu9bFw3+C/M4g2U5qH3hH0715kiw2eL81E+l7iNhLTrru20m4uv8eSEST0jlwDgaOmYObr65vclzaBsqd1XMUekdOR82ecOQ2uUq6nVjqcrM4qMMw+ERYg5TKT8KRcnk6PPu0AJIf4Ai0CwJP5spBu0DXNiGSlM3BESg0zG4YZfOJpYZZFXtoj1mAS4sikPoKZTs0mV3WETVz6gSagU2YiQsfp5isBNADkTIjnpkwRfx7JdqQqphlVVyAc6uPojrrINKI9OjcS9EoNc5+C5Nw5ZWZJI9mlxPCkfGNYbZDAzmTd2o0yQtfjZsFzaf75rCQsoFYGCmr4rk5kSgtIUpnuqdz4RG41jAbs07ZvHHzV7gmM30ye9h26kYZJ21VsHNszDxpMzAEHswxYKYTyZTakzgMBEIrLcpOpsJ+TBhYmiybgWFwdT2LW8y+bv7wCCXHgA2eKi840/W1N2XMcM3Bw47lUYpqTSB6BKuhq1fDffwIVCcSKRXT6yY6BqyaTnuPzmtRb3UlQg3HQH84dGtJiiXc510iuBL+J0bNzkTiJZB5SZeanxNR5TcJ3Snls46ovD1CgLLEDGrAAlTf9oGTvziQ2wcOReeLyZRuu1GW7uJBXNlMK0NWbZbWb3qm8kg0rnyeapJW3EI7sUyfzDEwFIabrjlfiVm1GhRH7YXtS/Ph3IwCw/6ZQDh5Nc9caskG5hz4w2Wgl9hfmuiTbiezZjU/SKtUmf9Qo+/bE2FvOGf2udL8Ov6dI9AKBJ7MlQPlFimaNUUbKZtvq+C6LgaeblqUrpmCzP0hGB6uRe7avbBZdATPjVehcjsNsvTcFosaLq/FwMMwzaymmcuFj1Ph/rY/PNfthOcv0TjzrhP8vnhZGADFQjPhldGonReL50JpekozqLQXabb5bAy6n49GZsYImknTrJjNOqd83ey+zH2VtsFhVhSGz6Ttg9F74fxpDLxNZ8PtTdlsRR6zXJd5FLeKxqIXpXwGLbUzJ6ETcV1cmzoeZVNi0cNdg4oS5rmZGKpJRuFxLbpvFOmlBQTy9iLlPw7S9NgLLuErMHCur2WiqpvF0HZzh038MiRtVmPQh67oVJqPGhrM7MkBqTu+Huc2HaOBmNgt36P2tzKYm2sF4zHHBZvw9NII/BQcCZsqwPntWHib8jyYuVhLjo+NmxrlG2gLrGgJAvzdoM0qgc7BBw4exIdxWgNPog6vSjiLKi05V2wLyDCo6rKTkB9HvBPLaWXIRHbd96twii3Xu5KjtXwt+gYaMaWBdssUJG0BOvmG0cC3BO7CkoZYqs/sQ36JF/rM9TesTojOnGQ71Wfj+isRuJFWAJ3fQgxeQHTgVgrbBsitn4Oh5Kzlx1ipLJy2YoMcES3qWMYB5KjnrTuIThGx8GxovzY+V1ro5gc4Ao0IyHAOlIoFUErPw4w5aFvXs+1DlM0C2zEtOQb4IO1EBnRTKlBRSIM9G8ipOIYGwv5Yo3ztyR1I+2cGhIkbERtpfeihTh8ll4pup6L0Mg2MO4kfYacoh03O7UvpEXgxA6qQheLyv1sIXIeoUNyoSvJTq22QlNR4QqBsniqjotwqJUlIX5EI58074WE6+Nr6oNf75Bh4eKH852bC6AGd/3Yk7rwQhYBhhhmq50Ra9qVtCJq163IO4tK8CGT1iYev4HBYLp1CV2AoLWM7avciy6Sq3Zi1CKK/mgvRuPi3gygLpS0DCVJHyxqA6oRdKPFYi+c/DUHnwqNInbcK1/1i0VsGn4XLazsRUEMz4HhyfFghLpC+kXOQ/jdandqqoi2QQDi7ptLxRivspsVgzLSmVnUeswnPT2YrIkTCdTwSFxavh/33UYLT47I8HiEebrCjbYDSqAikrdwHx1jC0yDCfct5jDF3k1LtRMd774lHb20BClcuQ97xiXCZ5mVOgnjsbjKyYsjZ+TCEZvpy4jtMREnZIK1N8ow1HKri1iO/60IMmybSn0sK4ic4AveJgORY0ShXqWm2UnoegZiD5kugJkvoOtNlWnoYNzSgrQnlYNZupO3WwntHLIZ/EYuACDa7tbYVQDyCtHTcZ5d4Dbsu6PtY9B0o9gQbEzfSVoZLiTbZcJ+9ubWXU5DelUU7AFplGdAwg6UlaVcVaks1sOvnCwc1sWUWq9GZZtBioe2SNctQ6EkD+qu+jfir2DK96AjY9KG94GAtNJnGLQc2i6XAvdH0N9UkULEHRTHcptUDutZpID3sSwpQ6+qNzs1iFjoPmwSXuqOU3dJ4gxLyJO+f2DEPJ5GDR44Bq+MZBnefDJRdtBylp+rhBl0JOZVutIVAy/RsJUHVXdyKsRsyG4O/OIKgb+IwLNwdtTXeVrcp0M24VaKCfeh0uHbLQKUhkNGOOQbMNsrW6TpzLOyv0jmLWxLW2skABm3/9BjfF+VfJQnbNZIlLxWaolRcJzKwU7SNl0ttV0yrdBknLf1uZNogqbTlCYs4FNJWzR4Veq5r3E5oKcHcEeqLZbTKIXsrzpwMfuxJQ0CGc6DUjF4pPR0xz4Flyub6nEQUC1HJJbh1MgMOQ2hQ6jYUTmxp9xfx4VV9PgXVxodpZQV0amJ3FGbCtI+a0DCqiP27qxNsNMWoM334dhsB1/6puLHfSBdNs7sLqcIDVU36tP9Koeh2KhQJXnbZ0gNTVAFrNrBYAJWGKKUN9WX+11rKZkmxGopoX0jsk7TF4TfedBZGS+Ej/VH93VFUsb3qzGMoLR2B7kOYJBow1kUgV7UQQ5dTYJ+JcF1hNqqNe+5Fx3DrvAoOfYxyaRb7aTyeO0F/h2n2bxz8e4bAhQL9biaxQZpkf0OxDqNoBYi9JUCrNdUGmFna67Ib5Hz0MCqUkCd5szS7J8elMtlAn033Xna16b68uUs7PzsKDmk/0JYLnaVtlKLTNMMfJS7P64qIiZP1Hxbwt20vqkeGwcVkkUR3cR8yKEjRdICvySloiIup+dcPKKO4BUdh60CDqhyjo6JFxfeJqO5JWxcmTlLloUhkNIk5sNBOReT4GOWRfcXHU2gbw4t6XGNpIW/g6wg8mYDnjlMbHd+JXuSsub93BL4jLa38WLDBHKBWj1nCoQT5G3bD5rW1VreDWqjRfI/Fzz+Hd061OMMPcAQkEZAxB1RqRq+Ung6Y58AKZbMtBULd2TQTZ/JoJuo7H4NmicujvdZPQtomiieg4DUbO23jw2/IHPT2WYW0l9JhTxNelcoHNqbjeZ8wePouQ9rUmbBz8kefj1fAvasXem5ei+q19ApdHOsvWpo5z8GgIf6wD1uC/j+vQko4zT4dncjxaBnw1qKHWbOB7rnHLDXSX52JWxQw6PrfO9FXGIAtl1ZRNlsQVf1VNPIuFsDuRjiS3hcrqhfHwX8GzW4nrkD/i6uQSvED9TSrZ9TV7mzhIJOW/eMyoHVZj7PG11BH0lL95hBynnbgwvvJqGWi6E0I59lRGET78RYLYdDnvelIW0NBoBtoFegP8+E3j/YX2GB5LBJZb2Sjlg3AnX3gunwT+vSxKI1OsjcoKDI+TYOa21qkjzyLrAmb8NxKCiZcuhZlb6/H6dFknh3N3KdsIvZNK/b1/CsGRWQgjWbT1+vomr9uwuBhog3a07QtsDVVuF/Vs/MxZB0tx5uYp8umN2IO0TbYqumGmAMNymMjkBlPKxFU0YaCO3tQf/Nk/hPFBxS+SasxhdRJybZOPmHoFznbJB6GtkV+/hKFJT7o2xBzQLBItROtAOS9FYFLtCXGvBGV/3T4bQhpsqVmTp4ldCsopuciOc51ZfQbfDUUt2h1aOheisGRsoEJI4xOrTyG2tvkFNnSK7D/8EevvTHo6SnRTstV0jjkHEV+EtGip5GcrQZLidq9+5YjtOplyXI6V/ArirsGYcogK/X4aY6ACQIyKJvribK52TrnA4DwcoEyepjpbxFl8/uPCmUzva1waps3hpnsvz4A+LlIjgBH4DFFIP+zWViseReH3+j7mN4hv60HgcCTuXLwIJDkMjkCHAGOQAdEwHvefhzugHZxkzo2AjKcA6ViAZTSw2IOHqEybAWei+2Y9lqjgKa0ArxwBDgCHAGOwCOIgAznQKlYAKX0sJiDR7ClOqDJnAK6AzYKN4kjwBHgCLQDAk/m2wqP1NJBO7QyF8ER4AhwBDgCHIFWICDDOVBqmq2Unkcgz0ErGpBX5QhwBDgCHAGOQHsjIMM5UGqarZSejpjnoL2blcvjCHAEOAIcAY5A2xGQ4RwoNaNXSs/DzHMgj1qVUdsmrUlue6ve15XZxClAVLCmeXytybNEAV1yEOfGRMqiL7amBowT4qV9qM7bjXMzPgJRBNxXYZwTZ7Zlo+ZQBOUZMCSKukg6RjJq3GCiF+7XSCP8ohw6bAkaaikriQ0yLZxsGBmAc3sKpGp12ON1F48i76QxC2T7mNmcLtkitbYFlVJU2JZoqEEZM7NeYpTWlCVxhhwaag0KXwvAhUPGBE4lyAsPQGo8M4wSWR0hbowx1JcY1TIRmV05KdariJqC40OIMI2On5q6DNcaMPwNVcteIHKrSgt31uxUPXGgGKicTwwhqm4jJfboCOQVWhOjQH8l5tGscX74MVikJU8aE460Q2KitYot48neBchjSbaoVG2fSTTUU3AtldJ7028vaUOygSiM+FwC6Le4+JgJ8Za1e2t2nhKTZYRPwYkh/XD8lYONJHX1RA0/mtlnoMMeuQDXhYRz8krz/sr6kCStu5TIk6txol8ALgk06VQY2V4/P5zbfxnXZ1CbTqZnj3CCEmG9RN9HynietsOzUoZzoNSMXik9jx63glSfejDHvfB0JJH09GyFdIECOtV8gmaXsUQoNAfODz5VRisMtlB1yBIEUaa8kNPx6BdA5FFrKOf/afr+hQwqZgMNdbmMBJKCBR4T4RcbiwFjHs08+bWpB5F/uh2dGnN0yQZq7edPn8boA/NhE0vU2tb8ZiMV9jKiwj4ehz7YRVTY2WKj530p0lB/TpkQv1oB+38SDfUFdopIzaJWofSZTQiiLInDphTgGmV4tJhy2UI3oh8E0rcRV8Nn1HdO0N/na9HDqzHpVGdKQvUcHQ/cOAgVa4iVVHDGf4eus4JQu/9rE4ZVS0ronG0I/Jh86qPDiVzKbgJRYrP+eoIlW7JyrWL9lVJYf8gyT9Jv6ZNRqNq8AzcFP4kSa/XRoCyBOZjZuHkeROhlwEjli06/JqKMfkt1SUnQelonzrJ4t1194LGYCN9WhbXkl7HzR99DIoYhJ3eit9VkYwZN5vqrkdb9JPXXBOJmKfk70bob+p4lA/v4QHs8SWj3smMZ6NRPLVKVUDpxB6TgFusfRYkorfARSNmUKE/m2wpKICuhwzy1qhaVB95F2keU5rWbFxx70C+ngQSI0sl+/i4y49JFr7nnJAzY/DKl3SUFeTTzfGsXKrX0g6JMeo7EEeA3wTDQUIrcvHXRyM/QwEZF6XPDVsB/kb/wwyjbMB5Z9ZPgUEQplysohXH/hQikDHcgVrrzHxFl8K+Ufn9/HPoaSXmYJ7siG879iFSIse+pacDfPJuImBgF9CrK+U+pg/NUxOKYCJsulHFx+xK4EkFQxScRuPpjNqqKQoiUaEVj2mDKAFi6bRWy4sWBxS5wIfzeDqNOz2Zi41HYdSJUlDWv+qoG6sUx8DWmN+7sBDs1+9Fo0ImyNDYt+ThBXBLX/P4/LHhe5mDroCY9lK1PxeQ2l2e+ARlhUNo28UcMN2IP3ELsgaSO0VCnH6V7JS6CCqKhvtmFHIulMULWx0p2Ls6QlppIenqsXovew9r+nqd5eSoULQ5FjoYeorkaOAR7UVbBDNjMisHwlyjr4t0MYt0k0p6rzHNRwfFlypA4gzJnspnnyINwiSfWRzKJ0YUnJUxCyFbKKEizj1PU7i6+xKtQRO3ReRIGbX8ZTvUiJ0V5AWWL1NLs+DJd2H8O/NZRGxpgY5TNWfFd4MlYGWU9zIx0yUvwVEwy7hjkCNTaxqYwUGuXC9TaFtrLQIXdV6DChkCFnbmb+vWrPrAVaKinizTU9SIN9RVGQz1Ei+LTlKlzB6Ump2vsx4fhqa2MUpt4MtrSVCXErmlHKa9dDcZ3I34KM6yadgNno2cwZd48moG+y3zxb8NmE7HlEty5MB3OwwQmDLHUn8HtCR9D/6dewM3/Re0tVzy1ORIO3o1VzH3SUWbF9BW7UMFSe5Oj5fnOJqHvWeqvICr4C+9+Da2QL53opWetoKysJjwi5hTJPKbTUGp3VRdKnS5eYBc8CjaniXnUn5hPPUbBuSRRPEG/E/fB2Sg+T2m6T1TAJcwLVaarmTRDvx5D6cbDX4eHnImM2gculN1Tly/TUKvVzPdXkdbdcDHLlEq07rnESQKwzKfSxcZrFFzuJhGNvRplWb5w9y1AhVCdUnTTvVfEUzp1tyTgT8SP8qWM2YfFZ6W0HaZnZDgHSs3oldLzMPMcSFCrFn2JzG3F8D4QT3nTKbXqK1NQaniQ6CgFa3qCD/wObRRYEas+DceljwMRtNwXFXE7UBkcg6DFrONpKWWusWnpQbeZ0tG6RSHwe39Ka0s8CZRrvnGZiJY8LwMD9+6EEw3iOq1WPDdyCYaPZNsKq1r2HnO00S/Rw0aSAhpwepUGpqm0rTCrqeesS45G+nEv+B2OoXz87H7DkXHEn5jm2BNDizrPSQigByVbXjvzN+I4GG+glu73MoZvE03z/7SZiXUltLwbizOYKds5sJ8RAzEb8EZYy0AraCO66ivrMuBGs87efchp20YpdWkAcaX0yZZoqO2JdTFglkgspKMBN/mdfXA9TCsRLVGWdcS8vJeFax3IGehXsADJmTTAfzII59bRoEjOQd3OVcQJsQTB31Oa4xJatp22HnkBxMpo7cFKzzWnlYw5kS1pzsSN07PhRwygA/YEQqACJyrn4SsZsVfTIkXZ3Lye8bscuuSm1NpSkui4BSpsGykaaiI70xI1tkP9QVwYRoyQu5YQAVaJ+Jtqi3NADoin1wJcmpABl5Ej4BIyEZ4jvVrOWtnsuZcbqjOIWhpsAP53asP+KNn/PXREuNVkabe+Ev8WtAbdgjqj9rNwlB1Kg8N/+VkAgtqMJgg1f6UVFEoLXnd6PZJX74LLt0vgZIk2vedE+BKduz37OdKAlTY5GoVjdsJbps/d0qAC3FxC9OfEpaKlwc91XSzcSbYw+DkFwtVhF67t0cJ+3ELYpSUaLu+Cp8b2ReHuv9Mqwwj0ffYs8k2dA00Gbh04CPWfZToHLY1qPFKXgRxKEZ7LUoSHzMfAleTQWvA92YVy+ivjI2lB6y5phyu6B6fj2taDqH1mDnqVHjM4BzR5GUZEZJ/swzVbFdz/y4kWpWRw4lp6Vkra0PSEDOdAqVgApfR0vDwHurQMVPULQ3dhGdAL7qG+yL0qNlTlSXq452Ygc16ieIBm7rr+jMDGF/b+Q6Hbsh5pGAsXv0C4hRi8U1pWLU0m4phdzDFghS3fmf6yiRToT2GCY8AKW1mwVszSRpOtMvalWoiuvpQB22dpJUHQT/dLD81cWn3ANLZ0SLNaf8MsxZMYCjX50NJMzpSEp4VAdsBuKN780QCa2QrtcPDXFFR1H4F+wrKjCk5/CkSnFSlELhQCJ0uz48JjyFzzA6ooSMKGiIC0twKFe5I3ozZjt4Q8NsvrRE+1TsRVoXIlvg3HYnS6U0p9hXgN0krgPNNAFkUrHu6+61GcQTMQa85BT6ILFxxVmgVT/yy2Nms3mGuOstnMnYiH5NAlS1FrSwoFpKiw2SUtaKiNclzHYsDeoej0+wK0tTcJvwkDZbTHxWSU/nwWxRtmIn/CTgQuZn3ccrF5nqiqP92IO+TgqQ2sqMIVtr3Q2U9cTbDr8e/Q55aCPTUlp1X0HCi/SjPwKPG3bxc4Fk6VO1BOe/xOlrYctMR1sYG2WG6ySQNNLIinQ8V4KtrsHNC2QjTRl7OZe84+pM6nFazAGOqtrBA/xGgVst5zo5UnFcqEY2Kx+T09o7KnoGzK67SqeNbkDH3s+TIC00SHuOmJVn5j/CZfJGCAB1lzOwPXly5A2sc+NOGy0E5y+qs5WncrpqnGjEBt1EE476Xn3z6TyrQa695zFS6VEMdNN1pdtSKnvU7LcA4ku1572WCQo5Sejh9zYEseomlhJDnDhdWBZmXMRgT5EQMdse0V76RAmpO0X7ouUNaAbdPVukPQRJsUbXRzm+77O9ll2itpEO1oRdcag2gJPuvNr6GKjoXfELq3on0UTHmtNRKa1rUmrxM5IMYrGI4MP+OfHK3N6cLJ6WmLAyhHVUMdA11yGSN4ooO1xPioY3TJ78WJrIi0hNySWrtRg05DDrOdGnYGZxcmVNiuNLjqjjMq7KECFbYto6HOYjTUgXAiEWVGGmpGXEarI9rbajg8wwYKYiGtJxIuM1sBjZpVsG3hFFIbN/y0yCkfEgJv9vesCqfIQayMaD7o0OCbWwL7p00cbdv+eGrmv9PqwQk8tWF0E/ybPCUfyG9Di6LNq1A2ZCeGb2XbThRQOJlWEttJlw2Rvrl6R6M0VWtwDlSwC1uLQFp8sqdVRFPnAHY+6ENspk+rCRshyPNBFBU6G+McuvnCe4I/cuKJYIsmX5KDo7X+SoGDRlr3AFNadyvm23j8FUO+DYMd0aM3wYE6lOvSOASx/njX1GuwItDS6SoNNPUqqC1sp8r43Ss1o1dKT8fLc2DjNwQOuRdRLgTpUIAO7RUbi2NwIGrj96LYGBR+m2ias8So57pCWop084XrlJfRL9wf9QX5YiATecOugURVG2eg6GXeP2N0vI9iljbaKM8cBbQFXfaDfVH/M1H2sn1Q8rCLTxTgKX8zzo8FGS1P5eP7DzdiZ+L93WdLuSZHfj8UDhR8eSuL7fnRtsIPxMLoO9RkBcAMDTUNtrU1tFzdUxwxqhMSKUakqZZOFEBSwwZEi8oNJ2XIaylGDechbiingCdhG7nkGK0a+MKZYgnYdJANitVCxLiWVhiMlN0tpTQ/YuugQv1tGpibn6Dv5iibzVQTD1miS5ak1jZKo22pecFI3mZCSy5JhU1Mjs9K0FDTb8Y9mGJhjqYK91P9zTHcoUFdiO2RLDT496TYDlr5E3xnmnlq8r3g0It9TkVxMtsqEEt1VjbqXdwFB8W01P2yD3mnaZVvYlOnwWbsbKiu7kNVbtP6rfpG9+Tcn/btT4i/ibrTP6DC0R/ODUEcZvor9YFaWuFi98UGB7Y9VJbXVGur+mtzg0tSUZ7L6MdNJifELmnPZu5mio2bFzqbm8ewmAPaMilqZpsZEZYPaQooTsjwg9TS9kdCBlT9fJo4Bq2j95amdbdsCDtLjgrRlJodlNWEmUVH1bp00xopH07FH+fHIt/CZZLOUeM1Ss3oldLTAfMceEzCwNcvIn3eAhTSj8bmLq3fGTakbUauwJA8CkikWZWw5UZBTq4UdetCwYLVROubFldAx7TQ0YPgaaJwFhcdaW+K9omr1kUieQwtDbKAxPEsIFGi4wmNbQgupCDA6hxa4l9Be5pOJHPLCiEgTIo2WrjUHAU0xNmepqoElUVaXJmTATvviRi0ZTocApdg0JhVuDJ5vPDw7BxMAU9T2Jql8ZUwQWrrCsUc/PIVxRzYUczBqDavf1rWqQ7DgHUpSHuDXnejmjY9wpzWXtQAACAASURBVDBwiwkVsFka6kD0ee1roqZegOIeati40oOw2a/Ocdp8is9YhTMT6Ny0TRjGAgilisq6PHOXOi6gN1AoIPHcmGg6TUFmr21Czz6sJs2WKHYk9Y1wVPT3pu0bstGcADPHOo+eA7cvqY9N3QU7X6JFfm9iY0BiC8pmMwJkHLJErS1cTs7lnVI3OAWbDK6SVNhUX5KGmmZnyzahbOl6/DRaA1u3EPR9f3rD/UiZ6rSAfh8rI4kKmw0waqjDV6AXw7WEnPxP1iNzOfVptmLhMQJ91v9VkMcctJojLPCTVh5cacl4HQWuGoN/jYo6+8HxryqUxp3HU/8dIL11IGWYcNwN3uuWQEO/5VO76StRt3tupHgDo4Nitr+q0eP16SjeuAAXvqLnRVfaomq2BdGq/irYQYPuG6EoER5OblDP3iQE6lYdE062rbCYg0NHoZ64RF5AIsULXZpMrwBWkhOuTcZPwbvhuuYI/HyShFUpWnyi5yj9/oJfh1+z1Z1W0XtboHWX+7tqGyCtuUqD/IJi9B0RBG8Ll8mgbK4jymYZPoQFJXJOXS5QRg+z5c0vq/DBXx3kmMXrMAQoMJDTRvOu0CERYO9zR7nDfw/t03dIA+/DqLv0hsK8g+gUE42n3O9DDr+UI2CKgPYM3nmBtin2bsM4F2loZIz6Ss3oldLT8WMOpJuLn+EIcASaIPAM5aXY85hi0jUI3Q4EPaY3x2/roSGgCsK731nvVzKcA6ViAZTS0/FiDh5aJ5GruAPTRsu9BV6PI8AR4AhwBOQjIGMbRKkZvVJ6LLz6Ix83XpMjwBHgCHAEOAKPLQJWnQPHLsrcu1J62N0M9Gjx/pEyN8m1cAQ4AhwBjgBH4BFAwKpzUHlPmbtQSg+7m8yidnppVxlouBaOAEeAI8AR4AgoioBV50C5HXoec6Boy3NlHAGOAEeAI8ARkEBAhnOgVCyAUno6YJ4DicbhhzkCHAGOAEeAI/AwEJDhHCg1o1dKD+NWUE5X00bVonDReGQkEzHS8lBcOm69yesSonHuxZlICpiCrF9M6hNrYd7icJwbF4wfFx01m6XOunTlatQcWICkNda4dkV76i4eRV4Dx70cG1uPq1WppVnYdeg6yq1W5BU4AhwBjsDjh4AM50CpGb1Seh6tPAd2ocR698UmeD7drPMRsUvPbbHEXiiPS+FR6rq1qQeRf5oyPz7Mcisd249koYHo8mHawnVzBDgCHAGFEeB5DhQG3FZNBDGMHMfRrYHTnKUuLlq3DDnnDemDPSh16+YlcL+PLMDVxym18rYkMec7sfD13bIEzicicC5jDp4jcqaGok3CpTFfo/v3UfAwEtc0x4Sy0J3a6IRhjMaVzpWuCUXeH45g2Azihd8+E+dPeUFNmbZ0ZSWwGbUEfq+KNNGVB95F2kcpQDcvOPagezPmBicq06zFRL5iyGluF7AQg94OgwOlNWWpTMsLMqDVUqrfy5Rvvf8cYmsLE9POJn+E9C0/oJrln+06CN7r34H3QDHxunlcDTdSdgY7t6dQmuAIjPNqfnPNv2tweOOn2H7pN1zP74TZ89Jh36U3Vm99AaEMn/KT+Mu0DPhPtUNqqga3NV0xbdNrWKb9J4a+74RDn4WiN1VLeHc1ogatwbfTCLH/vYQ1G7/BdwJ/gT2CXvk/iBn/u+aK+XeOAEeAI9BhEJDhHCg1o1dKz8PMc6CCx+Y4gasAw+Lg2tAN1EQhGwMPA/lI9Z5wXPg4Fe5vE1VZWwrlEb+yLgNun8ejdx8iCNoWjotbk/D8gkGw+5LooREIVQ4NwK6+cCgkGuJeQxvom9uirq5+EPptfxkOjMFt6irkBB9BP9cvkbmtGN4H4uHtQeQ4r0xBqdE5cKB8/lti0c+NDexEQbpoCq4dC8Hg8YEYsCcQwv0X0YrJSpP7v30U6euuEQ31EXhSrnfdxWgkv7sPLuSwOBBhiXlcDXejSUf8P+IwbJwc50CNqauXYmo6DfaRXbHvs7HCYN+kVObjes//xreLGFlMLe6xl1+uNK9k/P4btr/zDcrn/l+khFD98kt4hVLi7v/ja5jV2AGkLubHOQIcAY7AQ0FAhnOg1P68UnpYzMFDwdqiUu3JHUj7Z4bIjErMi1ofkaVPxr5PS7m/0oDffQT69WGnVHD6UyA6rUhBpdcIqG/vRfntEFQzYqXxRzDEgRggnxl7X3npVQH+NEBTISIXFz8Nci4zSlxyQvqFobtA2uIF91Bf5F41mFqnQcWeaKSdJ7Y4SjlRV6iBXSBbNZFeKtGlJqO8lByaN8MNfOZENnXXH9U0MDtYS1vRawEOpy8wKG+H/+x7Y9oYI4tcJ3SxpL88CwnpFbi+51P8aY+ou5r+G/gb/cOdg3ZoDC6CI8AReBAIyHAOlJrRK6WnA8YcZO1G2m4t+n4RC3eaXeu+icCJ+Ga8vm1o/RZUurb+cPKNREUSUQ33I4a4zLMosS2AY6gFFkCDXotOiknaCF29ebttbRt5V6sPrcfVwkkUS0EsfjSwsm2KHKIitlp852Bo7GwD86TV2g+ugqornGX8choM6NwPa3a8gqlS2zZ07xqNFiriBzbHTvvgboRL5ghwBDgC5hGw+MwXL1Fqmq2UHuUyN5iH3MzRygro1ESXKyy7a1CcYMJNL1RXo5MTUSnfbDmAstgFm5ISsNloQ/n/2zsXuKqqbf//Dg+3SGweh01wgFAxVAgFNSMpSc6NtOMrTL0+b2rcSjz1N6yrZomaj2M+8lw1z99M/6Z20DTTU6bdVDo+yKOiIqgkCAJXZBOPjQhbHvs/1n4IbPZjgbjY6lh9DPZac80x53cu9hxzzrHm78k+cL55EjczhfS0rHCQnIHgPnChDtojTI6Szw/CMXoaFPZfIzfVD25hVrokdy84FBehSsiO3pIoy2gqraw+fhTlwjWKJSg+rYBbLypTaBicc86hTJuU5Gt/oRkK/VFfQZK4voFaxwC3U1D0i05v3nDd3lmGulJVkzcw7MIj4JazDzln9LbrlCg/kyXuLQ0h5mDRCvyQc7cI1n/p1AkdqZyi98tyd4X7b4W4pmVUiJOX9S3iFoToJ69h08586PYTq8G11Gu41rgExz7Cc8+/jx+aYrVeRk7BBJgAE7hPBESMf6Qa0Utlxwb3OQibiC6Bc5E2hYLfaLZaRrrrdk38AAV8pwzDjUUjcWytAl4f0Xp9X/0T8fRodPVJwGkKKnQMnYbwVTQal8egR+JZpL1N6SmZnU8Mei6PguAJOoWT7v06JTz6KeBRqkB6WgjcKJjQ4uEbg86RM5AxLg7OnQPh8JhhSl13l8y7GNnjRqKyVA2nV5eg91PC+eHo+dY5pL8WhwIfGexu05KBiy69c+x0eCZQwGG8H2SkoW7n13Q5ocOgiVB8vQwpsZvgEDwaoR9TndyHIWR5PtIXj8Wx25RPnQxOI+cj3MDBUgW0MQffUszBLAzubClho2td+mFGjw2YNu4v8JF3RcJfR+NlcyN/4bY/9ENCxGeYNeW/0fOJ38Opk0FA+PeIXzgGNxb/P/TZXaM14NZtINb1okgG/XKEMicP6DUYfZpiFVlQTsYEmAATaHsCv6N3/i0O2S/k16KXnwgf4h7LJpUdoZizvq7Eile1q+R83CMB4W2F89XzMSCBnA4+WkFAhW/jx+HixD344FkrMzityJ1vYQJMgAm0hoCIXl+qEb1Udmww5qA1Lcf3PCQE5Bix7juMeEhqw9VgAkzg4SAgwjmwOLHQhhSksmODMQdtSLF1WalR8eM+lBQKGwgYHS7B8BkZbjYI0Dk+CQOM7+HPTIAJMAEm8EATEOEcSDWil8pOe+5zYKvPigwuL442hATYaiG5XEyACTABJiARgUfzbQXpJikkakY2wwSYABNgAkyg7QiIcA6kGtFLZYdjDtru8eGcmAATYAJM4GEkIMI5kGqYLZUdjjl4GB9krhMTYAJMgAm0HQERzoFUI3qp7LTnPgf3QVrY4rOQj2vjhuDyOYuJRF7MR9Hm/ahovg+TyPvvZ7K25momv7oUpD0TiiMDh+DYwGgkD45D5uGmGzgZ17JyM0lVR1LaSJLWDgrFT9rfo3FsKclX1yUjjfaPoN2jzR4liUNwZkdzGy2XtTZrou0vqDKQ+z7tRzGI6kqsUpbqBcDa3lIb5ii0ObXPM9Q2VO4jA0ci9W+pOuGyNrRiyErQDzmxJgt3ds/AsUXGm57dB4OcJRNoIQERAYlSjeilsiNoK0hnq4Xt0cbJ/eC7eC3qtEpP93jU5ePm5oNwGzUMLo/y6/gOJBq1JQndSLei6h8JOPXhp3CLXAwvM0ycp2xE1BRiX3cI55/ZBvnOreii1ZsQziVbbRR53Er06NRcc0Ira13oh4CBza9ZzfS+JqBdJT8kh8dzCfofiaC3XFSouEhqnffVZltlLoNbgk5ttD57O1LHzcXVZw6gR1hb5c/5MIEHh4AI50CqEb1Udto35sCktLC241iP2mg/2FWqoa7wg/+i+fAN0D1I9T8mIHmHAv6KLHrdUI3amnD02EYSzLmkVDh7E8qFHQPtyRH4aAm69NVts1e1dwHSkjJw51cVPD9v9AWnzkLBogXI1ctDy14kieWEKP2rikoUr1uAzP35gl4T7Vw4GiF/nQC7pASk789CJW3TXP76ZNzoSCqS765FN0tfmsKoeOB61A/uhvqCPFTeUCDgryvhL9TJnGRz5mc4Mf0kZAraDlpOSpF16ShRhqPnjvnwomrdkUSyWcfcZDsZ/V07Rb8A+bxdqCqmC4YOv8V/+7S19IYZyPs5A1W14ej2Nz2jwkPIeJ9EsrIy4BB/AP3H650A2m7arKy1Oa76nRhLFg1BZt1wOBeeRVW5CrXdpyMiMRhFJuXC1Sh8hzQvVLS5VY4KzpF+qKItsO3Gr0X/KRa0OJQHUXA8EP4/Co6BcMjh8pR+68dzX+DMwn1Qa9+YpfPjZyNkfLDeccjC1dgEVEZFkOJmBmpoP27ZhLXoPUqO8i8X4lJSum6r7IDh6LF0KkiGgnYGt/Asl+7CmaHJcBkjQ9kZEgIrl+PxT9aiS5C4BrLrGgXPrqtRkkNTZV1TTUuMC1zVwizJAuRl0d+LvRp2kbPR//0IbZ3uHF5GaqgpqBXS2QfCd8VKBJBTqT2cSUeDNEnsZK5wkJvxLPVJ+QcTaBcCwg6Jlo7zeTWWLrfZNansCAVO+PpWm5W7TTKqPag513uQ5sJP1drs1N+8qzk6fZ/GQL7u0Lua/+n7uiYnS2+tulpTpynS5EwapDmdVKQ9WXMsUfPPl1ZpymoblyhPk/3vgzWXUhvOlX06RnNyxVl93kWa628MbrD7dbzm6L9v0qh0xdDU5ORp1IZba09qLjwfr7le3jh/C7/XHtVc6E91StZldmvDGM0/l5zV3VBbrrldpDeiKdfkTx+kOfc9fc5Yrzn+ynrNrWrB1iRNdk615uZ7VL5jdFvJPs3Zl97V5OfrsqhLXaU5TmUV1ZLX/q/mleDnNB+fslBeMZcEBgPGaH7VtkO15lYStdPziRqloSqW8hDauC/VSV9+bVItowGas/uFNqzWlP1lRAMjfV6/zR+sOb1d18aNs7/9xaRmaTXmuBryWjhI8z/Et6xSd6KOniPBrvpGQ6Nq810otFO15sbbAzTnDlVrhHOH3zuqqcvapDk5aZvmduOCGP+eulTzzxeWan5r8hzqE5UUaW4bWFVS3f/tdc31u1W7qvn1lac0/5x/suG5p7R19Fwff63hmby1cZLm+F/StRlaepY1JTs1p58apDn7jcEA/c2YKtPd8lfTc9iX/p50LGoyNml+6TtCcyWDElji+tNczWFiYvg7qSkxsKS/vdGDNekn9RWuLteo9dyNkfFnJmCLBB7NmYN2ccOsGKXpao9+uhFEh6f7wGnNWZTVDYOnftRnFxoDH8OoQ0ZaBXUZKLsSCK+VuhGlQ8RLcK1Yj7JCwNXsKDYfJcdJDlq9GmdP68pTX0GTBMXCmrYCJT+n4rFXltxdNnAI8LNSaCuXhTrpRZ2cfP1Qk6UTU7IzJ9ncmfLz8IQj6S04yuXo4C6DA+kx1JNioc1INtfSSHFSNAqoXey9w/HE8pnwvJeBn0M4PCN1begSTIx+1jOygtbkZXNc70phy+D8xxi46jUi7Og5EoS5zMmFawW/aA3J0Z1GuZ4kpuVSBMdbxa1fh9eO9OeimATE7MhuFWlxyIRZl7srI37wGBYBw5eSHRWv/OcUVOVk4NJrR3VVVhOf7vlUBhIQM/ss65/bTuHwGWLInP5m9H9LJtlpT6pRtnIkktfSr52oLO8uQdeewmkLEuPdwyDPI1XVRJqhC6O2jDaUXwHXcBmur1qIzJgwuEW8AE+t5ggfTODBICDCOZBqfV4qO0LMgS02DnWABuljkvBtJrfcqePdL817K70cijlbERxhnIsEkYa1OptiJJsbf5Hf5WILks3k8AR8qYs5MCZYf3gBTiyiQEM6nN/aivAx4uIBGupKvaGekXHeYj6L4trJyJOxJhfuSFPfBuPCt4XwjAr/7LNw7XWKLaDpdLjHIHjXTHgIna+gtllxCJUUZOmhVRk1HLRMsXQuSsI2ov8qEhYj5zZzxFxdXnfTkDNowtFyGknxC+8YL2XQ0hc5CKafZX2GMjkcRHzDNZSxIeagUcFhkavvaPT97lmUp6RC+cNqnNr8AvrteUungDpnL57NTCFF0pPI+/NY3KB4ht5DxalrqVUqqO3lkLMETOOm4N8lJCAiTkiqWACp7LRvzIHZtqURabE+8r3y55OoIolluaWRjn0w3LpnoeiILpK99vhBlLuEw81i8CGNhp6RQ/nVflTpHZHa7FSUa7MgOeeB4bj1zXZdDAOdqc3NR8OGyjSClNE6danZGoi+YE2y2VRGkks2myqElXN20fPx3JED2n9iHQMrWZq9bErWujVcYVUu3FwRAtGFYlm09d2jdwyEpIoX4B2Zhby1KfpnR43Ki/nk7KpRU0mqoDQbJXzp1GcloyTXXN4N510iI1BzYBuKDC9slFLcTabweoelZ9l6vi1JYZGrMp/k0v3gGj0M3d59leI5rlLsiJA7zYzkquAQFAHvSdMRECVDVUHzt05MlyMPW6c9jdi/njV9mc8yAQkIiPCrpRpmS2XHRvc5cKCp0NMJOLFRiZpOfRC0ephZPQPdc0EBiokzoZo9Gce+oDMk8+y7eCZcLTkUlMx1xkp0W7oAZwav12Xj2QddloXDlT51GDUfIfkLkD5iiKAbDbsAXUBiB21AFWksjJcj/Y2xuEnTzJ7/tdFyQKKFh9eaZLPJW6WWbDZZCOlOVu4QgkCVqL2eD/XxGTi1Xw63GWsRFKlfejIha90qrlblwltaZ5IXX7QSdxKX4dQgJepIWls2dD76PRUBn7dGo2hxHM58S0sUnWipwuzyV4NNu4GzEZZLAYmTKJhSOO2ggOc7K+FBgYWWnuWWltpSektc66/vR9r8feQICbM+tA15whL9MpMSJesScO2CbgkFfjEIijee/TBjtTYPeTe8MOC5EDMJ+DQTuP8EREg215Fks5Uepw3KeSFfGjtCUd/bfRufjNIvvLZB2e85C+3bCvvgeXwtfE1Mq7Y6f3UqMoYuQ4e/mZ4Gb3W+fCMTYAL3j8CFFYhd5YU1WybD//5Z4ZyZgEUCj+bMgW0GHVhsqBZdpM16LscuQzGtWwqvVoUbAhlblAknZgJMoF0I9JqFPVvaxTIbZQJ3CYhwDqSKBZDKjg3GHNjHoPfpmLZ7LO0j0OPbvW2Xn5mcai8eQkGqiXVUewU8hsbARVzslZnc+TQTYAJMgAm0FwERzoFUsQBS2bHRmIP2egLuwa7DUzEI4Nez7oEg38oEmAATsE0Cj+bbCrbZFlwqJsAEmAATYAI2QUCEcyDViF4qO7a6z4FNPA9cCCbABJgAE2ACYvRQpIoFkMqODcYc8IPIBJgAE2ACTMCGCDyaMwft1gBmpIDvU3kq/vEFikRsNHOfzNtGtoLM8sAEFN5OxeWhcci7102cLq7GiSnbaYObL3BqzGegfX100suCPDFJMR8JC8WPoZE6meZBM5BLeswFb0Yj7WcLOJS7cOrFZSgx7JBpSKpMQe7O+ycbbKFEdy+xtLAYSpyGCTx8BEQEJEo1opfKDs0c0H8P/6GG6sAmFHeaCq+Ah7+27VpD+yiEHjmsLULlurE4lT8TUUsN+1OTc2CtcB4vkfqlCk7G24ncPImCr13hOSa8jbbOtlYQvs4EmAAT0BEQ4RxIFQsglR0h5kA6W8YPmlkpYFUqchNXIy+D9iag3QllMbQ/QXw47GikemyxK/p+NRVOlFnxvGjk9tJpzoMkm9Pe24QKNe2cRKNOlzfXInQo7ecvSOOuOoqqKyrU5E7GqY204eGw+eg9nnZou03CQXNIYvaKoKVAO7pNXYLQMbTX/SVLcslq87K5lItpKeAo82tWQp1mZ8EjWAZ1YRaqOgxHyLqpcKVqVAg7AyZl6bQlSObW54P5Whnqqi/jcOob2n73Nu2p3ysC9ldIkKfzdPRdMwxOlqR7qY6CcJCdvSDiRD+NGuTqvhVIUkVj1sQ+wh531o8OgsSuHPZQkTiUqDsoT7VWvvfMp8m4dVMGxbyNCNYLApX/bQau/ERy2IVR6H1ktk6fAEoUJM6l10SJTa4MaeOOwq5jOLquI5En2rvLHCOh8ObkvT3STMslqy1xFTJkaWHrzwSnYAIPIwFrUpHn8yzqnFq7XfR1qewIBZpla5LNJI97c/YgzXGSNNbJNJNMbpZeajZtleafJE1skMlVfiDINOtkYcv+Mlhz/NOresYkvVvSWDtYkKAlyd2fmjaB6tMRmqMkv6u1U0QyyII0siBBbEEu2ZJsrpDNbyalgJvabfJJqFP/eE1+ibYQmuuvNchV19woapDspXSChLOKUt3e+rpWSrhOOCdIU1ef1VwSJJxJBteidK+FYgiXDs8O1QT9x99JOLptjltrx1CeJxtlRpLUbzRIEdeQxO/R0UZS00U7Nb/8mwmZY6GuxmkpZ3OMBKOm5b3pghm5ZEtc24YI58IEmMCDSODRnDmwNS+PFOqKUxTw2mSYPpbBqat1RT+n8D6oX74AaXgJHqERUERZ27tdhbI0JdzG6mVlFTHwCl6AogyaRRBuNSOXXHHOnGxusH6625QUsBXIAX3gplXtU8CJ9tgvKtbNZKDgEC7NO4hKWsy3q1NCfTMCapoVER5UBw8a+bvQyJ3ucyBZZwc5CUFVWpKhti45PWjpBVyxUtR7vyyHy0A98+7BcFLlaevkbLyMINaQGUYu+vyayXsL+ZqTSzbLlS7Y0A7jYtFwOibABNqGgAjnQKr1eansCDEHD9ZhPBVuKH2HFxdjQGgGSlJSULQxDtd+XoIBiRHNps6b1NY46M0EClNyyaZlcxtutjOWAjaRb5NT1JE1qxcFD2bO2gfZ6q0IDaMp+8LtFPR3tWlOgqavoyBmoz+09bEi3WutLPf9OolYGf7ShA5cRBuYLZIYRs3kvUXIJZvkarYU+gsU11KihoyWWWQivkms5cbXmQATsB0Czb6fmxdNqvV5qezY4D4HpHjoGaFEUVIKtGqvWrlX/bbE7l5wKC5ClTCwrstCGcUkGI7aApLCVdC9I6ciaHI46vLz9PfrUjgKQnGlDemFTtQtTIGyH5N1crrKQzRrQNLPtPZv6TAvm2vprlZcqyVZ3zsKOAfoylN1+CjFU1jL596ke6/uWYzFW84ScRs8OrnCTlWE2sbORKsYtU4u2SoR1Q945/nn8NExqyk5ARNgAg8YARH+vlTjbKns2OI+BzJ4zVmJSpK5TXmRRsVCQOIQISCRpG19Y9A5cgYyxsXBuXMgHB5rECyoOrQMaUn5NMeuRj05GE8sGN5I5lkGjzETkZM4GSlJcjgJAYmTAuEStwRPUEDiqRdX06NK091vLkFAV/r1kvkn15Jsrvm7WnFFFoGub+4jWeg4FPnQEoInlVvEE3ov0r15/0rC1hvd8OfXRAYktqJaZm+5TQJZ8euhqlSiolCNyxMz4OA/DCHLR8NZuKlrDHyDE5AWOxYOrhSQuGE2vDq1hpG8VXLJZsttuJD/K4o6DcBIVha2iooTMIEHjYAIyeZakmwW8Q19jzW/kC+NHaGYs3ZXYsUo7dcvH0yACbSSQN6W8XhHtRB73u7Wyhz4NibABGyVgIheX6oRvVR2HpV9Dmz1keNyPSwE/F/bgT0PS2W4HkyACTQhIMI5kCoWQCo77bvPwaPx/OWjeEcyKk0E3tnRVLl/pPU3MR4NTlxLJsAEmIBtEhDhHEg1opfKji3GHNjmw9H6UvnBc/wEeLY+A76TCTABJsAE2pGA1bcV5B2lKZ28o3TOQU/v1r5gLg0LtsIEmAATYAJMoD0JWHUOVNXSFE9VLd2ywqVCE/Pd0lSTrTABJsAEmAATsHkCVp0DWqGXqBJS2bHBfQ4kIsxmmAATYAJMgAmIISDCOZBqul8qOxxzIObB4DRMgAkwASbw6BIQ4RxINaKXyo50cyHNHys1CuKHICNFjaL3o3H+x+YpWn0m+wukjPgMFWJWTJQpyN2Z2mQ3xdbarfp8Mk4szzB/u3IXbbi0DCViyqXPpfbcfuT+rN8h0nzO93ylajOVfU0W7uyegWOLUu9DfrRtcXwkzuxuvEslmUlZgOQxX4DkI1D++QykDOqHH3sOweVzjYpAuhKFiybj2ItDcGxwHC4fFsejret0z1A4AybABB5IAiKcA6lG9FLZ4X0OcPMkCr5OlWbLYI+XEPLXiXBrQQxoTeou5B2nnR8f+EMnoKUubNqx19Lner9ArQR3h4iJ6LllLfwDmlb2zv4FuPLrSwj/4QAGrO6DssRPUWTkYzzweLgCTIAJ2CwBEa8ySjWil8pO++5zYE8iNQ6OJDrkooCgfaA96pKRNnAXPA6shS/tjlz/jwQkHx6OXLtJkwAAIABJREFUqFVRsDuzDMmzs+AWJEO9WgW1nDrbpRPgIugmnPsCafO20QiUlA2DFTQTYNjHlkadiQnIPq3vTbyj0G3pTHgplChInIuC1CzSbpAhbdxR2HWkbXnXzYSnoMBXkIzL89ejmLbyFbZW9qCtlYOHWlc2rM/dh7QpC1CeqYRD7BL0S9ApEJb/bQau/JSFysIo9D4yGx53HQQVStbNxeX95AAIDDyGI+TzqXBV67YTLsvPgFpNWzxfIBjdJyI0MUbbkVb9SNtFr0nWzXiQomS35UKddAhLFg1BZt1wOBeeRVU5qTV2n46Id9VIG0Fcd26EvzZdFq6OmYE7/7UXwX3JsDMJBtGMhp2MlB7lxvoSeTiyfiuuhv4n4p4XuS+DifycO/uh5jQ5A7nJODV0G9y2HIB/gRKyQD+teJTTUxFwIlXOm/R7va4q9H81Sn5OhdOL83XbKPeMgadnHG7SzILXwLuJTP9iogymE/JZJsAEmIB5AiKcA6lG9FLZac+YAxm8lybBW2iPvkni9wEolcEzkRwHhRrF80bi0o4o9J+sRs78bbCL34vnhshQsW4yTt2d3Rc69rXw9tbpMAhTzWc2pMLrw3D4Jm6E78XVOLHQFaFfTdV1PtrnIx+5c1aj5rWteC6a7islh2XcMhQ8I9g1/wAJV9T5rnhiZxJcVfuROnIbbkyNgD/JKru+sRb9Y2lZYXxW0wxUybi2VYauR/bCm5ySehKHqhccB9IN6LE5AtryFs5E/znhDfepDuFyYgYUXx5Al65qlK+ZjHOrkuG5lBwobSo1Ki8APbdthKuQp1rQqAD8o1fj6rf58H+dnJyL+1CkHq5TfKQ7nMasRV/tvYsR0WBJ91utkpYDtuIExop2Dkzl50DOgf0BkmjOIAYkw12ZoUTVDSWcIiw5XeQEkoS1o7sSV2OHoGTkVvh4qVCuJGcvZRNOzNmPmibLNDK4vZuE3iNJi8JSnYzryJ+ZABNgAmYIiHAOpBrRS2WnPWMOzLSCldP2XfvATdtBk5hSv0CkHclA/chylBdQZy905HS4RNMI9FBDRuqf1yPtmwydOnBpFtSBNHqly2bXkUpTUXxBCfXGGTi1UZePoBDpVEz/s+IcyCIi4KqdAQiEM3VotaX0OzkHZg/nQLgGrEb2nGW49UwfeERFwcNSeiGjX8+i8vFnEdRV+CCD6x8j4Dj7LMVYRMFVOyMhg/MfY7SOgXAI4lXC4TF2OGrf24+KKVNR880hOLy6ES5iljgc+mDWT1d0md3L/5+g5QMl7RiZVgT5hJdQdfokKkvkJKJlPFNhwoh9IDp/Qo6Btx/KftFfj5iJAUdmmkjMp5gAE2ACbUdAhHMg1YheKjtCzIGNHyTL2+TQ6ThrT9U3HjFSJ3e3s7dvtFtVJi03fKFGt6+2wos63fp/zMCRA9ZEiWlDC0EVcdNK7Wi+JYedfaOOjspkNfaQFCS7fbUXPudSUXJsHzLG7II/Tf0H+Fq32jD13jytXScTHW7Qq/D1iENeciDqfg6E7wxLI/bmed7zGQ9/OKkPoThTDq+4cNgd2ITiEj94WawrzQB4ylBTrILDkGA40HLIjSI5OijIEUxZhmMJNHPQ6JkQHCO3OXsRTjMH1g61imYl7OWQs+6YNVR8nQk80gTMDiQbqEg1opfKji3uc6CAjEbcVYUCdTXK0rIarT9TZ5t9FEXZwjUlbv6cAeewYNi594GrdxZKLuo6/arTtNZu6JUrylEv96dRvHCPCkWHjSLxO7nCTlWE2sa9uPuz8Oyeius7DLbVqDqTiqr78eehVqJSSSP9vlHwnzEd3o/n6+uuM2bvLEOdsNTQ2PaTfeBMgZQ3M4X60rLCwRTUBPcRMQuggO+oQCg/pDcmwkfDx9oMxV2befjhr4ux8ai4twTMYrL3g5M7OUGVIXCTB9O/VJTd9hPCHSwc1NkPDEfV9/u1+hT1l8i5KH4Wj4fRLRGz8dzx4xj0S+N/h0U5BkAetk57GrF/PWvBNl9iAkyACYAGJVYPqcbZUtlpz5gDM7BpJO0/xQ+pb09GeXfq1Glk19hrs/eT49aSsTiRSx1V8DSEjNeNfjsvGI60JbQ+r1DAzkGtje3THmET0SVwLgUJpsOJOiGZLBB2jScOSPzINzgBabFj4eBKAYkbZsOrkx8Cls5H1fwEnEgSMlHDIWgiQsJo3V/MNLzBtuHnbV1woapSiQoKcLw8MQMO/sMQsnw0nG9nIPft1Si5rTWDDpEzKQ6gIYMOgyZC8fUypMRugkPwaIR+PIzqEYMeiWeR9vZIHKOkdj4x6LncEG9gbLzpZ4fo4XCjVxUdYyPML6sYZ0ExBxe/pZgDB4o5eMHKuorxvU0+kyNASwgOsmBqVxnsQqntSgPxmJ5pOcWKnCOHrLaE2vaNaNzsOhp9tr0Fl2Gz0f3cXKT+2y7UyRR4PHElvCw6FBYLobtYm4e8G14Y8JwhcFXEPZyECTCBR5LA7zR0WKr5hfxa9PIT4UNYykTENansCEWZtbsSK0Y9IPOq9LbCsTX+6Lt1gjZin4+WE6gnhkIAZu891Om2xtFpuUnbvOPCCsSu8sKaLZPhb5sl5FIxASZgIwRE9PpSjeilssP7HNjIsydBMejVzTlxuHpaDh962+ORdgwE2r1mYc8WCbCzCSbABB54AiKcA4sTC20IQCo77bvPQYuB9aU15q0tvqvtbihMRd6P9HZEsxw7wClyNLy0bw/Y6kHxBkv3wmLsn60WncvFBJgAE2hHAiKcA6lG9FLZscGYg3Z8AKya9g6H/6RG+w1YvYETMAEmwASYwINO4NF8W+FBbzUuPxNgAkyACTCB+0hAhHMg1YheKjsPwD4H97HBOWsmwASYABNgAtYIiHAOpIoFkMqOLe5zYK2Z+DoTYAJMgAkwAekIiHAOpBrRS2WnPWMOWi7ZXHt4NU6NG4vkfiORebHRg1GXhdx3SE9hcCR+it9vImBQuodIjKU7O+OQPC9FTFISlJJGstlaYUoSh+DMjuabIFX84wsU5Ta/u83lkoszsWn3NZQ1N8VnmAATYAL3lYAI50CqEb1Udh4sbQWHaBIg+moJfJ8weg5o3/2ANVu1CogiGvG+PkRtnbmtSDbL41aixxDjDZDUUNEWyDdIR+m+HzfTsW5vJgSpCj6YABNgAlISeDTfVmhHdQWTks20LbJpieXWPwqm5I3djpCoUsZEPJfYSINQnYzzL+7D4z9Y0FQgFcdji13Rl1QchY2YiudFI7fXXvQdI0flurE4fcwPcg/a5pd2+bN7gXY7fCOctt5Uo2LnQqR9Rlv1uvvBxYcUBQ1bF6tSkPnOahQrdds2OvSbjpAPY+BsRbL5TspnSF9+EFV3qBCdQuC/4CP49zShp3AXmwoFb45EyfjDCBWkjgu349SkPHT7geSjL1GdSArbI1gGdSFJWHcg2eh1JBstZFd4CBnvb0NZFu3qGH8A/cfrHQSSyD6z6iiqrqhQk0uzNiRQJRs2H73HB+osWpJLLjmBjevO0k6YMzDYqryDCnsWf45153/DtTxHTHiNdrrs2AUfrHoF0Vrdi0IsHr8J1yKDUJqWhzJVDbqMeQufP/kT+nziit1botGFUh1e+AFWhszDd6Oo1dSF2PGXHVhxVrchtk/0SGx6O0SnEHqXF//CBJgAE9AREOEcSDWil8pOe+5zYE6y2bzEcqseVDPyxs/HhcDh6wxUkkCxLDsDak/a0reA1A47k05DC8WWGperti4EQdSxOtdlIDN2LrIj9yLI82tcWlNEgkoH4O9NctCvj0SxwTlwpu2il29FkELoiakDjx+Jq4ei0HuIBcnm0v1IT7wKr020bwFtXFB/bjVSFm6HRxPZ6RbSohUD1zkr4Uu6FnlTxuL68QkIjaYyeccgeGsMhGWFa42zDJuq3amyID4axaO2ond0U3sW5ZJV6Tjw9yT0HSzGOZAj9oN3EZv+Dfos64TtW17SdvZNj99woiwYJzaMhhtdqBb8rKvGaRo+p37+/7DWbQxO7O2CjsR809urMC85CJ9HOZq/ia8wASbwyBIQ4RxIFQsglZ32jDkw/5y1WGLZfFbm5Y39noW8lEbEpVGomj0ZJUP2Isw5A3jqpXvamlnWLxzazahJI8IjVIVskn6uV5ATEhSDx7U7EJEKYXQwcq7oC12rQvnm1Ug7Tb0zbWdcW0DqgxE0s2BBG7o+NQVlxeTQzJqMAm02atTfJnEiEiZybu2WyAEkha11WBRwonIWFQs9rKWZCH35W/Ojcxz2pMe15k4z98jx8ssk5qS/2tFisX/D4ZSbKFR/gz/pNZeqKgAfUn0Efm8mfz7NBJjAo0xAhHMg1YheKjs2GHPQKoll649ts10N7cPhGrwM5cmkaEhSxk6XTkJpnw+XaP20uIUsLcY1NFJ3rK9rrPDUkKF9I1nnqt0LcKVgOMVSkKASdezCMkW2sUy1qbIET0QfGrl3MHXN5DmjHtNYS5psW6yXyTxt5aQjOooGUUOFdsLL772LtU+bKT/xV6lIvMtDfr/cIzOG+TQTYAK2SEDEd6NUI3qp7NjgPgfWJJYhh6OrClU3mne8di6kyKgkuefGT5dZeWMZPMLkKPn8IByjp0Fh/zVyU/3gFmZx2EmxAl5wKC5ClWCe3pIoyxBGnA2H+vhRlAvXKJag+LQCbr2oTCSz6JxzjtbDhXQqlPxCMxT6o75CBXvfQK1jAFJvLPql6RsBpiSb7cIj4JazDzln9LbrlCg/01TauqFEht9kJIUNVOXr8q+9QEsotc1TtfSMI+GqJUnpFh1CzMGiFfghpwV3deqEjsSq0NipMZeFuyvcfyvENW07FeLkZcNT4Y3opzvh+50ncU2fV/W1TKQWN8ro2Ed47vn38UMLq2WuKHyeCTCBB5vAozlzIN0khbinw5rEMk17+04ZhhuLSK54rQJeH9F6fV991k+PRlefBJymoELH0GkIX2VZ3tgpPBhYp4RHPwU8ShVIT6OpaQ8rxfSNQefIGcgYF0fyw4FweKypdrDMuxjZ40aislQNp1eXoPdTQn7D0fOtc0h/LQ4FPiRVfJuC+lx0dpxjp8MzYQFOxftB5kDy1H5N3wgwKdnsLsg95yN98VgcE6Se62RwGjkf4QYOZqrgMXkact+Lw6mfyRnxpkUDEU985Y4EpO9XovZ6PtTHKYhzvxxuM9YiKFJwosjBGjMROYmTkZIkh5MQkDjJ+swLtDEH31LMwSwM7mymsManu/TDjB4bMG3cX+Aj74qEv47Gy5ZiQ/7QDwkRn2HWlP9Gzyd+D6dODTqe4W9Mw8crdmDUyIOoJjsdf98FsxYGwbAxtjInj4SZBqPPvcpCG9eBPzMBJvBAEhAh2VxHks2tXdQVz+RCvjR2hBK9R5LNnzwoks3iEbZLSuFthfPV8zEggZwOPh5QAip8Gz8OFyfuwQfPWplFekBryMVmAkygZQREjKOkGmZLZccGYw5a1macmgm0MQE5Rqz7DiPaOFfOjgkwgQeXgAjnQKpYAKns2GDMQbs/P7QnwY/7UFIobCBgdLgEw2dkuNkgQOf4JAwwvkfCz7UXD6EgtfkuhrCnZZOhMXDhaXIJW4NNMQEm8LAQEOEcSDWil8oOzxw0f3hlcHlxtCEkoPllGz7j8FQMArQxDnwwASbABJhAWxGw+raC3MlqkjYpi1R2hMIG+4jwidqkVpwJE2ACTIAJMIEHj4DVnl9V1ext+ftSS6nsCIXP+N82eJ/tvlDgTJkAE2ACTIAJtD8Bq86BdCv0EsYcSGeq/VuYS8AEmAATYAJMoIUERDgHUsUCSGWHYw5a+IxwcibABJgAE3jECIhwDqQaZktlR5gLkc5W0+dJTaI9Q5CRokbR+9E4/6P1p6328GqcGjcWyf1GIvNio/S0U2HuO6QMODgSP8XvhzSLP9bLay7FnZ1xSJ6XYu5yk/O15/Yj92cTbyCIurvtEgnCS2d2tEE56lKQNjABhbdTcXloHPLaQIO57MJJrDvG2xm2XWtzTkyACTQmIMI5kGpEL5Wd9lRlbPnD5xA9kzQIlsD3CaN77QMRsGYr+iVEPMD6AKZ51KTuQt7xfNMXJTwrj1uJHkOa7t4ooXmLpkrPk3OQ8pvFNHyRCTABJtBaAiLC9qUaZUtlp31VGe3lcjiQSq6giSDs0a87lChMTED2af1I0DsK3ZbOhNc99EtVPy5D2ppkaEMvFTHotnwm3I7QVsAZE/FcYkTD86JOxnnaevnxH1bC29zWvBdX49hiV/QleWRhQ15BKCm31170HSOHsEPi6WN+kNMWzPUlSti9MBOhb4TDgVQTK3YuRNpnJAPo7gcXH6qbQbKZNBgy31mNYqVOK8Kh33SEfBgDZ3UKLsevR1k+qS+qaXvlC7RJQfeJCE2M0dq9k/IZ0pcfRJWwHUOnEPgv+Aj+PS3t6KciKeYhKJCRRLW9GjVkT/7mEvSI1oGt/zEByTsU8Fdk0R4PatTWhKPHtpnwUB5CxvukXpmVAYf4A+g/vlFDqFKRm7gaeaQvYScj7YaY2QiPDycHTY3yLxfiUlK6bhYnYDh6LJ0K0jGiQwZHd9ommsSnHGjjBWOPXH0hCSu+64ix741AN2t/kbfTMe/dgzhckE8aCjvwx4tO6PjkQGz6oB9od2jg8Ofw2emKWb8vxOGbNSit7YKVm16B95erMKr0FZyd2YW2ns7H4nHb0fEv/4UE+lj2r39g2urzOk2GTn6Inzce07qzlLOAkw8m8KgSsPZVRFykGtFLZUe6GjV/qGTwXpqk+xLvmwTPuwnk8HhzLby9dTv2VG2ejDMbUuH1oWHn++Y5WTyjOoTLiRlQfHkAXbpSp7VmMs6tSsbzcSFw+JqklEGdZTZ1wJ7BcC4gMaLOfeBqzjGwaEh3sbYuBEHrpsK5LgOZsXORHbkXQZ5f49KaIvjvPAB/73zkvj4SxQbnwDkY/stJH0IhdOwqWmoZiauHotB7SAR6bI6Atv6FNGMyp1H9S/cjPfEqvDbthS/JK9efW42UhdvhQQ6LVi7a7KFCbddp6P9+MOwKtuPUxPUojpwPT71PUZ+WBcedG9G/K2WgJhloYadw7xgEb42BsKxwrUm+tBy0NAEFipWI+EHnAFVlk5NAaeqPL0P64UCE7l4MF8q78vPJOL8hAgPILkgNs8e3urp4fbWyWUnVV49g61cy9BWcg2ZXjU6QU/TxhhBco87+TzdfwU+zqHc3OqovFqLjl2/iuy7UwatrUE11umGcyPC57DTiFxdi1PoPMP4PQPWFbzBg6WFEb3kJzXM2lwmfZwJM4GEjIMI5kGpEL5Ud6d6/aMnDov55PdK+yYBWNK80C+pApXYEajzKFJXnr9ThP/4sgoQOj0atrn+MgOPss6jwexbyUhoRl0ahavZklAzZizBnUkt86iXtyLy1h6xfuK6Dtg+GR6gK2Reo7ApyQoJi8Dh15IAfvKKDkXNFb6FWhfLNq5F2mtbzqeOqLVDBIUKYNTE/VVKfmoKyYnJoZk1GgTYb6shvh6OKgDlblP6Qw7UfOQbCLd7hcHPeh7JcwDNIVxa70Bj4aDnRQTMBFnmT81OcQsJXmwTHQHsDnLrqylzxcwqqcjJw6bWjurzUKtR3z6eZm2B9Wt1pU/+Xx27AlVhTV1p3ruNTvTFBcAyEQ0bSzpayOZ+Ow8X5KJy7Cpu06Uje+XZXrXpjF4tcLWXK15gAE3jQCYhwDqQa0UtlR4g5sLFmy/wCaV+o0e2rrfCi0XX9P2bgyIHm8swtLXWzIEUawboGL0N5cgpqgl6F06WTUNrnwyXauqqg5U6zoWT1dabLbU9T6oajavcCXCkYTrEUpCBJHZCwTJFda/q+JnUOnog+WyeY3crZHB9dmXT262mdpUldOnW02nmby9f4vNPIJej/jnWWxve1+Wcnkno2ztSooxecqrtpekRj++cDdTNaxvfxZybABB5JAha/83VEpBrRS2WnfWMOTD5lFeWol/vDWTvtrkLR4VSjZHI4uqpQdaN5ByrELtgplahqfMeTfeB88yRuZgrpaVnhIDkDwX3gQh20R5gcJZ8fhGP0NCjsv0Zuqh/cwiyt21MW7l5wKC5ClZAdvSVRRuvtjQ/18aMoF65RLEHxaQXcelGZQsPgnHMOZdqkKpT8QjMU+qO+QgV7X5JQFjqs2yko+qXpGwH2zjLUldLIu5ERu/AIuOXsQ84Zve06JcrPZIl4S0OFssMp2tiL+kvJKLkdDLeARhm35FeaGfGMUKIoSZefwLYqV1d2l8gI1BzYhiJDVWj2pySzKSdzptSpW7F4URLSW7A3l3snR1QTI0F+Wczh7t4JZf/7my59cTZSb+rv6h2C6OsnsTZV/wTVqXAytVB0vmJscxomwAQePAKP5syBrbVT2ER0CZyLtCnpcKKwA5ksEHZN/AAFfKcMw41FI3FsLU1rf0Tr9X31lXh6NLr6JOA0BRU6hk5D+Coajctj0CPxLNLepvSUzM4nBj2XR2lHzE7htAa+TgmPfiRMVKpAeloI3CiY0OLhG4POkTOQMS4Ozp0D4fBYUzUjmXcxsseNRGWpGk6vLkFvrdbBcPR86xzSX4tDgQ9N19+m6XcXnRXn2OnwTKCAw3g/yBwoQM+v6XJCh0ETofh6GVJiN8EheDRCP6Y6uQ9DyPJ8pC8ei2O3KZ86mtIfOR/hBg5mKyCHk3ofTo9YBjWV4fHElXfjDczdUrkjAen7lai9ng/1cQri3C+H24y1CIqUwWvOSlQmUtleVOsCEocIAYnkDA2cjbBcCkicNASZQsYOCni+sxIe+uULc7aE8+prJ7B1F8UczBmLEEsJG11zixqIl/dSfMD4n+DeYyC2f6QPSDRzv1tUNKbt3YUBb55Gzz9Q+xniP9z6Yd3i3xD/yV8QrOXqiC7DRmN3uDa8kQ8mwAQeUQK/09Bhqe4X8uvQy+/+Lz5KZUeo63u7b+OTUfcQgWcJ2CN2TXhb4Xz1fAxIIKfD5g7hbYWRKHv9MEIjba5wXCAmwASYgM0SELGsYNF3aMOKSWXnwdrnoA0Bc1ZMgAkwASbABEQRELGsIFUsgFR2bDDmQFRT3c9EtCfBj/voXX9hAwGjwyUYPiPDzQYBOscnYYDxPRJ+rr14CAWpJnYxtKdlk6Ex8N98GP4SlodNMQEmwAQeBgIinAOpRvRS2WnPfQ5s9ZGRweXF0YaQAFstpMlyOTwVgwBtjAMfTIAJMAEm0FYERCwrSDWil8oOsGKU5W1z2gou58MEmAATYAJM4EEkIMI5kGpEL5WdB7GZuMxMgAkwASbABKQjIMI5kGpEL5Ud6eCyJSbABJgAE2ACDyIBEc6BVCN6qewYN5MS35LQTOzLsXhnV57xRf7MBJgAE2ACTOCRIyDCOZBqRC+VHeM2VmDExzvw1ftP4ux3J2Ai7t34Bv7MBJgAE2ACTOChJiDCOZBqRC+VHdPtKXOWQ2ZGF8D0HXyWCTABJsAEmMDDSUCEcyDViF4qO2YaUu4KeVEe8prLF5i5gU8zASbABJgAE3g4CYhwDqQa0Utlx0xDdh+L/+j+A177Yyw+OsiLC2Yo8WkmwASYABN4BAiI2ARJqhG9VHbMtGr+XiRdGIA1B/+CQUbbIKhVKqjt5ZDz9ghm4PFpJsAEmAATeJgI8MyBoTVvFKHIPwTdmjkAedg67WnE/vXsw9TuXBcmwASYABNgAmYJiHAOpBrRS2XHLAvthY7Gl2spDuGGFwY8J1ZM1zgD/swEmAATYAJM4MEiIMI5kCoWQCo7phtIRTMH5RSUKDO+nHECF7vFIe75ZleMU/JnJsAEmAATYAIPBQGOOaCdDb6d9w6SchX4z7cHQW7crL1mYc8W45P8mQkwASbABJjAw0vgdxo6LFXvQn4tevmJ8CEsZSLimlR2RBSFkzABJsAEmAATeKQJiFhWkCoWQCo7j3R7c+WZABNgAkyACVglIMI5sDixYNWA+ARS2RFfIk7JBJgAE2ACTOBRJCDCOZBqRC+VnUexmbnOTIAJMAEmwATEExDhHEg1opfKjng4nJIJMAEmwASYwKNIQIRzINWIXio7Jpr54mqcmLIdVblf4NSYz1BpIolNnqpLQdrABBTeTsXloXHIK73HUlrIr2rzZJxYk4U7u2fg2KLUezTEtzMBJsAEmIAtExDhHEg1opfKji03B5eNCTABJsAEmED7ExDxjqJUI3qp7JiA3sEVDnI57KGCo7zpZkcli4Ygs244nAvPoqpchdru0xGRGAW7gmRcnr8exYWCjKMcHm8uQfBQP0CVgsx3VqNYqZN3dOg3HSEfxsDZnpKpM5D7/gLkZQF29mrYRc5G//cjIHhoVT8uQ9qaZNQKxVPEoNvymfBS0O80q3FsdhY8gmVQF2ahqsNwhKybCldtMWVwdJdTXjI4uNBP4VSjQ30hCSu+64ix741ANxEtbTE/raQ1lVsmsOINoYxQ80cmwASYwMNFQNjnwNJxPq/G0uU2uyaVnZYW+LeFgzT/88p6TVml7s666mr6JU+TM2mE5sJP5bqTJUc1F16K1+QX0cfacs3tIiGNcJRr8qcP0pz7Xv/5p7maw5O2adT6qzUl+vvLD2rODpikyc4SLlRryj4dozk6+6imTviYtkrzz/6Ud4nwoUhz/bVBZNeQvz4jMz/Kd7+hCQp9W3NAmiY0Uwo+zQSYABNgAg8aARHjSalG9FLZaalzJ4PzH2Pg2kl3n52MRs2lqSi+oIR64wyc2qg7L4z4nYrpf3IVyjevRtppkn2m2YLaAhUcIlR0gaYBuodBnvcF0hJV8AwLh2d0BLQN8OtZVD7+LIK6Ch9kcP1jBBxnn0VFXRRchVMBfeDmLvyigJMvUFQszEpYH73LYzfgSqxwHx9MgAkwASbABMQTEOEcSBULIJUd8XAMKe06GXfE1dQ3R6DrppXw1jsNhrRVOxbgSsFw9P9qGJzIOSieF41F5byIAAAbg0lEQVTsWt0SA3xHo+93z6I8JRXKH1bj1OYX0G/PW3DR31xvrmiUj/GSgbmk7XWeZa3bizzbZQJMgAm0PQERfY5UI3qp7LQBRPdn4dk9Fdd3ZEHXoatRdSYVVZR1fYUK9r6BWscAt1NQ9AvNIBgOZT6l8YNr9DB0e/dVimO4iiphyuHJPnC+eRI3MwUnQo3ygymoCe4DFyGPezjUqVuxeFES0rWBDPfzYFnr+0mX82YCTIAJSE2AZw5aRdwPAUvno2p+Ak4kCRmo4RA0ESG0VOASOx2eCQtwKt4PMgcKEvQTogp1R/31/Uibvw93hCWBWhlcEpbAU5iUkMWgR+JZpL09Esfoo51PDHoup6DHu3e27hf1tRPYukuGvnPG4r4KTrOsdesaiO9iAkyACdgoARHCS3UkvHSPQ1gRlb+QL40dEUXhJC0lcGEFYld5Yc2WyfBv6b2cngkwASbABGyOgAjngFUZba7VuEBMgAkwASbABO4jAREz11LFAkhl5z7S5KyZABNgAkyACTwEBEQ4B1K9RSCVnYeg1bgKTIAJMAEmwATuIwGrzoG8o9UkbVI8qey0SWE5EybABJgAE2ACDzEBqz2/qtrs2/dtikUqO21aaM6MCTABJsAEmMBDSMCqcwBIFQsglZ2HsBW5SkyACTABJsAE2pCACOdAqlgAqey0IT3OigkwASbABJjAQ0hAhHMg1YheKjsmWpGUD09M2Y6q3C9wasxnqGycRJmC3J2pOrXEZrdm4WrsWFzNbHahjU/ko2jzflTod2Fu48wbsqtLQdrABBTeTsXloXHIK703Syf3XsGAP6fCacJ5zLrckNel/ZfR9c3z+n+pcJ90Gn323G5irOxfWeg6IRWvn9Mva1WUY/EnFxH8Zip84s5jwLqbSKVdrIXj0tFs/PHd83Q+FV3fvYJ5ZxpAlZ3Lw5/eTUPw/6F/H2ZjR6Fhmew2Nv13BoLjzuJ3r2Xhe1Kc1B012LHSUDbhp7786bqr1b/ewKj3dPkN+LShDMi5QXaoDEL53ryIUTvLUWjIkn8yASbABB4wAiKcA6lG9FLZaWEL0bbGBV+n0h6Ipg4/PLFsCZ4IMHWtDc/V5ePm5oMoM12INjTUtll16eWNdR90RfzjTR+znsN6IHtDb92/dd0w7fcdMerpRiIVFaWYd6ge4X9oXB479HyhK06sC8eN9d0xoex/Eb9P51B0dJPj4zmhuLExHGcny7Bnw3XsETy8ugp8vKkMPacEI+PTUByOqcPHW4r1nbYj+rzgj91zHke0Y2M7jhifoC+bUMYPvBCucMWoHkJ+t/DxZ8Xw+Xchvx6YRTnFf693ahQeWLuIyrCByveJP7qk5ODjNGniddq21Tg3JsAEmAB0ooCWQUg1opfKjonadnCFg1xOIooqOMoNIktKFCTORUFqFs0oyJA27ijsOoaj67qZ8KR+rP7n1Tj9WQqqfgV8dyShW5CQrxqF75DQkioYyFHBOdIPVb9kwG78WvSfEkiXs1CwaAFyTwsqjbRr8oszEZoQhQ70+53Dy3BuVQpqhc0o7QPhu2IlAroClTsSkL4/C5VKJcpfn4wbHeXweHctuoUBFcK1JL2+A93j88F8dOkrR9WXcTj1DalE3s4HekXA/gqVs/N09F0zDPXrxuL0MT/IPagOJUrYvUBleCNc/yDI4OhOWz7by+DgQj+1pWw4ru5bgSRVNGZN7CNCExLw7uoKb+pQd1MW+kG+UY50/pwSe9x+j5/ubq1Yh+//fhMd/+SHATt/xSXDHS4uiH1a/8G+IwZ0dsDK8hrtiS5hnuiiv+TW4zH0rCnGDa0jVYVrFeR4PKnb4dM7RA6fLeU4Ue2F2I6OCA8lr0B5y2DB5M/UIyWojuiCZ4Us8spxuNoZH4fRhzp7vBz5GOK/K8e12E7o4iy7WwYii+p6cgzuzkaYzJpPMgEmwARslgBrKwhNEzQV/dfo2ij8c0NbKeCbuBG+wpLDQleEfjUVzo2a0W7gTPQfKCwrzG3WuM7kDATlxyHl0nBE/S0EpxKpcybn4M6Guchzn43+PwidsRJ5b07GlcMRCI0mR2RDMh6btxfBEeScqFW4o+9YnMevRP+xNN0/aBvcPl8Lf3mDOafo2eg3XqHt2OupnCkfbYcnqTwKn+3Dp6PfK0eRMouUor9dghsjtqHk9jC40bXauhAEraP61GUgk8qfHbkXQU9pb0KPb8O1Bry+WtlgSP9b3smt2HrDH38W6Rw0y6DZiRrsOVqB8OdppK2/JiwDrLzjhd2hDti0s9kNuhOV5dh+BoidZtCzbEh37WgxUp90xzpyflDnhJ5uN3E4vQbj+9rj2pkyZBDYGxV0raOZvBufrinHpn/ZY8Kcx3RnaeqmUO4Ip5QscjJ+h03/xxHuZTUopLbqIjgPyiJMWHoD3yvr0PPFLtgTZuxeibDJSZgAE2ACNkBAhHMg1YheKjv3m7ocji66EbjMUwE7lyI43iqmmIV8lBzPglq9GmdP68pQT52UrFhQbVTANVyG66sWIjMmDG4RL8BT6KytHQWHcGneQVTSFLpdnRLqmxFQU0clNKqDB438XWhGxJ1+JwEoB7kKtfpgClm/cJ2jYx8Mj1AVsi9QGZ5qEIgyZ3bQ0gu4Yu5ia86XlGD7r50w7U39vH51OT7eWYNpszzgZm9mrqGuGjto2SD1uS74LqRp51uWfh0TfnLECloq8BbKY++CWfGemLX1Cvr83Q5dQh9DtAstA4iUCik7U4TvvX6PE42XN4ivW18/fO8LmqG42bTWCi9sJ40JlJRixoqb2J7jioTO7CC05tHge5gAE2hfAiKcA6liAaSyIwFw6uvudgkCYWEWQDsTIIdizlaaHWheBo85e/FsZgpKfjmJvD+PxY2Eveg9tNE0gfEtFDyYOWsfZKu3IjSMZhsKt1Mw5dWmqRzovKO6oSyGae5G0931de0XyHDp599wKdQHLxumZP5XhRNlt/H9wjR8TFPzpb/VoXpDBtzigrGir0BUTfEEV7FW8QS+j32syeC/OrsAE7aoMW1mIGKFWQP94fakDz5f5KP7VHITfzxRgy7NJxyM6dLnGuw+eotmNTrrHA0hxe9l8K5U44ajDNGdaUnkXzUodesEb2Nnw8MdE4LyEZ9ym5wD/awDlV1VooaMlq9kIv7qTBSITzEBJsAEJCMgYlgj1YheKjstZNvJFXaqIpqKb+F9zZL7weMZOZRf7UeVPq/a7FSUCxMH1HFU5apI9jkC3pOmIyBKhqoC7QX9QTMRMhr5N357oFaNmjsKOAfoYiSqDh8V/TaD+vhRlAs+gSoFxacVcOtlfdZAKMjVPYuxeMtZM8GZjYor5leKRdj+cw1iX3Bt6OS7+uPE+t7a4MGMT7tjlr89Rr1pcAxq8P3GX7Gioy++n+yqXR4xHNX0psCoz27h5bcDMe0PTR/pauqQy7TOGTkWO4twLczDKADRTGELi7Ej5zFMeLpRtOLjrojuWIEd54QMqTzHb6FLL1ftkkhZTgUuVTS8WbE7vRY+CkP8CiVQ/YB3nn8OHx0zY49PMwEmwARsiICIMYxUI3qp7LSQftcY+AYnII1eWXRwpYDEDbPh1UkfrHhFharsLGD2ZJS4BuOJ5TMtZu46YyW6LV2AM4PX69J59kGXZeFwpfiDknUJuHZBGOVTr+0Xg6D4wIa8aPrfZ7wc6W+MxU0KGPT8r40UkBhBr9nto3NxKPKhJQRPOZxEtKaQqcy7GNnjRqKyVA2nV5egt5glDLov719JFHPQDX9+TVxAYuqeDIw6pEZpBXWm9HrgHm9P7E70RTiNtKszqPOFO3b3EOGfCoXOKcS8o9W45nIdff51XcumY5g/zr7phu930Tp/4e9waXEatJESdjLEz+mBBH/qtC9cR/Tfb6G0jpYVQiiWIc5d74yosWnZZSzO0sUgZMTTa4gRnXH2NVdt3sKsxrUw34ZZDeGk/WOY95YXJvxfeqVyCy0vBNLbGC/r3rIozVNi2sqruKaNkXRAn4gArH2hkWOR/yuKOg3AyBBt9nwwASbABGyagAjJ5jr08jOeN237Ol3Il8ZO25f8wcqxkt5WOF89HwMS6I0KPiQjkLdlPN5RLcSet7tJZpMNMQEmwARaS0DEWFOqEb1UdlqLiu9jAq0n4P/aDuxp/e18JxNgAkxAUgIinAOpYgGksiMpX5sz5hyfhAE2VyouEBNgAkyACdgSARELvlKN6KWyY0v4uSxMgAkwASbABGyPgAjnQKoRvVR2bK8RuERMgAkwASbABGyJgAjnQKoRvVR2bAk/l4UJMAEmwASYgO0REOEcSDWil8qO7TUCl4gJMAEmwASYgC0REOEcSDWil8qOCfyWJJtNJL9fpyr+8QWKcluZe/YXSBnxGYQtBVCwHSk9++HIoCE4Nigax2JpD4VzVnZCrEtGWuRYXDPYrzuE1LA45Dbei6mVRTN1W9XmyTixJgt3ds/AsUWpppK04JwaBfFDkJGiRtH70Tj/o/5WtVEd9HW8mm0565J1JFw1ZgiORC5A8T1vfmXZlrmrAp8fwyKRTO2XHDkEKe/vQoVWAFKFgjejkfazuTvvx3kVCt+djMt6KezKzXFUJqFckfgpKBQ/aX+n52xpCm02RTogz9C5Z3TntOle335XBr3qx9U4M3SIrl5DZyBXkDs32075uDYmktqz0bNLf6vHBuna5c7uBF0ZQoPwUz+yM+gDkhsX6q9E7mQqg3BOX7bkwcuoLfPpfDTO7Gx4qOuPL8CxoctAe2UJBUHxvMlIO6wTRmtC0ka+I+5H63KeTMAUAX5bwRSVdjlH2+se2ITiTlPhFdAGBXCOQs//Wand2vfOzjgcX/U1vLdOgFMbZP2wZ+ERvxH9x+/CmREZ7VpVh+gleH5VFOxuZ+Dqa5ORvuNZRLxuYUvt+1Xai5uQXfwSwvvqdnx0nrIRUVPIGDmQ55/ZBvnOrehCWhPag5wDOAQj4EtSKu1qVKBLnyF1URZ8t+xF364y1Bdm3HUaTBfdD56RClw/Ts7ji7o9xyuPp6AuYjo86Lm2G7USUaNUyJsSjeJRBxA+tNGOlKQb6pFofA7weH80CmauR/HQ+fCUZSF7ZQpc302Ch/ZWGTynvoCrs7ejIvotiNpl23TB+SwTeOAJiHAOpBrRS2XHRJuZlGzWpas6sAwZG1J0WwbLQhCwejF8tV+EgiJjAiqjIlB/LgM1tB+xbMJa9B4lR/mXC3EpKZ3UAegIGI4eS6eCdJCAc1/gzMJ9UN8RLsjhMn42QsYHw044v+ooqmjHxZrcyTi1kb6mhs1H7/HCLolqs/nV0n1p87bRF6wCTsEKEncytf0ebbOsomFRJ0GSmpQgXx+LkrEH0PtF3RdpydIhyJSvRcSbQpnMHSrawXEuLu/PF74/6Rt2OEI+nwpXYW8sCzLUKKUOdmgyXMbIUHZGifpyOR7/ZC26CPLWzqQxQKNyO5kgl934S52ulZzAxnVn4T9lBgb7mStT0/P2pFngIGhauChoq2kx95jnaunuOymfIX35QVQJbdgpBP4LPoJ/TzIojGhnZ8EjWAZ1Icl8dyBGpHzpSpfMSWtbstPkWqdgKJ7xQ14O8YeweZVaK/F95tNk3Lopg2LeRgQPoS2waTvszHdWo1ipG2k79JuOkA9jSGQrBRn/tgC3upOcd44CHr1UKP+XGl6kyxEk6HJYOYq/PgSHwVvv2bEs+Xof6ocsISlynU0772BdB2xhUsslKgr2806ivC6CnjfaSTQlH25jIprJiVupwt3Ldk9NRVDkSFzdnAFn7/Uo9JqKvtGNHC7aEfVxzEDBxbfQo/HOoRa+I8Ta5nRM4EEiIMI5kCoWQCo7JprHpGQzpaOp+vNL8+H75V74C6P50nyjkU4WKkpnI2LzbJ1sMn3JCdOU6YcDEbp7MUicEZWfT8b5DREY8D59qQcMQzBJPzsJ3423aRp/xGoUvLgR/mH0BUWj+oJ4YQS0Fb2jG8pYf3yZ6fwSZMiZvw128Xvx3BAZKtaRU9F4oFuZjCuDh+CqmtQaEY5unw9DB8rWZ1Q4svcewp0X6bM6BQWH/eDzpeCECB2PmUOVjGtbZeh6ZC+8abfg+lIV6vWbZpablaHWdzoqGh0GJKH/O4J+gxr1+ml6pzFr0VdrbjGa6VCp0nHg70noO1isc0CCSEuTdAJJfZPg2bgaNJLNHhWNHO05NWpL/CA0pVmuQjuZO0r3Iz3xKrw27dU6iPXnSCZ74XZ4GOS8abbadc5K+LqTEzZlLI14J5ActwzmpLVFj0xLU3HjeD6chxk8Jdq2Gy8gYs9s4PAHOL5hPyqHkAS3czD8l1OHr9V0oOWHeOoED0Whd4xQIWrnRSthlxiNwmcOo3+/uTj9UxY5BxbqK9xGst4lqTK4vSpOf0OLrjYDuZOiUaB/RuxpBuS5xGBU0hqVU4zwrJk4zLQTQp+FR+V6lNDj6eqeiuLMcHgJsuZWDzVKFtHyxXJdQscXl2DAh8KTRrMD8dORNyYBZxxIlv1vo42cHj+4BquRSU4InmrkmZr7jrBaDk7ABB5MAiKcA6lG9FLZEd9Qd1JOoqrfRPgapvnd/XRSx3ezIDGlYRFax0A4aEt/lP+cQqOzDFx67ajupJo60u75NKoPhoN2lD0XxTd0GgpVpG0gK6ZkFr53K8zlpypHeUE4fPWjHpfoCDgd0hdE+EHLCt1/0C0rVO2lL8J5X2g7MZfo0VCsWY8bBcPge2EXyoOHo6egb2xpbd05EK4Bq5E9ZxluPdMHHjSaI+FBOizJUOu/WDuFw0cY1WoPGez0HYb+hOkfneOwJz3O9LWWnrUnDYrdGxEgFEGIORio07Uwy1VoJzM26lNTUFacAfWsySjQpiFn53a4VkhLKywZ0AduWi40k0POQ1GxMCSmh8KMtLaLFRa1P87FPwfS/fZyPBY9n2aZBKbCejjNOg3UP3fdg+GkytNKdTvX0ozA5tVIO01eCuVdW0BiXhH69XOS7XYUZLzlCnQgfQ6HOprWzzCxti4Uv8lBzmWxHPImHpdxGqPPJpcVrNgy006wD4dnRD7yflEiwDsZqqAohGgZWztoWeHD5ssK2rsUw9B1yHqcLZxGsxjN85GRVkntDSEuQeS0VfMs+AwTeOAJmPsebFQxqUb0UtlpyzaTQVBFNj6cRi6hkbLxCEmNwqVzURJG69mrAmFHI7LMEXMtd8r6jE3mR1P2QgdwN6LUvqNxMe5+dhryEpwTt6FESc6BdwT8h6xG+t4U2KVlwHX8En1nKHRCjbKo1f1uJzwhJPzU7au98DmXipJj+5AxZhf8d1KHq11eMS9Drc1BRh2RiKeskWXJfjXJ1Zr14InoQ7M8wixMs6NxexguipHWbpaR7oQDjXa1MQfNrpOTZWAqtJnesavavQBXCoaj/1fD4ETni+dFI5vUOxsfWudMuLeOnhd9GzfLvskJGeypsvUWpv4t32+4KicFUQWqsrLoRLi4W7SpqJMfGI5LP5CCqPdZOA18yzT7FuQoJHWgZS27TsTRxH31t8h5p2t8MIFHmYCpvw0jHlKN6KWyI765O0Q8C6fTu1CQq/9mpGWFqsayySaycomMQM2BbSgyBESXZqEkUxg10dp/JeAU4Kf9QqrPSkaJ0ZsJwlp5LU3ZNz7M5ufeB67elPdFXdmqTp+9KwVtXKza1LOodPaHk35p1eXV4bBLmovsnCg8Ean/ErT3w2PeSpSl6Qpef5Hycw8UQgOo6EpUKmVw7hsF/xnT4f04cSgUrFiSoTYuRQs+CzEHi1bgh5wW3NPCpGa5GvIhqW4HNdWzUXPYhUfALWcfcs7oT9YpUX4mSxdbYs7+PUhrm8vS3Pn6ChXsfQO1jgFup6CIRtv3fNgHwqVzPm4Z/gbuIUOPV+i5o6Db3Gz93xMFJFZonyPLh0PEC5CnbkP2cTk8Iu/3aF6NyusqOHW/33Ys15mvMoH2JiBiTCfViF4qOy1A3nUqes8pQgat3eYKU+IUgKYNSLQwrWk3cDbCcikgcRIF+gmmaF3T852V8AhSwOet0ShaHIcz3yooLwrIM0R4a4tEI6QxE5GTOBkpSSS/LAQkTqIZBrP5BaLzguFIWzIZZxSUnwMtUTSuWuUhXKLX4K4I5+SBtN68hKSm9Ql8h8EnaDXywkfrggq1p/3g/9E0qD6ajOSV9OVN69c+C+Zro8JBcQO5b69GifCaGF3qEDkToWG6vMzLUOttteaHNubgW4o5mIXBnVuTgfV7zHPV3yuLQuepu0iqewjy3KPQbQtJdbsPQ8jyfKQvHotjAguamncaOZ+i+C3Yk7VeWttCriYvOcdOh2fCApyK94OMlhHs/CysV5nMwdRJen5fDERucgbqaQQvYjShizkYRzEHhm8Xz2EI3TMTHk+9hXBamsp4ewhyyFEWnrHOq9bCxcLfk7ZE7hHwCJyLzPyp6BnYUEbhVcaTq1JQqyJnLY3iC1Y+i+7fLdbGxbT6oDgcZUYwvBLb4a2QVheab2QCbU9AhGRzLUk2i/Ah7rFsF/KlsXOPxXw4bi+lV9Bid8Ftm2Fp4OGoFtfiPhGggNS01w5BsYU63oe8z7xD8Tln0yai/4ciHaH7hJyzZQLtTUBEry/ViF4qO+2NvH3tV345A+e/yKLXLlfCv8nMRfuWi63bMAE5Bbe+X4SSQpo2Mn7t1IaL3fKiqbVvgQTNYMeg5ez4joeNAM8cPGwtyvVhAkyACTABJnCPBEQsIUo1opfKzj0S49uZABNgAkyACTzkBKw6By7m35BrUzRS2WnTQnNmTIAJMAEmwAQeQgJWnYOKamlq3cWz8Uv20thkK0yACTABJsAEmEBzAladA8D29h9oXg0+wwSYABNgAkyACbQVARHOAccCtBVszocJMAEmwASYwINAQIRz0E4zB/9aiynj/oQ/TVqBE8KGKXwwASbABJgAE2ACkhAQ4Ry008zB0zOw+asNGFn7A45ckIQFG2ECTIAJMAEmwASIgAjnoJ1mDrTN4wq5sxpqUQIx3J5MgAkwASbABJhAWxAQ4Ry008yBtnYyuMqrkZffBgIybUGL82ACTIAJMAEm8AgQEOEctOfMgQyDJv0Hyj95Gf/2+kak8wzCI/BIchWZABNgAkygvQnYkLaCKRRqnNiZhI7xe7Bnmr+pBHyOCTABJsAEmAATaGMCNj5zoEYRrSh0C2LHoI3bnbNjAkyACTABJmCWgAjnoD1jDvTlFjG/YbaGfIEJMAEmwASYABNoEQERzkE7xhzU5iGvSE5vLLSoTpyYCTABJsAEmAATuAcCIsbk7TRzIGyCtOoE0Oc/sTD4HmrItzIBJsAEmAATYAItIvA7DR2W7riQX4tefiJ8CEuZ8DUmwASYABNgAkzggSEgYlmhnWYOHhiEXFAmwASYABNgAg8Xgf8P4EOfSjglKhIAAAAASUVORK5CYII=;" vertex="1" parent="1">
          <mxGeometry x="170" y="364" width="339" height="372.97" as="geometry" />
        </mxCell>
        <mxCell id="6RZpUzAoDiVNyotaiS3o-3" value="Old format" style="text;html=1;align=center;verticalAlign=middle;resizable=0;points=[];autosize=1;strokeColor=none;fillColor=none;" vertex="1" parent="1">
          <mxGeometry x="170" y="334" width="80" height="30" as="geometry" />
        </mxCell>
      </root>
    </mxGraphModel>
  </diagram>
</mxfile>
